<?xml version="1.0" standalone="no"?>
<!DOCTYPE svg PUBLIC "-//W3C//DTD SVG 1.1//EN" "http://www.w3.org/Graphics/SVG/1.1/DTD/svg11.dtd" >
<svg xmlns="http://www.w3.org/2000/svg" xmlns:xlink="http://www.w3.org/1999/xlink" version="1.1">
<metadata>
Created by FontForge 20170731 at Mon Oct  4 18:12:32 2021
 By Aleksey,,,
Copyright (C) 2000, 2007 Hoefler &#38; Frere-Jones. http://www.typography.com
</metadata>
<defs>
<font id="SVN-GothamLight" horiz-adv-x="1024" >
  <font-face 
    font-family="SVN-Gotham Light"
    font-weight="300"
    font-stretch="normal"
    units-per-em="2048"
    panose-1="0 0 0 0 0 0 0 0 0 0"
    ascent="1638"
    descent="-410"
    x-height="1044"
    cap-height="1434"
    bbox="-72 -461 2345 2187"
    underline-thickness="102"
    underline-position="-307"
    unicode-range="U+0020-FB04"
  />
<missing-glyph 
d="M0 -410v2048h1024v-2048h-1024zM145 1536l367 -799l367 799h-734zM102 -156l353 770l-353 770v-1540zM922 1384l-353 -770l353 -770v1540zM512 492l-367 -799h734z" />
    <glyph glyph-name=".notdef" 
d="M0 -410v2048h1024v-2048h-1024zM145 1536l367 -799l367 799h-734zM102 -156l353 770l-353 770v-1540zM922 1384l-353 -770l353 -770v1540zM512 492l-367 -799h734z" />
    <glyph glyph-name=".null" horiz-adv-x="0" 
 />
    <glyph glyph-name="nonmarkingreturn" horiz-adv-x="682" 
 />
    <glyph glyph-name="space" unicode=" " horiz-adv-x="614" 
 />
    <glyph glyph-name="exclam" unicode="!" horiz-adv-x="516" 
d="M229 375l-30 915v144h118v-144l-30 -915h-58zM190 0v174h136v-174h-136z" />
    <glyph glyph-name="quotedbl" unicode="&#x22;" horiz-adv-x="839" 
d="M508 913l72 521h133v-11l-146 -510h-59zM139 913l72 521h133v-11l-145 -510h-60z" />
    <glyph glyph-name="numbersign" unicode="#" horiz-adv-x="1433" 
d="M1249 479v-96h-280l-66 -383h-98l65 383h-424l-65 -383h-98l65 383h-248v96h265l81 484h-264v96h281l65 375h99l-64 -375h424l64 375h98l-66 -375h248v-96h-264l-82 -484h264zM545 963l-82 -484h424l82 484h-424z" />
    <glyph glyph-name="dollar" unicode="$" horiz-adv-x="1294" 
d="M608 -201v203q-139 12 -256 65.5t-229 153.5l67 80q100 -95 199 -145t223 -62v584q-229 49 -331.5 140.5t-102.5 244.5q0 155 121 261t309 110v118h99v-122q114 -10 206.5 -50.5t188.5 -117.5l-68 -80q-152 134 -332 155v-575q232 -49 337.5 -141t105.5 -242
q0 -161 -123.5 -267.5t-314.5 -111.5v-201h-99zM1040 371q0 72 -27.5 122t-103 92t-207.5 72v-565q153 4 245.5 82t92.5 197zM283 1071q0 -73 25 -122t98.5 -92t205.5 -75v559q-147 -4 -238 -81t-91 -189z" />
    <glyph glyph-name="percent" unicode="%" horiz-adv-x="1687" 
d="M426 717q-137 0 -225 107.5t-88 254.5v4q0 148 89.5 257.5t227.5 109.5q91 0 163.5 -51.5t111 -134t38.5 -177.5v-4q0 -149 -89 -257.5t-228 -108.5zM637 1079v4q0 117 -62 198t-149 81q-89 0 -148 -80.5t-59 -194.5v-4q0 -121 61.5 -199.5t149.5 -78.5q90 0 148.5 78.5
t58.5 195.5zM805 737l510 697h110l-546 -744l-506 -690h-111zM1257 -16q-137 0 -225 107.5t-88 254.5v4q0 148 90 257.5t228 109.5q91 0 163.5 -51.5t111 -134t38.5 -177.5v-4q0 -149 -89.5 -257.5t-228.5 -108.5zM1262 72q90 0 148 78.5t58 195.5v4q0 117 -62 198t-149 81
q-89 0 -147.5 -80t-58.5 -195v-4q0 -121 61.5 -199.5t149.5 -78.5z" />
    <glyph glyph-name="ampersand" unicode="&#x26;" horiz-adv-x="1425" 
d="M1274 -29l-248 256q-214 -247 -485 -247q-190 0 -315.5 111.5t-125.5 285.5v4q0 282 371 420q-86 96 -123 168t-37 159v5q0 140 101.5 232.5t257.5 92.5q139 0 234 -90.5t95 -220.5v-4q0 -250 -352 -371l377 -387q93 127 186 348l97 -39q-112 -250 -213 -381l264 -272z
M584 838q309 99 309 301v4q0 97 -64.5 161t-162.5 64q-109 0 -178.5 -66t-69.5 -165v-4q0 -67 35.5 -129t130.5 -166zM543 72q219 0 415 225l-423 438q-165 -58 -246.5 -149.5t-81.5 -200.5v-4q0 -132 95 -220.5t241 -88.5z" />
    <glyph glyph-name="quotesingle" unicode="'" horiz-adv-x="471" 
d="M139 913l72 521h133v-11l-145 -510h-60z" />
    <glyph glyph-name="parenleft" unicode="(" horiz-adv-x="880" 
d="M756 -221l-43 -68q-276 156 -422 378t-146 499t146 498.5t422 377.5l43 -67q-504 -308 -504 -809t504 -809z" />
    <glyph glyph-name="parenright" unicode=")" horiz-adv-x="880" 
d="M168 -289l-43 68q504 308 504 809t-504 809l43 67q275 -156 421 -377.5t146 -498.5q0 -278 -146 -499.5t-421 -377.5z" />
    <glyph glyph-name="asterisk" unicode="*" horiz-adv-x="880" 
d="M397 831l19 261l-217 -148l-45 76l241 115l-241 114l45 76l217 -147l-19 260h86l-18 -260l217 147l45 -76l-242 -114l242 -115l-45 -76l-217 148l18 -261h-86z" />
    <glyph glyph-name="plus" unicode="+" horiz-adv-x="1269" 
d="M584 231v441h-445v98h445v440h102v-440h444v-98h-444v-441h-102z" />
    <glyph glyph-name="comma" unicode="," horiz-adv-x="471" 
d="M133 -219l-24 51q67 36 92.5 72.5t21.5 95.5h-55v174h135v-151q0 -97 -39 -152t-131 -90z" />
    <glyph glyph-name="hyphen" unicode="-" horiz-adv-x="835" 
d="M143 551v115h549v-115h-549z" />
    <glyph glyph-name="period" unicode="." horiz-adv-x="471" 
d="M168 0v174h135v-174h-135z" />
    <glyph glyph-name="slash" unicode="/" 
d="M-37 -262l967 1896h100l-967 -1896h-100z" />
    <glyph glyph-name="zero" unicode="0" horiz-adv-x="1454" 
d="M725 -25q-134 0 -246.5 59.5t-187.5 161t-116.5 235.5t-41.5 282v4q0 148 42.5 282.5t118 236t189 162t246.5 60.5q134 0 246.5 -59.5t187.5 -161t116.5 -235t41.5 -281.5v-4q0 -148 -42.5 -282.5t-118 -236.5t-189 -162.5t-246.5 -60.5zM729 72q86 0 163 34.5t134 95
t99 141t63.5 175.5t21.5 195v4q0 125 -34.5 241.5t-96 206t-154 143.5t-200.5 54q-86 0 -163 -34.5t-134 -95t-99 -141t-63.5 -175.5t-21.5 -195v-4q0 -125 34.5 -241t96 -206t154 -144t200.5 -54z" />
    <glyph glyph-name="one" unicode="1" horiz-adv-x="686" 
d="M367 0v1333l-277 -94l-29 84l328 121h82v-1444h-104z" />
    <glyph glyph-name="two" unicode="2" horiz-adv-x="1208" 
d="M98 0v80l535 483q177 160 247 268t70 222q0 137 -94.5 222t-228.5 85q-131 0 -227.5 -65t-192.5 -201l-80 53q68 102 133 165t160.5 102.5t216.5 39.5q183 0 304.5 -112.5t121.5 -280.5v-4q0 -98 -40 -185t-111 -167.5t-207 -204.5l-439 -398h811v-102h-979z" />
    <glyph glyph-name="three" unicode="3" horiz-adv-x="1249" 
d="M637 -25q-330 0 -526 258l82 68q179 -229 446 -229q146 0 250 89.5t104 227.5v4q0 147 -124 229.5t-322 82.5h-78l-27 59l494 569h-752v101h897v-76l-485 -555q105 -6 194.5 -34t161 -76.5t112 -124.5t40.5 -171v-4q0 -122 -65 -219t-171.5 -148t-230.5 -51z" />
    <glyph glyph-name="four" unicode="4" horiz-adv-x="1359" 
d="M911 0v350h-776l-37 80l820 1014h96v-1002h233v-92h-233v-350h-103zM227 442h684v848z" />
    <glyph glyph-name="five" unicode="5" horiz-adv-x="1239" 
d="M618 -25q-140 0 -270 64t-231 168l76 76q211 -211 430 -211q169 0 277 103t108 257v4q0 148 -110.5 244t-283.5 96q-158 0 -323 -90l-82 53l41 695h805v-103h-711l-35 -536q151 77 318 77q137 0 249 -54t177 -153.5t65 -224.5v-4q0 -202 -142 -331.5t-358 -129.5z" />
    <glyph glyph-name="six" unicode="6" horiz-adv-x="1314" 
d="M678 -25q-108 0 -203 38.5t-162 105.5q-95 95 -138.5 220t-43.5 339v4q0 216 71 392t205 280t308 104q117 0 215.5 -41.5t197.5 -124.5l-67 -82q-89 77 -172 114.5t-182 37.5q-144 0 -252.5 -94.5t-165 -263.5t-51.5 -386q160 267 448 267q130 0 242.5 -54t182 -155
t69.5 -225v-5q0 -133 -66 -241t-181 -169t-255 -61zM686 72q168 0 275.5 107t107.5 263v4q0 147 -110 246t-279 99q-86 0 -161.5 -31t-127 -81t-81 -114t-29.5 -129v-4q0 -154 116 -257t289 -103z" />
    <glyph glyph-name="seven" unicode="7" horiz-adv-x="1202" 
d="M319 0l652 1331h-832v103h951v-78l-654 -1356h-117z" />
    <glyph glyph-name="eight" unicode="8" horiz-adv-x="1290" 
d="M645 -20q-149 0 -270.5 50.5t-191.5 143t-70 209.5v4q0 121 88 214.5t229 139.5q-116 44 -192 130t-76 204v4q0 107 69.5 194t179.5 134t234 47t234 -47t179.5 -134t69.5 -194v-4q0 -118 -76 -204t-192 -130q141 -46 229.5 -139.5t88.5 -214.5v-4q0 -117 -70.5 -209.5
t-192 -143t-270.5 -50.5zM645 780q155 0 264 83.5t109 211.5v4q0 122 -107 200.5t-266 78.5t-266 -78.5t-107 -200.5v-4q0 -128 109 -211.5t264 -83.5zM645 76q191 0 306.5 88t115.5 215v4q0 134 -121.5 220.5t-300.5 86.5t-300.5 -86.5t-121.5 -220.5v-4q0 -127 115.5 -215
t306.5 -88z" />
    <glyph glyph-name="nine" unicode="9" horiz-adv-x="1314" 
d="M600 -25q-125 0 -226.5 46.5t-205.5 132.5l68 82q94 -84 182 -124t184 -40q143 0 254 94.5t170 263.5t51 381q-69 -123 -179.5 -199.5t-266.5 -76.5q-215 0 -355.5 126t-140.5 312v4q0 202 142 341.5t362 139.5t365 -145q88 -88 134 -220.5t46 -338.5v-4
q0 -222 -76 -399.5t-209.5 -276.5t-298.5 -99zM635 629q89 0 165.5 31.5t126.5 83t78.5 116.5t28.5 133v4q0 154 -115.5 259.5t-291.5 105.5q-114 0 -202.5 -54t-133.5 -140t-45 -187v-4q0 -151 109.5 -249.5t279.5 -98.5z" />
    <glyph glyph-name="colon" unicode=":" horiz-adv-x="491" 
d="M178 870v174h135v-174h-135zM178 0v174h135v-174h-135z" />
    <glyph glyph-name="semicolon" unicode=";" horiz-adv-x="491" 
d="M178 870v174h135v-174h-135zM143 -219l-24 51q67 36 92.5 72.5t21.5 95.5h-55v174h135v-151q0 -97 -39 -152t-131 -90z" />
    <glyph glyph-name="less" unicode="&#x3c;" horiz-adv-x="1269" 
d="M1079 186l-950 494v82l950 493v-110l-825 -422l825 -426v-111z" />
    <glyph glyph-name="equal" unicode="=" horiz-adv-x="1269" 
d="M170 899v105h930v-105h-930zM170 438v105h930v-105h-930z" />
    <glyph glyph-name="greater" unicode="&#x3e;" horiz-adv-x="1269" 
d="M190 186v111l826 422l-826 426v110l951 -493v-82z" />
    <glyph glyph-name="question" unicode="?" horiz-adv-x="1093" 
d="M469 375l-27 332l11 10q203 4 314.5 91t111.5 236v5q0 131 -93.5 220t-246.5 89q-225 0 -396 -211l-73 61q96 119 207.5 181.5t265.5 62.5q198 0 321 -115.5t123 -283.5v-4q0 -93 -34 -168.5t-94 -126t-137.5 -82t-168.5 -41.5l-18 -256h-66zM434 0v174h135v-174h-135z
" />
    <glyph glyph-name="at" unicode="@" horiz-adv-x="2007" 
d="M1022 -332q-129 0 -249.5 32.5t-220.5 90.5t-183 140.5t-140 180.5t-88.5 213t-31.5 236q0 181 70 346t189.5 286t286 193t351.5 72q184 0 350.5 -66t284.5 -176.5t187.5 -259t69.5 -309.5q0 -126 -33 -224.5t-88 -156t-119 -87t-132 -29.5q-107 0 -179.5 50.5
t-99.5 139.5q-70 -88 -154 -139t-196 -51q-152 0 -257 102t-105 262q0 106 42.5 202.5t110 163t153 105.5t171.5 39q204 0 305 -182l29 153l98 -12l-76 -432q-18 -108 -18 -148q0 -87 48 -133.5t136 -46.5q56 0 107 25t94 74.5t68.5 133.5t25.5 191q0 140 -63.5 275.5
t-171.5 239.5t-262.5 167.5t-325.5 63.5q-233 0 -423.5 -112.5t-297.5 -303t-107 -416.5q0 -170 63 -322.5t173 -263.5t268 -176t340 -65q149 0 269 34t243 105l31 -51q-253 -154 -543 -154zM913 246q93 0 179 56.5t138 148t52 190.5q0 122 -76.5 203.5t-193.5 81.5
q-144 0 -257.5 -118.5t-113.5 -285.5q0 -129 74.5 -202.5t197.5 -73.5z" />
    <glyph glyph-name="A" unicode="A" horiz-adv-x="1617" 
d="M90 0l668 1444h102l668 -1444h-117l-182 401h-846l-182 -401h-111zM428 498h756l-377 829z" />
    <glyph glyph-name="B" unicode="B" horiz-adv-x="1478" 
d="M213 0v1434h592q246 0 373 -127q92 -92 92 -226v-4q0 -238 -244 -340q144 -38 234 -121.5t90 -220.5v-4q0 -179 -140.5 -285t-373.5 -106h-623zM319 772h474q164 0 266 78t102 217v4q0 121 -94 192.5t-264 71.5h-484v-563zM319 98h521q185 0 293 79t108 214v4
q0 134 -112 206.5t-324 72.5h-486v-576z" />
    <glyph glyph-name="C" unicode="C" horiz-adv-x="1511" 
d="M862 -25q-152 0 -285 57.5t-226 156.5t-147 235t-54 289v4q0 201 91.5 370.5t257 270t367.5 100.5q122 0 225.5 -30t177.5 -77.5t154 -121.5l-75 -78q-104 101 -219 156t-265 55q-127 0 -239 -50t-192 -135.5t-126.5 -204t-46.5 -251.5v-4q0 -133 47 -252.5t127.5 -205.5
t193 -136.5t238.5 -50.5q150 0 265 54.5t229 168.5l72 -70q-129 -123 -260.5 -186.5t-309.5 -63.5z" />
    <glyph glyph-name="D" unicode="D" horiz-adv-x="1601" 
d="M213 0v1434h477q166 0 309 -55t242 -150t155 -226.5t56 -281.5v-4q0 -150 -56 -282t-155 -228t-242 -151.5t-309 -55.5h-477zM319 98h371q146 0 269.5 48t206.5 131t129 195.5t46 240.5v4q0 126 -46 239t-129 197t-206.5 133t-269.5 49h-371v-1237z" />
    <glyph glyph-name="E" unicode="E" horiz-adv-x="1372" 
d="M213 0v1434h1020v-99h-914v-563h822v-98h-822v-576h924v-98h-1030z" />
    <glyph glyph-name="F" unicode="F" horiz-adv-x="1343" 
d="M213 0v1434h1010v-99h-904v-587h811v-99h-811v-649h-106z" />
    <glyph glyph-name="G" unicode="G" horiz-adv-x="1605" 
d="M870 -25q-166 0 -303 58.5t-227.5 159.5t-140 235t-49.5 285v4q0 145 51 279t141.5 236.5t225 164t290.5 61.5q168 0 289.5 -46t234.5 -142l-69 -80q-95 83 -203 127.5t-258 44.5q-170 0 -307 -88t-211 -234t-74 -319v-4q0 -139 42.5 -257.5t120.5 -205t194 -135.5
t257 -49q129 0 251.5 46.5t205.5 116.5v412h-479v98h582v-553q-108 -95 -253 -155t-311 -60z" />
    <glyph glyph-name="H" unicode="H" horiz-adv-x="1556" 
d="M213 0v1434h106v-664h918v664h106v-1434h-106v672h-918v-672h-106z" />
    <glyph glyph-name="I" unicode="I" horiz-adv-x="561" 
d="M227 0v1434h107v-1434h-107z" />
    <glyph glyph-name="J" unicode="J" horiz-adv-x="1124" 
d="M510 -20q-285 0 -434 268l88 55q69 -117 149.5 -172t202.5 -55q137 0 224 100t87 283v975h107v-967q0 -242 -131 -373q-114 -114 -293 -114z" />
    <glyph glyph-name="K" unicode="K" horiz-adv-x="1464" 
d="M213 0v1434h106v-942l914 942h145l-626 -633l653 -801h-139l-590 725l-357 -360v-365h-106z" />
    <glyph glyph-name="L" unicode="L" horiz-adv-x="1267" 
d="M213 0v1434h106v-1336h842v-98h-948z" />
    <glyph glyph-name="M" unicode="M" horiz-adv-x="1777" 
d="M213 0v1434h100l576 -848l575 848h101v-1434h-107v1245l-567 -825h-8l-568 825v-1245h-102z" />
    <glyph glyph-name="N" unicode="N" horiz-adv-x="1617" 
d="M213 0v1434h100l990 -1248v1248h102v-1434h-80l-1010 1274v-1274h-102z" />
    <glyph glyph-name="O" unicode="O" horiz-adv-x="1740" 
d="M868 -25q-158 0 -294.5 60.5t-228 162t-143.5 235.5t-52 280v4q0 147 52.5 281.5t145 236.5t229.5 162.5t295 60.5q127 0 241 -39t200 -108t149.5 -161.5t96 -202t32.5 -226.5v-4q0 -147 -52.5 -281.5t-145.5 -236.5t-230 -163t-295 -61zM872 72q130 0 244 50.5
t193.5 137t125.5 204.5t46 249v4q0 131 -46.5 250t-127 205.5t-195 138t-244.5 51.5q-173 0 -313 -86t-217.5 -232.5t-77.5 -322.5v-4q0 -176 78.5 -323.5t219.5 -234.5t314 -87z" />
    <glyph glyph-name="P" unicode="P" horiz-adv-x="1368" 
d="M213 0v1434h520q240 0 386.5 -117.5t146.5 -321.5v-4q0 -89 -29 -163.5t-81 -128t-122.5 -91t-153 -55.5t-173.5 -18h-388v-535h-106zM319 633h394q201 0 323.5 96t122.5 256v4q0 166 -118.5 256t-315.5 90h-406v-702z" />
    <glyph glyph-name="Q" unicode="Q" horiz-adv-x="1740" 
d="M1608 39l-76 -82l-203 182q-194 -164 -461 -164q-158 0 -294.5 60.5t-228 162t-143.5 235.5t-52 280v4q0 147 52.5 281.5t145 236.5t229.5 162.5t295 60.5q127 0 241 -39t200 -108t149.5 -161.5t96 -202t32.5 -226.5v-4q0 -143 -48 -273.5t-140 -232.5zM872 72
q221 0 381 135l-278 237l76 84l274 -249q156 183 156 434v4q0 131 -46.5 250t-127 205.5t-195 138t-244.5 51.5q-173 0 -313 -86t-217.5 -232.5t-77.5 -322.5v-4q0 -176 78.5 -323.5t219.5 -234.5t314 -87z" />
    <glyph glyph-name="R" unicode="R" horiz-adv-x="1480" 
d="M213 0v1434h602q262 0 404 -142q108 -108 108 -266v-4q0 -173 -115.5 -278.5t-304.5 -131.5l473 -612h-135l-457 594h-469v-594h-106zM319 690h484q184 0 301 88.5t117 239.5v4q0 147 -108 230t-304 83h-490v-645z" />
    <glyph glyph-name="S" unicode="S" horiz-adv-x="1310" 
d="M698 -20q-169 0 -307.5 56t-269.5 173l69 80q121 -112 240 -162.5t275 -50.5q160 0 261 80t101 204v5q0 80 -32.5 133t-122 96t-250.5 76q-260 54 -372 146.5t-112 256.5v4q0 161 131 269t330 108q151 0 265 -41.5t226 -132.5l-67 -84q-101 86 -204 124t-224 38
q-156 0 -253 -79t-97 -192v-4q0 -61 17.5 -104.5t63.5 -82.5t127.5 -69t208.5 -57q250 -51 361 -144t111 -251v-4q0 -172 -134 -281.5t-342 -109.5z" />
    <glyph glyph-name="T" unicode="T" horiz-adv-x="1327" 
d="M610 0v1335h-499v99h1106v-99h-500v-1335h-107z" />
    <glyph glyph-name="U" unicode="U" horiz-adv-x="1556" 
d="M778 -23q-129 0 -237 41t-186 118t-121.5 194.5t-43.5 265.5v838h107v-828q0 -255 127.5 -393.5t357.5 -138.5q222 0 350 134t128 388v838h106v-826q0 -301 -160.5 -466t-427.5 -165z" />
    <glyph glyph-name="V" unicode="V" horiz-adv-x="1536" 
d="M721 -10l-631 1444h119l561 -1319l563 1319h113l-631 -1444h-94z" />
    <glyph glyph-name="W" unicode="W" horiz-adv-x="2256" 
d="M623 -10l-521 1444h119l451 -1276l420 1280h82l419 -1280l451 1276h110l-520 -1444h-86l-420 1245l-419 -1245h-86z" />
    <glyph glyph-name="X" unicode="X" horiz-adv-x="1478" 
d="M104 0l570 731l-549 703h127l489 -633l488 633h125l-551 -703l571 -731h-127l-510 662l-508 -662h-125z" />
    <glyph glyph-name="Y" unicode="Y" horiz-adv-x="1466" 
d="M680 0v567l-614 867h133l536 -770l539 770h127l-615 -865v-569h-106z" />
    <glyph glyph-name="Z" unicode="Z" horiz-adv-x="1409" 
d="M139 0v59l981 1278h-946v97h1098v-60l-981 -1278h981v-96h-1133z" />
    <glyph glyph-name="bracketleft" unicode="[" horiz-adv-x="880" 
d="M201 -266v1700h559v-78h-465v-1544h465v-78h-559z" />
    <glyph glyph-name="backslash" unicode="\" 
d="M961 -262l-967 1896h100l967 -1896h-100z" />
    <glyph glyph-name="bracketright" unicode="]" horiz-adv-x="880" 
d="M121 -266v78h465v1544h-465v78h559v-1700h-559z" />
    <glyph glyph-name="asciicircum" unicode="^" 
d="M143 1010l324 430h90l324 -430h-109l-262 342l-262 -342h-105z" />
    <glyph glyph-name="underscore" unicode="_" horiz-adv-x="1228" 
d="M-4 -328v90h1237v-90h-1237z" />
    <glyph glyph-name="grave" unicode="`" 
d="M541 1219l-219 211l124 61l181 -272h-86z" />
    <glyph glyph-name="a" unicode="a" horiz-adv-x="1175" 
d="M508 -25q-75 0 -145.5 21t-129 60.5t-94 103.5t-35.5 143v4q0 161 125 250.5t332 89.5q179 0 346 -45v45q0 157 -90 238.5t-254 81.5q-162 0 -327 -84l-37 88q188 90 370 90q215 0 330 -115q107 -107 107 -295v-651h-99v174q-63 -86 -162.5 -142.5t-236.5 -56.5zM514 70
q163 0 279 90.5t116 230.5v119q-180 47 -354 47q-163 0 -253.5 -66t-90.5 -178v-4q0 -110 88.5 -174.5t214.5 -64.5z" />
    <glyph glyph-name="b" unicode="b" horiz-adv-x="1351" 
d="M721 -25q-262 0 -430 250v-225h-101v1495h101v-684q166 258 430 258q95 0 185.5 -38t162.5 -105.5t116 -172t44 -227.5v-4q0 -122 -44 -227t-115.5 -174t-162.5 -107.5t-186 -38.5zM711 72q177 0 293 121t116 325v4q0 200 -119 325.5t-290 125.5q-82 0 -159 -33t-136 -91
t-95 -143t-36 -182v-4q0 -130 61 -234t158 -159t207 -55z" />
    <glyph glyph-name="c" unicode="c" horiz-adv-x="1169" 
d="M651 -25q-147 0 -270 74.5t-192.5 199t-69.5 269.5v4q0 145 69.5 270.5t192.5 201t270 75.5q136 0 234.5 -51t183.5 -141l-72 -74q-80 82 -160.5 127t-187.5 45q-178 0 -300 -130t-122 -319v-4q0 -190 125.5 -321t304.5 -131q195 0 351 174l69 -62q-181 -207 -426 -207z
" />
    <glyph glyph-name="d" unicode="d" horiz-adv-x="1351" 
d="M631 -25q-95 0 -185.5 38t-162.5 105.5t-116 172t-44 227.5v4q0 122 44 227t115.5 174t162.5 107.5t186 38.5q262 0 430 -250v676h100v-1495h-100v233q-173 -258 -430 -258zM641 72q82 0 159 33t136 90.5t95 142.5t36 182v4q0 98 -36 183t-95 142.5t-136 90.5t-159 33
q-177 0 -293.5 -121.5t-116.5 -325.5v-4q0 -200 119.5 -325t290.5 -125z" />
    <glyph glyph-name="e" unicode="e" horiz-adv-x="1196" 
d="M631 -25q-102 0 -195.5 39.5t-163.5 109.5t-111.5 173t-41.5 223v4q0 149 64 274t178 198t253 73q143 0 253.5 -72.5t168.5 -196.5t58 -278q0 -25 -2 -41h-867q12 -188 131 -299.5t279 -111.5q114 0 199 43t159 120l70 -61q-87 -95 -189.5 -146t-242.5 -51zM225 571h760
q-6 81 -32 152.5t-71 129t-115 91t-157 33.5q-155 0 -264 -116t-121 -290z" />
    <glyph glyph-name="f" unicode="f" horiz-adv-x="741" 
d="M252 0v952h-152v92h152v103q0 180 92 272q82 82 219 82q85 0 156 -24v-95q-89 27 -156 27q-211 0 -211 -264v-101h365v-92h-365v-952h-100z" />
    <glyph glyph-name="g" unicode="g" horiz-adv-x="1351" 
d="M649 -332q-263 0 -479 160l59 82q192 -148 422 -148q185 0 297.5 105.5t112.5 300.5v151q-172 -241 -436 -241q-95 0 -185 35.5t-160.5 97.5t-113.5 155.5t-43 202.5v4q0 110 43 204.5t113.5 157.5t160.5 98.5t185 35.5q269 0 436 -233v208h100v-882q0 -222 -133 -355
q-139 -139 -379 -139zM635 174q110 0 208.5 48.5t161 141t62.5 207.5v4q0 117 -62.5 209.5t-160.5 140.5t-209 48q-171 0 -287.5 -108.5t-116.5 -286.5v-5q0 -115 56 -207t148.5 -142t199.5 -50z" />
    <glyph glyph-name="h" unicode="h" horiz-adv-x="1255" 
d="M190 0v1495h101v-645q128 219 377 219q195 0 306 -118.5t111 -311.5v-639h-100v621q0 164 -87 260t-245 96q-155 0 -258.5 -105t-103.5 -268v-604h-101z" />
    <glyph glyph-name="i" unicode="i" horiz-adv-x="509" 
d="M193 1317v137h124v-137h-124zM205 0v1044h100v-1044h-100z" />
    <glyph glyph-name="j" unicode="j" horiz-adv-x="509" 
d="M193 1317v137h124v-137h-124zM82 -334q-48 0 -84 8v88q25 -6 82 -6t91 37.5t34 108.5v1142h100v-1136q0 -120 -59 -181t-164 -61z" />
    <glyph glyph-name="k" unicode="k" horiz-adv-x="1146" 
d="M190 0v1495h101v-1120l647 669h133l-457 -462l471 -582h-127l-413 510l-254 -256v-254h-101z" />
    <glyph glyph-name="l" unicode="l" horiz-adv-x="509" 
d="M205 0v1495h100v-1495h-100z" />
    <glyph glyph-name="m" unicode="m" horiz-adv-x="1947" 
d="M190 0v1044h101v-186q27 45 57 79.5t71.5 66t97 48.5t122.5 17q129 0 216 -62t136 -163q131 225 377 225q185 0 293 -119t108 -317v-633h-100v621q0 170 -81 263t-228 93q-138 0 -234 -99.5t-96 -269.5v-608h-100v627q0 164 -81.5 257t-223.5 93q-141 0 -237.5 -108.5
t-96.5 -266.5v-602h-101z" />
    <glyph glyph-name="n" unicode="n" horiz-adv-x="1255" 
d="M190 0v1044h101v-194q128 219 377 219q195 0 306 -118.5t111 -311.5v-639h-100v621q0 164 -87 260t-245 96q-155 0 -258.5 -105t-103.5 -268v-604h-101z" />
    <glyph glyph-name="o" unicode="o" horiz-adv-x="1310" 
d="M653 -25q-113 0 -213 44t-170 117.5t-110.5 173t-40.5 208.5v4q0 109 41 209t111 174.5t171 119t215 44.5q151 0 274.5 -74.5t192 -198.5t68.5 -270v-4q0 -146 -69 -271t-193.5 -200.5t-276.5 -75.5zM657 70q121 0 219.5 60.5t152.5 163t54 224.5v4q0 191 -124.5 322
t-305.5 131q-183 0 -304.5 -131t-121.5 -318v-4q0 -191 124.5 -321.5t305.5 -130.5z" />
    <glyph glyph-name="p" unicode="p" horiz-adv-x="1351" 
d="M190 -328v1372h101v-233q166 258 430 258q95 0 185.5 -38t162.5 -105.5t116 -172t44 -227.5v-4q0 -122 -44 -227t-115.5 -174t-162.5 -107.5t-186 -38.5q-262 0 -430 250v-553h-101zM711 72q177 0 293 121t116 325v4q0 200 -119 325.5t-290 125.5q-82 0 -159 -33
t-136 -91t-95 -143t-36 -182v-4q0 -130 61 -234t158 -159t207 -55z" />
    <glyph glyph-name="q" unicode="q" horiz-adv-x="1351" 
d="M1061 -328v561q-173 -258 -430 -258q-95 0 -185.5 38t-162.5 105.5t-116 172t-44 227.5v4q0 122 44 227t115.5 174t162.5 107.5t186 38.5q262 0 430 -250v225h100v-1372h-100zM641 72q82 0 159 33t136 90.5t95 142.5t36 182v4q0 98 -36 183t-95 142.5t-136 90.5t-159 33
q-177 0 -293.5 -121.5t-116.5 -325.5v-4q0 -200 119.5 -325t290.5 -125z" />
    <glyph glyph-name="r" unicode="r" horiz-adv-x="819" 
d="M190 0v1044h101v-296q65 145 187.5 231t275.5 82v-111h-11q-91 0 -172 -34.5t-144 -99t-99.5 -165t-36.5 -223.5v-428h-101z" />
    <glyph glyph-name="s" unicode="s" horiz-adv-x="1017" 
d="M528 -20q-113 0 -227.5 41t-200.5 110l60 80q179 -137 375 -137q108 0 179.5 54t71.5 144v4q0 30 -9.5 55t-30.5 44.5t-42.5 34.5t-58 29.5t-64 23.5t-71.5 22q-159 45 -221 79q-137 73 -137 208v4q0 126 96 207.5t248 81.5q94 0 193 -30.5t177 -84.5l-53 -84
q-160 105 -321 105q-107 0 -172.5 -52t-65.5 -131v-4q0 -17 3.5 -32.5t13 -29.5t17.5 -24.5t26 -22t28.5 -19t36 -18t37 -15t42.5 -14.5t42 -13.5t45 -13.5q51 -15 84.5 -26.5t78 -30t73 -39.5t55.5 -49.5t40 -65.5t13 -82v-4q0 -137 -103 -221t-258 -84z" />
    <glyph glyph-name="t" unicode="t" horiz-adv-x="819" 
d="M539 -18q-131 0 -212 72t-81 214v684h-152v92h152v334h100v-334h367v-92h-367v-673q0 -203 209 -203q73 0 154 37v-95q-79 -36 -170 -36z" />
    <glyph glyph-name="u" unicode="u" horiz-adv-x="1255" 
d="M588 -25q-195 0 -306.5 119t-111.5 312v638h100v-620q0 -164 87 -260t245 -96q155 0 259 104.5t104 267.5v604h100v-1044h-100v195q-129 -220 -377 -220z" />
    <glyph glyph-name="v" unicode="v" horiz-adv-x="1191" 
d="M553 -8l-469 1052h117l395 -931l399 931h113l-469 -1052h-86z" />
    <glyph glyph-name="w" unicode="w" horiz-adv-x="1763" 
d="M483 -8l-383 1052h113l315 -917l316 922h80l315 -922l315 917h109l-383 -1052h-86l-311 895l-314 -895h-86z" />
    <glyph glyph-name="x" unicode="x" horiz-adv-x="1167" 
d="M950 0l-368 465l-369 -465h-121l426 532l-409 512h124l351 -442l354 442h121l-412 -509l428 -535h-125z" />
    <glyph glyph-name="y" unicode="y" horiz-adv-x="1204" 
d="M317 -334q-101 0 -206 45l34 88q79 -39 179 -39q84 0 142 55t116 191l-502 1038h117l434 -933l377 933h110l-452 -1081q-67 -160 -150 -228.5t-199 -68.5z" />
    <glyph glyph-name="z" unicode="z" horiz-adv-x="1134" 
d="M119 0v57l753 897h-725v90h875v-57l-754 -897h754v-90h-903z" />
    <glyph glyph-name="braceleft" unicode="{" horiz-adv-x="983" 
d="M866 -223l-14 -66q-109 21 -186 50.5t-124.5 64.5t-75 83t-37 98.5t-9.5 119.5v162q0 128 -54.5 194t-191.5 66h-53v78h53q137 0 191.5 66t54.5 194v162q0 69 9.5 119.5t37 98.5t75 82.5t124.5 64t186 50.5l14 -65q-80 -21 -134.5 -40.5t-94 -44t-62 -49t-35 -61.5
t-16.5 -74t-4 -94v-153q0 -128 -54.5 -196.5t-158.5 -98.5q110 -34 161.5 -99.5t51.5 -195.5v-154q0 -57 4 -94t16.5 -74t35 -61t62 -48.5t94 -44t134.5 -40.5z" />
    <glyph glyph-name="bar" unicode="|" horiz-adv-x="585" 
d="M248 -262v1896h90v-1896h-90z" />
    <glyph glyph-name="braceright" unicode="}" horiz-adv-x="983" 
d="M131 -289l-14 66q80 21 134.5 40.5t94 44t62 48.5t35 61t16.5 74t4 94v154q0 128 54.5 196.5t158.5 98.5q-110 34 -161.5 99.5t-51.5 195.5v153q0 57 -4 94t-16.5 74t-35 61.5t-62 49t-94 44t-134.5 40.5l14 65q109 -21 186 -50.5t124.5 -64t75 -82.5t37 -98.5
t9.5 -119.5v-162q0 -128 54.5 -194t191.5 -66h53v-78h-53q-137 0 -191.5 -66t-54.5 -194v-162q0 -69 -9.5 -119.5t-37 -98.5t-75 -83t-124.5 -64.5t-186 -50.5z" />
    <glyph glyph-name="asciitilde" unicode="~" horiz-adv-x="942" 
d="M238 496l-70 18q28 107 68 149t104 42q39 0 133.5 -42t128.5 -42q37 0 58.5 21t44.5 81l69 -18q-28 -107 -68 -149t-104 -42q-39 0 -133.5 42t-128.5 42q-37 0 -58 -21t-44 -81z" />
    <glyph glyph-name="uni00A0" unicode="&#xa0;" horiz-adv-x="614" 
 />
    <glyph glyph-name="exclamdown" unicode="&#xa1;" horiz-adv-x="516" 
d="M190 1260v174h136v-174h-136zM199 0v143l30 916h58l30 -916v-143h-118z" />
    <glyph glyph-name="cent" unicode="&#xa2;" horiz-adv-x="1189" 
d="M541 -12h-103l43 223q-156 53 -255 195.5t-99 316.5v4q0 145 69.5 270.5t192.5 201t270 75.5h29l35 172h102l-37 -186q154 -38 289 -179l-71 -73q-128 128 -240 157l-174 -884q40 -7 74 -7q193 0 350 175l69 -62q-181 -207 -426 -207q-41 0 -79 6zM236 731v-4
q0 -144 73.5 -257t194.5 -163l172 873h-19q-178 0 -299.5 -130t-121.5 -319z" />
    <glyph glyph-name="sterling" unicode="&#xa3;" horiz-adv-x="1318" 
d="M143 0v51l176 41v533h-176v98h176v242q0 236 134 370q119 119 307 119q147 0 249 -57.5t181 -159.5l-82 -63q-45 57 -89.5 95t-112 63.5t-148.5 25.5q-144 0 -232 -88q-102 -102 -102 -303v-244h610v-98h-610v-529h766v-96h-1047z" />
    <glyph glyph-name="yen" unicode="&#xa5;" horiz-adv-x="1404" 
d="M215 549v92h399l-548 793h129l510 -764l512 764h122l-551 -793h402v-92h-436v-201h436v-92h-436v-256h-103v256h-436v92h436v201h-436z" />
    <glyph glyph-name="section" unicode="&#xa7;" horiz-adv-x="1294" 
d="M674 -20q-133 0 -254.5 52.5t-210.5 141.5l78 74q77 -77 178.5 -122.5t218.5 -45.5q118 0 178 44t60 114v4q0 66 -85.5 117.5t-289.5 99.5q-226 53 -320 119t-94 165v5q0 91 81 152.5t222 78.5q-176 78 -176 215v4q0 117 98.5 186.5t262.5 69.5q133 0 254 -52.5
t210 -141.5l-77 -74q-77 77 -179 122.5t-219 45.5t-177 -44t-60 -114v-4q0 -67 85 -117.5t290 -99.5q229 -57 321 -120.5t92 -164.5v-4q0 -91 -81 -152.5t-222 -78.5q176 -78 176 -215v-4q0 -117 -98 -186.5t-262 -69.5zM791 518q116 0 190 48t74 112v4q0 61 -69.5 107.5
t-252.5 93.5q-125 32 -229 32q-116 0 -190 -47.5t-74 -111.5v-4q0 -61 69 -107.5t252 -93.5q127 -33 230 -33z" />
    <glyph glyph-name="dieresis" unicode="&#xa8;" 
d="M608 1219v163h142v-163h-142zM274 1219v163h142v-163h-142z" />
    <glyph glyph-name="copyright" unicode="&#xa9;" horiz-adv-x="1699" 
d="M848 -25q-153 0 -290.5 59t-235.5 158.5t-155.5 235.5t-57.5 285v4q0 148 58 284.5t156.5 237t237 160t291.5 59.5t290.5 -59t235.5 -158t155.5 -235t57.5 -285v-4q0 -148 -58 -284.5t-156.5 -237t-237 -160.5t-291.5 -60zM848 33q190 0 347 92.5t246 249.5t89 342v4
q0 186 -88 342t-244 247t-346 91t-347 -92.5t-246 -249.5t-89 -342v-4q0 -186 88 -342t244 -247t346 -91zM858 340q-157 0 -265 113t-108 272v4q0 158 109 272.5t266 114.5q92 0 158 -32t131 -93l-62 -63q-110 106 -229 106q-120 0 -201.5 -88.5t-81.5 -214.5v-4
q0 -125 83.5 -215t201.5 -90q71 0 124.5 25.5t111.5 80.5l57 -57q-66 -66 -133.5 -98.5t-161.5 -32.5z" />
    <glyph glyph-name="ordfeminine" unicode="&#xaa;" horiz-adv-x="798" 
d="M356 842q-89 0 -156 48.5t-67 135.5v4q0 90 69.5 140.5t184.5 50.5q93 0 170 -23v10q0 77 -45.5 117.5t-124.5 40.5q-80 0 -180 -49l-27 69q118 54 211 54q118 0 184 -66q58 -58 58 -164v-356h-76v84q-76 -96 -201 -96zM360 915q80 0 138.5 44.5t58.5 113.5v55
q-77 23 -174 23q-77 0 -122.5 -32.5t-45.5 -84.5v-4q0 -54 41.5 -84.5t103.5 -30.5zM127 600v82h516v-82h-516z" />
    <glyph glyph-name="guillemotleft" unicode="&#xab;" horiz-adv-x="1054" 
d="M850 86l-328 428v16l328 428l76 -49l-281 -385l281 -389zM432 86l-328 428v16l328 428l76 -49l-281 -385l281 -389z" />
    <glyph glyph-name="registered" unicode="&#xae;" horiz-adv-x="851" 
d="M426 737q-150 0 -253 105t-103 252v2q0 147 104 252.5t252 105.5q150 0 253 -104.5t103 -251.5v-2q0 -147 -104 -253t-252 -106zM426 776q132 0 223.5 94t91.5 226v2q0 131 -91 224t-224 93q-132 0 -223.5 -93.5t-91.5 -225.5v-2q0 -131 91 -224.5t224 -93.5zM293 924
v358h160q58 0 95.5 -29.5t37.5 -81.5q0 -42 -24.5 -69.5t-63.5 -38.5l100 -139h-72l-90 131h-86v-131h-57zM350 1102h96q38 0 59 17.5t21 47.5q0 64 -80 64h-96v-129z" />
    <glyph glyph-name="macron" unicode="&#xaf;" 
d="M211 1272v96h602v-96h-602z" />
    <glyph glyph-name="degree" unicode="&#xb0;" horiz-adv-x="921" 
d="M461 844q-122 0 -215.5 90.5t-93.5 208.5v4q0 118 93.5 208.5t215.5 90.5t215.5 -90.5t93.5 -208.5v-4q0 -118 -93.5 -208.5t-215.5 -90.5zM461 934q89 0 148 62.5t59 146.5v4q0 84 -59 146.5t-148 62.5t-148 -62.5t-59 -146.5v-4q0 -84 59 -146.5t148 -62.5z" />
    <glyph glyph-name="plusminus" unicode="&#xb1;" horiz-adv-x="1269" 
d="M1110 733h-424v-416h-102v416h-424v98h424v416h102v-416h424v-98zM1110 0h-950v98h950v-98z" />
    <glyph glyph-name="acute" unicode="&#xb4;" 
d="M397 1219l181 272l124 -61l-219 -211h-86z" />
    <glyph glyph-name="paragraph" unicode="&#xb6;" horiz-adv-x="983" 
d="M682 0v567h-12q-245 0 -403 115.5t-158 316.5v5q0 198 146.5 314t383.5 116h152v-1434h-109z" />
    <glyph glyph-name="periodcentered" unicode="&#xb7;" horiz-adv-x="471" 
d="M168 522v174h135v-174h-135z" />
    <glyph glyph-name="cedilla" unicode="&#xb8;" 
d="M444 -303l-112 53l184 270h88z" />
    <glyph glyph-name="ordmasculine" unicode="&#xba;" horiz-adv-x="798" 
d="M397 842q-127 0 -210 87t-83 210v4q0 124 85 212.5t212 88.5t210 -87t83 -210v-4q0 -124 -85 -212.5t-212 -88.5zM104 600v82h590v-82h-590zM401 922q91 0 148 62.5t57 154.5v4q0 93 -60 157t-149 64q-91 0 -147.5 -62t-56.5 -155v-4q0 -93 59.5 -157t148.5 -64z" />
    <glyph glyph-name="guillemotright" unicode="&#xbb;" horiz-adv-x="1054" 
d="M623 86l-76 49l280 385l-280 389l76 49l327 -428v-16zM205 86l-76 49l281 385l-281 389l76 49l327 -428v-16z" />
    <glyph glyph-name="questiondown" unicode="&#xbf;" horiz-adv-x="1093" 
d="M524 1260v174h135v-174h-135zM551 -18q-198 0 -321.5 115.5t-123.5 283.5v4q0 122 60 214t156 141t219 63l18 256h66l26 -332l-10 -10q-202 -4 -314 -91.5t-112 -236.5v-4q0 -131 93.5 -220t246.5 -89q224 0 395 211l74 -62q-189 -243 -473 -243z" />
    <glyph glyph-name="Agrave" unicode="&#xc0;" horiz-adv-x="1617" 
d="M90 0l668 1444h102l668 -1444h-117l-182 401h-846l-182 -401h-111zM428 498h756l-377 829zM807 1585l-219 211l125 62l180 -273h-86z" />
    <glyph glyph-name="Aacute" unicode="&#xc1;" horiz-adv-x="1617" 
d="M90 0l668 1444h102l668 -1444h-117l-182 401h-846l-182 -401h-111zM428 498h756l-377 829zM721 1587l180 273l125 -62l-219 -211h-86z" />
    <glyph glyph-name="Acircumflex" unicode="&#xc2;" horiz-adv-x="1617" 
d="M90 0l668 1444h102l668 -1444h-117l-182 401h-846l-182 -401h-111zM428 498h756l-377 829zM563 1585l205 250h82l205 -250h-97l-151 139l-152 -139h-92z" />
    <glyph glyph-name="Atilde" unicode="&#xc3;" horiz-adv-x="1617" 
d="M90 0l668 1444h102l668 -1444h-117l-182 401h-846l-182 -401h-111zM428 498h756l-377 829zM584 1569l-76 20q29 97 68 138.5t100 41.5q40 0 133 -38.5t125 -38.5q36 0 57 19.5t45 74.5l76 -21q-29 -97 -68 -137.5t-100 -40.5q-41 0 -133.5 39t-124.5 39q-36 0 -57 -20.5
t-45 -75.5z" />
    <glyph glyph-name="Adieresis" unicode="&#xc4;" horiz-adv-x="1617" 
d="M90 0l668 1444h102l668 -1444h-117l-182 401h-846l-182 -401h-111zM428 498h756l-377 829zM915 1587v156h150v-156h-150zM555 1587v156h152v-156h-152z" />
    <glyph glyph-name="Aring" unicode="&#xc5;" horiz-adv-x="1617" 
d="M592 1542q0 84 62.5 139.5t154.5 55.5t154.5 -55.5t62.5 -139.5q0 -60 -35 -107t-94 -71l631 -1364h-117l-182 401h-846l-182 -401h-111l629 1364q-58 24 -92.5 71t-34.5 107zM428 498h756l-377 829zM670 1542q0 -56 39.5 -92.5t99.5 -36.5t99.5 36.5t39.5 92.5
t-39.5 92.5t-99.5 36.5t-99.5 -36.5t-39.5 -92.5z" />
    <glyph glyph-name="AE" unicode="&#xc6;" horiz-adv-x="2140" 
d="M41 0l868 1434h1092v-99h-883v-563h791v-98h-791v-576h893v-98h-999v401h-615l-241 -401h-115zM455 498h557v839h-54z" />
    <glyph glyph-name="Ccedilla" unicode="&#xc7;" horiz-adv-x="1511" 
d="M752 -303l-113 53l156 230q-280 25 -462.5 233.5t-182.5 499.5v4q0 201 91.5 370.5t257 270t367.5 100.5q122 0 225.5 -30t177.5 -77.5t154 -121.5l-75 -78q-104 101 -219 156t-265 55q-127 0 -239 -50t-192 -135.5t-126.5 -204t-46.5 -251.5v-4q0 -133 47 -252.5
t127.5 -205.5t193 -136.5t238.5 -50.5q150 0 265 54.5t229 168.5l72 -70q-120 -118 -247.5 -181t-295.5 -69z" />
    <glyph glyph-name="Egrave" unicode="&#xc8;" horiz-adv-x="1372" 
d="M213 0v1434h1020v-99h-914v-563h822v-98h-822v-576h924v-98h-1030zM739 1565l-219 211l125 61l180 -272h-86z" />
    <glyph glyph-name="Eacute" unicode="&#xc9;" horiz-adv-x="1372" 
d="M213 0v1434h1020v-99h-914v-563h822v-98h-822v-576h924v-98h-1030zM612 1567l181 272l125 -61l-220 -211h-86z" />
    <glyph glyph-name="Ecircumflex" unicode="&#xca;" horiz-adv-x="1372" 
d="M213 0v1434h1020v-99h-914v-563h822v-98h-822v-576h924v-98h-1030zM479 1567l205 250h82l205 -250h-97l-151 139l-152 -139h-92z" />
    <glyph glyph-name="Edieresis" unicode="&#xcb;" horiz-adv-x="1372" 
d="M213 0v1434h1020v-99h-914v-563h822v-98h-822v-576h924v-98h-1030zM834 1567v155h149v-155h-149zM473 1567v155h152v-155h-152z" />
    <glyph glyph-name="Igrave" unicode="&#xcc;" horiz-adv-x="561" 
d="M227 0v1434h107v-1434h-107zM274 1567l-219 211l125 61l180 -272h-86z" />
    <glyph glyph-name="Iacute" unicode="&#xcd;" horiz-adv-x="561" 
d="M227 0v1434h107v-1434h-107zM195 1567l180 272l125 -61l-219 -211h-86z" />
    <glyph glyph-name="Icircumflex" unicode="&#xce;" horiz-adv-x="561" 
d="M227 0v1434h107v-1434h-107zM23 1567l210 219h95l211 -219h-111l-149 125l-150 -125h-106z" />
    <glyph glyph-name="Idieresis" unicode="&#xcf;" horiz-adv-x="561" 
d="M227 0v1434h107v-1434h-107zM387 1567v155h150v-155h-150zM27 1567v155h151v-155h-151z" />
    <glyph glyph-name="Eth" unicode="&#xd0;" horiz-adv-x="1662" 
d="M274 0v672h-153v98h153v664h478q166 0 308.5 -55t241.5 -150t155 -226.5t56 -281.5v-4q0 -150 -56 -282t-155 -228t-241.5 -151.5t-308.5 -55.5h-478zM381 98h371q146 0 269.5 48t206.5 131t129 195.5t46 240.5v4q0 126 -46 239t-129 197t-206.5 133t-269.5 49h-371v-565
h475v-98h-475v-574z" />
    <glyph glyph-name="Ntilde" unicode="&#xd1;" horiz-adv-x="1617" 
d="M213 0v1434h100l990 -1248v1248h102v-1434h-80l-1010 1274v-1274h-102zM588 1538l-76 21q29 97 68 138.5t100 41.5q41 0 134 -39t124 -39q36 0 57 19.5t45 74.5l76 -20q-29 -97 -68 -138t-100 -41q-40 0 -133 39t-125 39q-36 0 -57 -20.5t-45 -75.5z" />
    <glyph glyph-name="Ograve" unicode="&#xd2;" horiz-adv-x="1740" 
d="M868 -25q-158 0 -294.5 60.5t-228 162t-143.5 235.5t-52 280v4q0 147 52.5 281.5t145 236.5t229.5 162.5t295 60.5q127 0 241 -39t200 -108t149.5 -161.5t96 -202t32.5 -226.5v-4q0 -147 -52.5 -281.5t-145.5 -236.5t-230 -163t-295 -61zM872 72q130 0 244 50.5
t193.5 137t125.5 204.5t46 249v4q0 131 -46.5 250t-127 205.5t-195 138t-244.5 51.5q-173 0 -313 -86t-217.5 -232.5t-77.5 -322.5v-4q0 -176 78.5 -323.5t219.5 -234.5t314 -87zM911 1585l-219 211l125 62l180 -273h-86z" />
    <glyph glyph-name="Oacute" unicode="&#xd3;" horiz-adv-x="1740" 
d="M868 -25q-158 0 -294.5 60.5t-228 162t-143.5 235.5t-52 280v4q0 147 52.5 281.5t145 236.5t229.5 162.5t295 60.5q127 0 241 -39t200 -108t149.5 -161.5t96 -202t32.5 -226.5v-4q0 -147 -52.5 -281.5t-145.5 -236.5t-230 -163t-295 -61zM872 72q130 0 244 50.5
t193.5 137t125.5 204.5t46 249v4q0 131 -46.5 250t-127 205.5t-195 138t-244.5 51.5q-173 0 -313 -86t-217.5 -232.5t-77.5 -322.5v-4q0 -176 78.5 -323.5t219.5 -234.5t314 -87zM741 1587l181 273l125 -62l-220 -211h-86z" />
    <glyph glyph-name="Ocircumflex" unicode="&#xd4;" horiz-adv-x="1740" 
d="M868 -25q-158 0 -294.5 60.5t-228 162t-143.5 235.5t-52 280v4q0 147 52.5 281.5t145 236.5t229.5 162.5t295 60.5q127 0 241 -39t200 -108t149.5 -161.5t96 -202t32.5 -226.5v-4q0 -147 -52.5 -281.5t-145.5 -236.5t-230 -163t-295 -61zM872 72q130 0 244 50.5
t193.5 137t125.5 204.5t46 249v4q0 131 -46.5 250t-127 205.5t-195 138t-244.5 51.5q-173 0 -313 -86t-217.5 -232.5t-77.5 -322.5v-4q0 -176 78.5 -323.5t219.5 -234.5t314 -87zM625 1585l204 250h82l205 -250h-96l-152 139l-151 -139h-92z" />
    <glyph glyph-name="Otilde" unicode="&#xd5;" horiz-adv-x="1740" 
d="M868 -25q-158 0 -294.5 60.5t-228 162t-143.5 235.5t-52 280v4q0 147 52.5 281.5t145 236.5t229.5 162.5t295 60.5q127 0 241 -39t200 -108t149.5 -161.5t96 -202t32.5 -226.5v-4q0 -147 -52.5 -281.5t-145.5 -236.5t-230 -163t-295 -61zM872 72q130 0 244 50.5
t193.5 137t125.5 204.5t46 249v4q0 131 -46.5 250t-127 205.5t-195 138t-244.5 51.5q-173 0 -313 -86t-217.5 -232.5t-77.5 -322.5v-4q0 -176 78.5 -323.5t219.5 -234.5t314 -87zM649 1569l-76 20q29 97 68 138.5t100 41.5q41 0 134 -38.5t124 -38.5q37 0 58.5 20t44.5 74
l76 -21q-29 -97 -68 -137.5t-100 -40.5q-40 0 -133 39t-125 39q-36 0 -57.5 -20.5t-45.5 -75.5z" />
    <glyph glyph-name="Odieresis" unicode="&#xd6;" horiz-adv-x="1740" 
d="M868 -25q-158 0 -294.5 60.5t-228 162t-143.5 235.5t-52 280v4q0 147 52.5 281.5t145 236.5t229.5 162.5t295 60.5q127 0 241 -39t200 -108t149.5 -161.5t96 -202t32.5 -226.5v-4q0 -147 -52.5 -281.5t-145.5 -236.5t-230 -163t-295 -61zM872 72q130 0 244 50.5
t193.5 137t125.5 204.5t46 249v4q0 131 -46.5 250t-127 205.5t-195 138t-244.5 51.5q-173 0 -313 -86t-217.5 -232.5t-77.5 -322.5v-4q0 -176 78.5 -323.5t219.5 -234.5t314 -87zM977 1587v156h149v-156h-149zM616 1587v156h152v-156h-152z" />
    <glyph glyph-name="multiply" unicode="&#xd7;" horiz-adv-x="1269" 
d="M1004 279l-371 374l-371 -374l-69 69l374 371l-374 371l73 73l371 -375l371 375l69 -69l-375 -371l375 -371z" />
    <glyph glyph-name="Oslash" unicode="&#xd8;" horiz-adv-x="1740" 
d="M1485 1444h123l-205 -219q91 -99 139.5 -229.5t48.5 -274.5v-4q0 -147 -52.5 -281.5t-145.5 -236.5t-230 -163t-295 -61q-268 0 -467 168l-145 -153h-123l203 217q-90 102 -138 232.5t-48 273.5v4q0 147 52.5 281.5t145 236.5t229.5 162.5t295 60.5q266 0 467 -170z
M872 70q174 0 315 86.5t218.5 233t77.5 323.5q0 248 -154 436l-860 -926q166 -153 403 -153zM258 721q0 -254 152 -436l862 925q-170 154 -404 154q-174 0 -314.5 -86.5t-218 -233t-77.5 -323.5z" />
    <glyph glyph-name="Ugrave" unicode="&#xd9;" horiz-adv-x="1556" 
d="M778 -23q-129 0 -237 41t-186 118t-121.5 194.5t-43.5 265.5v838h107v-828q0 -255 127.5 -393.5t357.5 -138.5q222 0 350 134t128 388v838h106v-826q0 -301 -160.5 -466t-427.5 -165zM821 1556l-219 211l125 62l180 -273h-86z" />
    <glyph glyph-name="Uacute" unicode="&#xda;" horiz-adv-x="1556" 
d="M778 -23q-129 0 -237 41t-186 118t-121.5 194.5t-43.5 265.5v838h107v-828q0 -255 127.5 -393.5t357.5 -138.5q222 0 350 134t128 388v838h106v-826q0 -301 -160.5 -466t-427.5 -165zM659 1559l181 272l125 -62l-220 -210h-86z" />
    <glyph glyph-name="Ucircumflex" unicode="&#xdb;" horiz-adv-x="1556" 
d="M778 -23q-129 0 -237 41t-186 118t-121.5 194.5t-43.5 265.5v838h107v-828q0 -255 127.5 -393.5t357.5 -138.5q222 0 350 134t128 388v838h106v-826q0 -301 -160.5 -466t-427.5 -165zM520 1556l211 220h94l211 -220h-110l-150 125l-149 -125h-107z" />
    <glyph glyph-name="Udieresis" unicode="&#xdc;" horiz-adv-x="1556" 
d="M778 -23q-129 0 -237 41t-186 118t-121.5 194.5t-43.5 265.5v838h107v-828q0 -255 127.5 -393.5t357.5 -138.5q222 0 350 134t128 388v838h106v-826q0 -301 -160.5 -466t-427.5 -165zM885 1556v156h149v-156h-149zM524 1556v156h152v-156h-152z" />
    <glyph glyph-name="Yacute" unicode="&#xdd;" horiz-adv-x="1466" 
d="M680 0v567l-614 867h133l536 -770l539 770h127l-615 -865v-569h-106zM621 1556l180 273l125 -62l-219 -211h-86z" />
    <glyph glyph-name="Thorn" unicode="&#xde;" horiz-adv-x="1378" 
d="M213 0v1434h106v-260h414q240 0 386.5 -117.5t146.5 -321.5v-4q0 -110 -45 -198.5t-122 -144.5t-177.5 -86t-214.5 -30h-388v-272h-106zM319 371h394q200 0 323 97.5t123 256.5v4q0 166 -118.5 256t-315.5 90h-406v-704z" />
    <glyph glyph-name="germandbls" unicode="&#xdf;" horiz-adv-x="1269" 
d="M592 -4v88q209 5 324.5 80.5t115.5 218.5v4q0 263 -440 313v84q160 47 254 137t94 222v4q0 117 -85 192.5t-220 75.5q-151 0 -247.5 -106.5t-96.5 -284.5v-1024h-101v1024q0 216 123 350.5t328 134.5q182 0 295 -101.5t113 -256.5v-4q0 -138 -94.5 -240.5t-227.5 -148.5
q84 -15 155 -43t131 -71.5t94 -108t34 -144.5v-4q0 -184 -147 -287.5t-402 -103.5z" />
    <glyph glyph-name="agrave" unicode="&#xe0;" horiz-adv-x="1175" 
d="M508 -25q-75 0 -145.5 21t-129 60.5t-94 103.5t-35.5 143v4q0 161 125 250.5t332 89.5q179 0 346 -45v45q0 157 -90 238.5t-254 81.5q-162 0 -327 -84l-37 88q188 90 370 90q215 0 330 -115q107 -107 107 -295v-651h-99v174q-63 -86 -162.5 -142.5t-236.5 -56.5zM514 70
q163 0 279 90.5t116 230.5v119q-180 47 -354 47q-163 0 -253.5 -66t-90.5 -178v-4q0 -110 88.5 -174.5t214.5 -64.5zM631 1219l-219 211l125 61l180 -272h-86z" />
    <glyph glyph-name="aacute" unicode="&#xe1;" horiz-adv-x="1175" 
d="M508 -25q-75 0 -145.5 21t-129 60.5t-94 103.5t-35.5 143v4q0 161 125 250.5t332 89.5q179 0 346 -45v45q0 157 -90 238.5t-254 81.5q-162 0 -327 -84l-37 88q188 90 370 90q215 0 330 -115q107 -107 107 -295v-651h-99v174q-63 -86 -162.5 -142.5t-236.5 -56.5zM514 70
q163 0 279 90.5t116 230.5v119q-180 47 -354 47q-163 0 -253.5 -66t-90.5 -178v-4q0 -110 88.5 -174.5t214.5 -64.5zM545 1219l180 272l125 -61l-219 -211h-86z" />
    <glyph glyph-name="acircumflex" unicode="&#xe2;" horiz-adv-x="1175" 
d="M508 -25q-75 0 -145.5 21t-129 60.5t-94 103.5t-35.5 143v4q0 161 125 250.5t332 89.5q179 0 346 -45v45q0 157 -90 238.5t-254 81.5q-162 0 -327 -84l-37 88q188 90 370 90q215 0 330 -115q107 -107 107 -295v-651h-99v174q-63 -86 -162.5 -142.5t-236.5 -56.5zM514 70
q163 0 279 90.5t116 230.5v119q-180 47 -354 47q-163 0 -253.5 -66t-90.5 -178v-4q0 -110 88.5 -174.5t214.5 -64.5zM373 1219l205 249h81l205 -249h-96l-152 139l-151 -139h-92z" />
    <glyph glyph-name="atilde" unicode="&#xe3;" horiz-adv-x="1175" 
d="M508 -25q-75 0 -145.5 21t-129 60.5t-94 103.5t-35.5 143v4q0 161 125 250.5t332 89.5q179 0 346 -45v45q0 157 -90 238.5t-254 81.5q-162 0 -327 -84l-37 88q188 90 370 90q215 0 330 -115q107 -107 107 -295v-651h-99v174q-63 -86 -162.5 -142.5t-236.5 -56.5zM514 70
q163 0 279 90.5t116 230.5v119q-180 47 -354 47q-163 0 -253.5 -66t-90.5 -178v-4q0 -110 88.5 -174.5t214.5 -64.5zM360 1200l-69 19q28 107 68 148.5t104 41.5q39 0 133.5 -42t128.5 -42q37 0 58 21t44 81l70 -18q-28 -107 -68 -148.5t-104 -41.5q-39 0 -133.5 42
t-128.5 42q-37 0 -58.5 -21.5t-44.5 -81.5z" />
    <glyph glyph-name="adieresis" unicode="&#xe4;" horiz-adv-x="1175" 
d="M508 -25q-75 0 -145.5 21t-129 60.5t-94 103.5t-35.5 143v4q0 161 125 250.5t332 89.5q179 0 346 -45v45q0 157 -90 238.5t-254 81.5q-162 0 -327 -84l-37 88q188 90 370 90q215 0 330 -115q107 -107 107 -295v-651h-99v174q-63 -86 -162.5 -142.5t-236.5 -56.5zM514 70
q163 0 279 90.5t116 230.5v119q-180 47 -354 47q-163 0 -253.5 -66t-90.5 -178v-4q0 -110 88.5 -174.5t214.5 -64.5zM684 1219v163h141v-163h-141zM350 1219v163h142v-163h-142z" />
    <glyph glyph-name="aring" unicode="&#xe5;" horiz-adv-x="1175" 
d="M508 -25q-75 0 -145.5 21t-129 60.5t-94 103.5t-35.5 143v4q0 161 125 250.5t332 89.5q179 0 346 -45v45q0 157 -90 238.5t-254 81.5q-162 0 -327 -84l-37 88q188 90 370 90q215 0 330 -115q107 -107 107 -295v-651h-99v174q-63 -86 -162.5 -142.5t-236.5 -56.5zM514 70
q163 0 279 90.5t116 230.5v119q-180 47 -354 47q-163 0 -253.5 -66t-90.5 -178v-4q0 -110 88.5 -174.5t214.5 -64.5zM375 1419q0 85 62.5 145t150.5 60t150.5 -60t62.5 -145t-62.5 -145t-150.5 -60t-150.5 60t-62.5 145zM444 1419q0 -60 42 -101.5t102 -41.5t101.5 41.5
t41.5 101.5t-41.5 102t-101.5 42t-102 -42t-42 -102z" />
    <glyph glyph-name="ae" unicode="&#xe6;" horiz-adv-x="1953" 
d="M498 -25q-73 0 -142 21t-126 60.5t-91.5 103.5t-34.5 143v4q0 161 123 250.5t324 89.5q161 0 328 -45v45q0 158 -85 239t-245 81q-148 0 -313 -84l-37 88q97 46 178 68t178 22q157 0 258.5 -66.5t136.5 -195.5q63 125 174 197.5t248 72.5q143 0 253 -72.5t168 -196
t58 -278.5q0 -25 -2 -41h-866q12 -188 131 -299.5t279 -111.5q114 0 199 43t159 120l70 -61q-87 -95 -189.5 -146t-242.5 -51q-129 0 -241 61t-181 169q-201 -230 -469 -230zM983 571h760q-6 81 -32 152.5t-71 129t-115 91t-157 33.5q-155 0 -264 -116t-121 -290zM504 70
q243 0 418 219q-42 106 -45 223q-172 45 -332 45q-159 0 -246.5 -66t-87.5 -178v-4q0 -110 84.5 -174.5t208.5 -64.5z" />
    <glyph glyph-name="ccedilla" unicode="&#xe7;" horiz-adv-x="1169" 
d="M539 -303l-113 53l156 230q-199 25 -331 180t-132 358v4q0 145 69.5 270.5t192.5 201t270 75.5q136 0 234.5 -51t183.5 -141l-72 -74q-80 82 -160.5 127t-187.5 45q-178 0 -300 -130t-122 -319v-4q0 -190 125.5 -321t304.5 -131q195 0 351 174l69 -62
q-85 -96 -179.5 -148.5t-221.5 -58.5z" />
    <glyph glyph-name="egrave" unicode="&#xe8;" horiz-adv-x="1196" 
d="M631 -25q-102 0 -195.5 39.5t-163.5 109.5t-111.5 173t-41.5 223v4q0 149 64 274t178 198t253 73q143 0 253.5 -72.5t168.5 -196.5t58 -278q0 -25 -2 -41h-867q12 -188 131 -299.5t279 -111.5q114 0 199 43t159 120l70 -61q-87 -95 -189.5 -146t-242.5 -51zM225 571h760
q-6 81 -32 152.5t-71 129t-115 91t-157 33.5q-155 0 -264 -116t-121 -290zM655 1219l-219 211l125 61l180 -272h-86z" />
    <glyph glyph-name="eacute" unicode="&#xe9;" horiz-adv-x="1196" 
d="M631 -25q-102 0 -195.5 39.5t-163.5 109.5t-111.5 173t-41.5 223v4q0 149 64 274t178 198t253 73q143 0 253.5 -72.5t168.5 -196.5t58 -278q0 -25 -2 -41h-867q12 -188 131 -299.5t279 -111.5q114 0 199 43t159 120l70 -61q-87 -95 -189.5 -146t-242.5 -51zM225 571h760
q-6 81 -32 152.5t-71 129t-115 91t-157 33.5q-155 0 -264 -116t-121 -290zM518 1219l180 272l125 -61l-219 -211h-86z" />
    <glyph glyph-name="ecircumflex" unicode="&#xea;" horiz-adv-x="1196" 
d="M631 -25q-102 0 -195.5 39.5t-163.5 109.5t-111.5 173t-41.5 223v4q0 149 64 274t178 198t253 73q143 0 253.5 -72.5t168.5 -196.5t58 -278q0 -25 -2 -41h-867q12 -188 131 -299.5t279 -111.5q114 0 199 43t159 120l70 -61q-87 -95 -189.5 -146t-242.5 -51zM225 571h760
q-6 81 -32 152.5t-71 129t-115 91t-157 33.5q-155 0 -264 -116t-121 -290zM369 1219l204 249h82l205 -249h-96l-152 139l-151 -139h-92z" />
    <glyph glyph-name="edieresis" unicode="&#xeb;" horiz-adv-x="1196" 
d="M631 -25q-102 0 -195.5 39.5t-163.5 109.5t-111.5 173t-41.5 223v4q0 149 64 274t178 198t253 73q143 0 253.5 -72.5t168.5 -196.5t58 -278q0 -25 -2 -41h-867q12 -188 131 -299.5t279 -111.5q114 0 199 43t159 120l70 -61q-87 -95 -189.5 -146t-242.5 -51zM225 571h760
q-6 81 -32 152.5t-71 129t-115 91t-157 33.5q-155 0 -264 -116t-121 -290zM711 1219v163h141v-163h-141zM377 1219v163h141v-163h-141z" />
    <glyph glyph-name="igrave" unicode="&#xec;" horiz-adv-x="509" 
d="M205 0v1044h100v-1044h-100zM256 1219l-219 211l125 61l180 -272h-86z" />
    <glyph glyph-name="iacute" unicode="&#xed;" horiz-adv-x="509" 
d="M205 0v1044h100v-1044h-100zM166 1219l180 272l125 -61l-219 -211h-86z" />
    <glyph glyph-name="icircumflex" unicode="&#xee;" horiz-adv-x="509" 
d="M205 0v1044h100v-1044h-100zM8 1219l205 249h82l205 -249h-97l-151 139l-152 -139h-92z" />
    <glyph glyph-name="idieresis" unicode="&#xef;" horiz-adv-x="509" 
d="M205 0v1044h100v-1044h-100zM350 1219v163h142v-163h-142zM16 1219v163h142v-163h-142z" />
    <glyph glyph-name="eth" unicode="&#xf0;" horiz-adv-x="1308" 
d="M975 1427l-180 -90q185 -180 289 -366.5t104 -395.5v-4q0 -266 -151.5 -431t-391.5 -165q-145 0 -266 73.5t-190.5 199.5t-69.5 274v4q0 114 42.5 212.5t113 164.5t161 103.5t187.5 37.5q233 0 409 -176q-83 198 -330 422l-225 -112l-45 73l203 101q-81 72 -176 143h157
q58 -47 111 -96l203 102zM655 70q183 0 303.5 129t120.5 321v4q0 186 -124.5 308t-319.5 122q-181 0 -294.5 -123t-113.5 -311v-4q0 -184 124 -315t304 -131z" />
    <glyph glyph-name="ntilde" unicode="&#xf1;" horiz-adv-x="1255" 
d="M190 0v1044h101v-194q128 219 377 219q195 0 306 -118.5t111 -311.5v-639h-100v621q0 164 -87 260t-245 96q-155 0 -258.5 -105t-103.5 -268v-604h-101zM410 1200l-70 19q28 107 68 148.5t104 41.5q39 0 133.5 -42t128.5 -42q37 0 58.5 21t44.5 81l69 -18
q-28 -107 -68 -148.5t-104 -41.5q-39 0 -133.5 42t-128.5 42q-37 0 -58 -21.5t-44 -81.5z" />
    <glyph glyph-name="ograve" unicode="&#xf2;" horiz-adv-x="1310" 
d="M653 -25q-113 0 -213 44t-170 117.5t-110.5 173t-40.5 208.5v4q0 109 41 209t111 174.5t171 119t215 44.5q151 0 274.5 -74.5t192 -198.5t68.5 -270v-4q0 -146 -69 -271t-193.5 -200.5t-276.5 -75.5zM657 70q121 0 219.5 60.5t152.5 163t54 224.5v4q0 191 -124.5 322
t-305.5 131q-183 0 -304.5 -131t-121.5 -318v-4q0 -191 124.5 -321.5t305.5 -130.5zM682 1219l-219 211l125 61l180 -272h-86z" />
    <glyph glyph-name="oacute" unicode="&#xf3;" horiz-adv-x="1310" 
d="M653 -25q-113 0 -213 44t-170 117.5t-110.5 173t-40.5 208.5v4q0 109 41 209t111 174.5t171 119t215 44.5q151 0 274.5 -74.5t192 -198.5t68.5 -270v-4q0 -146 -69 -271t-193.5 -200.5t-276.5 -75.5zM657 70q121 0 219.5 60.5t152.5 163t54 224.5v4q0 191 -124.5 322
t-305.5 131q-183 0 -304.5 -131t-121.5 -318v-4q0 -191 124.5 -321.5t305.5 -130.5zM551 1219l180 272l125 -61l-219 -211h-86z" />
    <glyph glyph-name="ocircumflex" unicode="&#xf4;" horiz-adv-x="1310" 
d="M653 -25q-113 0 -213 44t-170 117.5t-110.5 173t-40.5 208.5v4q0 109 41 209t111 174.5t171 119t215 44.5q151 0 274.5 -74.5t192 -198.5t68.5 -270v-4q0 -146 -69 -271t-193.5 -200.5t-276.5 -75.5zM657 70q121 0 219.5 60.5t152.5 163t54 224.5v4q0 191 -124.5 322
t-305.5 131q-183 0 -304.5 -131t-121.5 -318v-4q0 -191 124.5 -321.5t305.5 -130.5zM410 1219l204 249h82l205 -249h-96l-152 139l-151 -139h-92z" />
    <glyph glyph-name="otilde" unicode="&#xf5;" horiz-adv-x="1310" 
d="M653 -25q-113 0 -213 44t-170 117.5t-110.5 173t-40.5 208.5v4q0 109 41 209t111 174.5t171 119t215 44.5q151 0 274.5 -74.5t192 -198.5t68.5 -270v-4q0 -146 -69 -271t-193.5 -200.5t-276.5 -75.5zM657 70q121 0 219.5 60.5t152.5 163t54 224.5v4q0 191 -124.5 322
t-305.5 131q-183 0 -304.5 -131t-121.5 -318v-4q0 -191 124.5 -321.5t305.5 -130.5zM428 1200l-70 19q28 107 68 148.5t104 41.5q39 0 134 -42t129 -42q37 0 58 21t44 81l70 -18q-28 -107 -68 -148.5t-104 -41.5q-39 0 -134 42t-129 42q-37 0 -58 -21.5t-44 -81.5z" />
    <glyph glyph-name="odieresis" unicode="&#xf6;" horiz-adv-x="1310" 
d="M653 -25q-113 0 -213 44t-170 117.5t-110.5 173t-40.5 208.5v4q0 109 41 209t111 174.5t171 119t215 44.5q151 0 274.5 -74.5t192 -198.5t68.5 -270v-4q0 -146 -69 -271t-193.5 -200.5t-276.5 -75.5zM657 70q121 0 219.5 60.5t152.5 163t54 224.5v4q0 191 -124.5 322
t-305.5 131q-183 0 -304.5 -131t-121.5 -318v-4q0 -191 124.5 -321.5t305.5 -130.5zM752 1219v163h141v-163h-141zM418 1219v163h141v-163h-141z" />
    <glyph glyph-name="divide" unicode="&#xf7;" horiz-adv-x="1269" 
d="M553 1024v182h164v-182h-164zM1130 672h-991v98h991v-98zM553 236v182h164v-182h-164z" />
    <glyph glyph-name="oslash" unicode="&#xf8;" horiz-adv-x="1310" 
d="M1106 1059h117l-164 -172q133 -152 133 -361v-4q0 -146 -69 -271t-193.5 -200.5t-276.5 -75.5q-196 0 -342 123l-106 -108h-117l162 168q-131 157 -131 360v4q0 109 41 209t111 174.5t171 119t215 44.5q201 0 342 -125zM657 68q185 0 306.5 131.5t121.5 318.5
q0 168 -100 295l-608 -639q115 -106 280 -106zM225 526q0 -172 97 -295l612 637q-119 109 -281 109q-123 0 -222 -61.5t-152.5 -164t-53.5 -225.5z" />
    <glyph glyph-name="ugrave" unicode="&#xf9;" horiz-adv-x="1255" 
d="M588 -25q-195 0 -306.5 119t-111.5 312v638h100v-620q0 -164 87 -260t245 -96q155 0 259 104.5t104 267.5v604h100v-1044h-100v195q-129 -220 -377 -220zM635 1219l-219 211l125 61l180 -272h-86z" />
    <glyph glyph-name="uacute" unicode="&#xfa;" horiz-adv-x="1255" 
d="M588 -25q-195 0 -306.5 119t-111.5 312v638h100v-620q0 -164 87 -260t245 -96q155 0 259 104.5t104 267.5v604h100v-1044h-100v195q-129 -220 -377 -220zM524 1219l181 272l124 -61l-219 -211h-86z" />
    <glyph glyph-name="ucircumflex" unicode="&#xfb;" horiz-adv-x="1255" 
d="M588 -25q-195 0 -306.5 119t-111.5 312v638h100v-620q0 -164 87 -260t245 -96q155 0 259 104.5t104 267.5v604h100v-1044h-100v195q-129 -220 -377 -220zM371 1219l204 249h82l205 -249h-96l-152 139l-151 -139h-92z" />
    <glyph glyph-name="udieresis" unicode="&#xfc;" horiz-adv-x="1255" 
d="M588 -25q-195 0 -306.5 119t-111.5 312v638h100v-620q0 -164 87 -260t245 -96q155 0 259 104.5t104 267.5v604h100v-1044h-100v195q-129 -220 -377 -220zM713 1219v163h141v-163h-141zM379 1219v163h141v-163h-141z" />
    <glyph glyph-name="yacute" unicode="&#xfd;" horiz-adv-x="1204" 
d="M317 -334q-101 0 -206 45l34 88q79 -39 179 -39q84 0 142 55t116 191l-502 1038h117l434 -933l377 933h110l-452 -1081q-67 -160 -150 -228.5t-199 -68.5zM518 1219l180 272l125 -61l-219 -211h-86z" />
    <glyph glyph-name="thorn" unicode="&#xfe;" horiz-adv-x="1351" 
d="M190 -328v1823h101v-684q166 258 430 258q95 0 185.5 -38t162.5 -105.5t116 -172t44 -227.5v-4q0 -122 -44 -227t-115.5 -174t-162.5 -107.5t-186 -38.5q-262 0 -430 250v-553h-101zM711 72q177 0 293 121t116 325v4q0 200 -119 325.5t-290 125.5q-82 0 -159 -33
t-136 -91t-95 -143t-36 -182v-4q0 -130 61 -234t158 -159t207 -55z" />
    <glyph glyph-name="ydieresis" unicode="&#xff;" horiz-adv-x="1204" 
d="M317 -334q-101 0 -206 45l34 88q79 -39 179 -39q84 0 142 55t116 191l-502 1038h117l434 -933l377 933h110l-452 -1081q-67 -160 -150 -228.5t-199 -68.5zM707 1219v163h141v-163h-141zM373 1219v163h141v-163h-141z" />
    <glyph glyph-name="Amacron" unicode="&#x100;" horiz-adv-x="1617" 
d="M90 0l668 1444h102l668 -1444h-117l-182 401h-846l-182 -401h-111zM428 498h756l-377 829zM492 1640v101h634v-101h-634z" />
    <glyph glyph-name="amacron" unicode="&#x101;" horiz-adv-x="1175" 
d="M508 -25q-75 0 -145.5 21t-129 60.5t-94 103.5t-35.5 143v4q0 161 125 250.5t332 89.5q179 0 346 -45v45q0 157 -90 238.5t-254 81.5q-162 0 -327 -84l-37 88q188 90 370 90q215 0 330 -115q107 -107 107 -295v-651h-99v174q-63 -86 -162.5 -142.5t-236.5 -56.5zM514 70
q163 0 279 90.5t116 230.5v119q-180 47 -354 47q-163 0 -253.5 -66t-90.5 -178v-4q0 -110 88.5 -174.5t214.5 -64.5zM287 1272v96h602v-96h-602z" />
    <glyph glyph-name="Abreve" unicode="&#x102;" horiz-adv-x="1617" 
d="M90 0l668 1444h102l668 -1444h-117l-182 401h-846l-182 -401h-111zM428 498h756l-377 829zM809 1583q-117 0 -191 61t-81 168h79q20 -60 68.5 -95.5t124.5 -35.5t124 35.5t68 95.5h80q-7 -107 -81 -168t-191 -61z" />
    <glyph glyph-name="abreve" unicode="&#x103;" horiz-adv-x="1175" 
d="M508 -25q-75 0 -145.5 21t-129 60.5t-94 103.5t-35.5 143v4q0 161 125 250.5t332 89.5q179 0 346 -45v45q0 157 -90 238.5t-254 81.5q-162 0 -327 -84l-37 88q188 90 370 90q215 0 330 -115q107 -107 107 -295v-651h-99v174q-63 -86 -162.5 -142.5t-236.5 -56.5zM514 70
q163 0 279 90.5t116 230.5v119q-180 47 -354 47q-163 0 -253.5 -66t-90.5 -178v-4q0 -110 88.5 -174.5t214.5 -64.5zM627 1214q-117 0 -191.5 61.5t-81.5 168.5h80q20 -60 68.5 -95.5t124.5 -35.5t124 35.5t68 95.5h80q-7 -108 -81 -169t-191 -61z" />
    <glyph glyph-name="Aogonek" unicode="&#x104;" horiz-adv-x="1617" 
d="M1546 -262v-74q-127 4 -192.5 46.5t-65.5 115.5q0 51 28 92t89 92l-176 391h-846l-182 -401h-111l668 1444h102l668 -1444h-23q-62 -49 -88 -84.5t-26 -77.5q0 -44 35.5 -68.5t119.5 -31.5zM428 498h756l-377 829z" />
    <glyph glyph-name="aogonek" unicode="&#x105;" horiz-adv-x="1175" 
d="M1038 -262v-74q-127 4 -192.5 46.5t-65.5 115.5q0 52 31.5 97t95.5 95v156q-63 -86 -162.5 -142.5t-236.5 -56.5q-75 0 -145.5 21t-129 60.5t-94 103.5t-35.5 143v4q0 161 125 250.5t332 89.5q179 0 346 -45v45q0 157 -90 238.5t-254 81.5q-162 0 -327 -84l-37 88
q188 90 370 90q215 0 330 -115q107 -107 107 -295v-651h-9q-62 -49 -88 -84.5t-26 -77.5q0 -44 35.5 -68.5t119.5 -31.5zM514 70q163 0 279 90.5t116 230.5v119q-180 47 -354 47q-163 0 -253.5 -66t-90.5 -178v-4q0 -110 88.5 -174.5t214.5 -64.5z" />
    <glyph glyph-name="Cacute" unicode="&#x106;" horiz-adv-x="1511" 
d="M862 -25q-152 0 -285 57.5t-226 156.5t-147 235t-54 289v4q0 201 91.5 370.5t257 270t367.5 100.5q122 0 225.5 -30t177.5 -77.5t154 -121.5l-75 -78q-104 101 -219 156t-265 55q-127 0 -239 -50t-192 -135.5t-126.5 -204t-46.5 -251.5v-4q0 -133 47 -252.5t127.5 -205.5
t193 -136.5t238.5 -50.5q150 0 265 54.5t229 168.5l72 -70q-129 -123 -260.5 -186.5t-309.5 -63.5zM813 1587l191 242l120 -57l-219 -185h-92z" />
    <glyph glyph-name="cacute" unicode="&#x107;" horiz-adv-x="1169" 
d="M651 -25q-147 0 -270 74.5t-192.5 199t-69.5 269.5v4q0 145 69.5 270.5t192.5 201t270 75.5q136 0 234.5 -51t183.5 -141l-72 -74q-80 82 -160.5 127t-187.5 45q-178 0 -300 -130t-122 -319v-4q0 -190 125.5 -321t304.5 -131q195 0 351 174l69 -62q-181 -207 -426 -207z
M598 1219l180 272l125 -61l-219 -211h-86z" />
    <glyph glyph-name="Cdotaccent" unicode="&#x10a;" horiz-adv-x="1511" 
d="M862 -25q-152 0 -285 57.5t-226 156.5t-147 235t-54 289v4q0 201 91.5 370.5t257 270t367.5 100.5q122 0 225.5 -30t177.5 -77.5t154 -121.5l-75 -78q-104 101 -219 156t-265 55q-127 0 -239 -50t-192 -135.5t-126.5 -204t-46.5 -251.5v-4q0 -133 47 -252.5t127.5 -205.5
t193 -136.5t238.5 -50.5q150 0 265 54.5t229 168.5l72 -70q-129 -123 -260.5 -186.5t-309.5 -63.5zM778 1587v156h156v-156h-156z" />
    <glyph glyph-name="cdotaccent" unicode="&#x10b;" horiz-adv-x="1169" 
d="M651 -25q-147 0 -270 74.5t-192.5 199t-69.5 269.5v4q0 145 69.5 270.5t192.5 201t270 75.5q136 0 234.5 -51t183.5 -141l-72 -74q-80 82 -160.5 127t-187.5 45q-178 0 -300 -130t-122 -319v-4q0 -190 125.5 -321t304.5 -131q195 0 351 174l69 -62q-181 -207 -426 -207z
M567 1219v165h148v-165h-148z" />
    <glyph glyph-name="Ccaron" unicode="&#x10c;" horiz-adv-x="1511" 
d="M862 -25q-152 0 -285 57.5t-226 156.5t-147 235t-54 289v4q0 201 91.5 370.5t257 270t367.5 100.5q122 0 225.5 -30t177.5 -77.5t154 -121.5l-75 -78q-104 101 -219 156t-265 55q-127 0 -239 -50t-192 -135.5t-126.5 -204t-46.5 -251.5v-4q0 -133 47 -252.5t127.5 -205.5
t193 -136.5t238.5 -50.5q150 0 265 54.5t229 168.5l72 -70q-129 -123 -260.5 -186.5t-309.5 -63.5zM1114 1806l-211 -219h-94l-211 219h111l149 -125l150 125h106z" />
    <glyph glyph-name="ccaron" unicode="&#x10d;" horiz-adv-x="1169" 
d="M651 -25q-147 0 -270 74.5t-192.5 199t-69.5 269.5v4q0 145 69.5 270.5t192.5 201t270 75.5q136 0 234.5 -51t183.5 -141l-72 -74q-80 82 -160.5 127t-187.5 45q-178 0 -300 -130t-122 -319v-4q0 -190 125.5 -321t304.5 -131q195 0 351 174l69 -62q-181 -207 -426 -207z
M887 1468l-205 -249h-82l-205 249h97l151 -139l152 139h92z" />
    <glyph glyph-name="Dcaron" unicode="&#x10e;" horiz-adv-x="1601" 
d="M213 0v1434h477q166 0 309 -55t242 -150t155 -226.5t56 -281.5v-4q0 -150 -56 -282t-155 -228t-242 -151.5t-309 -55.5h-477zM319 98h371q146 0 269.5 48t206.5 131t129 195.5t46 240.5v4q0 126 -46 239t-129 197t-206.5 133t-269.5 49h-371v-1237zM1026 1786l-211 -219
h-94l-211 219h111l149 -125l150 125h106z" />
    <glyph glyph-name="dcaron" unicode="&#x10f;" horiz-adv-x="1351" 
d="M631 -25q-95 0 -185.5 38t-162.5 105.5t-116 172t-44 227.5v4q0 122 44 227t115.5 174t162.5 107.5t186 38.5q262 0 430 -250v676h100v-1495h-100v233q-173 -258 -430 -258zM641 72q82 0 159 33t136 90.5t95 142.5t36 182v4q0 98 -36 183t-95 142.5t-136 90.5t-159 33
q-177 0 -293.5 -121.5t-116.5 -325.5v-4q0 -200 119.5 -325t290.5 -125zM1305 1190l34 305h125v-6l-100 -299h-59z" />
    <glyph glyph-name="Dcroat" unicode="&#x110;" horiz-adv-x="1662" 
d="M274 0v672h-153v98h153v664h478q166 0 308.5 -55t241.5 -150t155 -226.5t56 -281.5v-4q0 -150 -56 -282t-155 -228t-241.5 -151.5t-308.5 -55.5h-478zM381 98h371q146 0 269.5 48t206.5 131t129 195.5t46 240.5v4q0 126 -46 239t-129 197t-206.5 133t-269.5 49h-371v-565
h475v-98h-475v-574z" />
    <glyph glyph-name="dcroat" unicode="&#x111;" horiz-adv-x="1351" 
d="M682 1266v92h379v137h100v-137h144v-92h-144v-1266h-100v233q-173 -258 -430 -258q-95 0 -185.5 38t-162.5 105.5t-116 172t-44 227.5v4q0 122 44 227t115.5 174t162.5 107.5t186 38.5q262 0 430 -250v447h-379zM641 72q82 0 159 33t136 90.5t95 142.5t36 182v4
q0 98 -36 183t-95 142.5t-136 90.5t-159 33q-177 0 -293.5 -121.5t-116.5 -325.5v-4q0 -200 119.5 -325t290.5 -125z" />
    <glyph glyph-name="Emacron" unicode="&#x112;" horiz-adv-x="1372" 
d="M213 0v1434h1020v-99h-914v-563h822v-98h-822v-576h924v-98h-1030zM410 1620v100h634v-100h-634z" />
    <glyph glyph-name="emacron" unicode="&#x113;" horiz-adv-x="1196" 
d="M631 -25q-102 0 -195.5 39.5t-163.5 109.5t-111.5 173t-41.5 223v4q0 149 64 274t178 198t253 73q143 0 253.5 -72.5t168.5 -196.5t58 -278q0 -25 -2 -41h-867q12 -188 131 -299.5t279 -111.5q114 0 199 43t159 120l70 -61q-87 -95 -189.5 -146t-242.5 -51zM225 571h760
q-6 81 -32 152.5t-71 129t-115 91t-157 33.5q-155 0 -264 -116t-121 -290zM313 1272v96h602v-96h-602z" />
    <glyph glyph-name="Ebreve" unicode="&#x114;" horiz-adv-x="1372" 
d="M213 0v1434h1020v-99h-914v-563h822v-98h-822v-576h924v-98h-1030zM727 1563q-117 0 -191 53.5t-81 150.5h90q37 -106 182 -106t182 106h90q-7 -97 -81 -150.5t-191 -53.5z" />
    <glyph glyph-name="ebreve" unicode="&#x115;" horiz-adv-x="1196" 
d="M631 -25q-102 0 -195.5 39.5t-163.5 109.5t-111.5 173t-41.5 223v4q0 149 64 274t178 198t253 73q143 0 253.5 -72.5t168.5 -196.5t58 -278q0 -25 -2 -41h-867q12 -188 131 -299.5t279 -111.5q114 0 199 43t159 120l70 -61q-87 -95 -189.5 -146t-242.5 -51zM225 571h760
q-6 81 -32 152.5t-71 129t-115 91t-157 33.5q-155 0 -264 -116t-121 -290zM614 1214q-117 0 -191 61t-81 169h80q20 -60 68 -95.5t124 -35.5t124.5 35.5t68.5 95.5h80q-7 -107 -81.5 -168.5t-191.5 -61.5z" />
    <glyph glyph-name="Edotaccent" unicode="&#x116;" horiz-adv-x="1372" 
d="M213 0v1434h1020v-99h-914v-563h822v-98h-822v-576h924v-98h-1030zM649 1567v155h156v-155h-156z" />
    <glyph glyph-name="edotaccent" unicode="&#x117;" horiz-adv-x="1196" 
d="M631 -25q-102 0 -195.5 39.5t-163.5 109.5t-111.5 173t-41.5 223v4q0 149 64 274t178 198t253 73q143 0 253.5 -72.5t168.5 -196.5t58 -278q0 -25 -2 -41h-867q12 -188 131 -299.5t279 -111.5q114 0 199 43t159 120l70 -61q-87 -95 -189.5 -146t-242.5 -51zM225 571h760
q-6 81 -32 152.5t-71 129t-115 91t-157 33.5q-155 0 -264 -116t-121 -290zM541 1219v165h147v-165h-147z" />
    <glyph glyph-name="Eogonek" unicode="&#x118;" horiz-adv-x="1372" 
d="M213 0v1434h1020v-99h-914v-563h822v-98h-822v-576h924v-98h-43q-62 -49 -88.5 -85t-26.5 -77q0 -44 36 -68.5t120 -31.5v-74q-127 4 -192.5 46.5t-65.5 115.5q0 48 25.5 88.5t78.5 85.5h-874z" />
    <glyph glyph-name="eogonek" unicode="&#x119;" horiz-adv-x="1196" 
d="M225 571h760q-6 81 -32 152.5t-71 129t-115 91t-157 33.5q-155 0 -264 -116t-121 -290zM958 76q-92 -78 -125.5 -127.5t-33.5 -98.5q0 -53 34.5 -77t122.5 -35v-74q-258 9 -258 172q0 78 78 156q-80 -17 -145 -17q-102 0 -195.5 39.5t-163.5 109.5t-111.5 173t-41.5 223
v4q0 149 64 274t178 198t253 73q143 0 253.5 -72.5t168.5 -196.5t58 -278q0 -25 -2 -41h-867q12 -188 131 -299.5t279 -111.5q114 0 199 43t159 120l70 -61q-31 -35 -105 -96z" />
    <glyph glyph-name="Ecaron" unicode="&#x11a;" horiz-adv-x="1372" 
d="M213 0v1434h1020v-99h-914v-563h822v-98h-822v-576h924v-98h-1030zM985 1786l-211 -219h-94l-211 219h111l149 -125l150 125h106z" />
    <glyph glyph-name="ecaron" unicode="&#x11b;" horiz-adv-x="1196" 
d="M631 -25q-102 0 -195.5 39.5t-163.5 109.5t-111.5 173t-41.5 223v4q0 149 64 274t178 198t253 73q143 0 253.5 -72.5t168.5 -196.5t58 -278q0 -25 -2 -41h-867q12 -188 131 -299.5t279 -111.5q114 0 199 43t159 120l70 -61q-87 -95 -189.5 -146t-242.5 -51zM225 571h760
q-6 81 -32 152.5t-71 129t-115 91t-157 33.5q-155 0 -264 -116t-121 -290zM860 1468l-205 -249h-82l-204 249h96l151 -139l152 139h92z" />
    <glyph glyph-name="Gbreve" unicode="&#x11e;" horiz-adv-x="1605" 
d="M870 -25q-166 0 -303 58.5t-227.5 159.5t-140 235t-49.5 285v4q0 145 51 279t141.5 236.5t225 164t290.5 61.5q168 0 289.5 -46t234.5 -142l-69 -80q-95 83 -203 127.5t-258 44.5q-170 0 -307 -88t-211 -234t-74 -319v-4q0 -139 42.5 -257.5t120.5 -205t194 -135.5
t257 -49q129 0 251.5 46.5t205.5 116.5v412h-479v98h582v-553q-108 -95 -253 -155t-311 -60zM844 1583q-117 0 -191.5 54t-81.5 151h91q37 -107 182 -107t182 107h90q-7 -97 -81 -151t-191 -54z" />
    <glyph glyph-name="gbreve" unicode="&#x11f;" horiz-adv-x="1351" 
d="M649 -332q-263 0 -479 160l59 82q192 -148 422 -148q185 0 297.5 105.5t112.5 300.5v151q-172 -241 -436 -241q-95 0 -185 35.5t-160.5 97.5t-113.5 155.5t-43 202.5v4q0 110 43 204.5t113.5 157.5t160.5 98.5t185 35.5q269 0 436 -233v208h100v-882q0 -222 -133 -355
q-139 -139 -379 -139zM635 174q110 0 208.5 48.5t161 141t62.5 207.5v4q0 117 -62.5 209.5t-160.5 140.5t-209 48q-171 0 -287.5 -108.5t-116.5 -286.5v-5q0 -115 56 -207t148.5 -142t199.5 -50zM680 1214q-117 0 -191 61t-81 169h79q20 -60 68.5 -95.5t124.5 -35.5
t124 35.5t68 95.5h80q-7 -108 -81 -169t-191 -61z" />
    <glyph glyph-name="Gdotaccent" unicode="&#x120;" horiz-adv-x="1605" 
d="M870 -25q-166 0 -303 58.5t-227.5 159.5t-140 235t-49.5 285v4q0 145 51 279t141.5 236.5t225 164t290.5 61.5q168 0 289.5 -46t234.5 -142l-69 -80q-95 83 -203 127.5t-258 44.5q-170 0 -307 -88t-211 -234t-74 -319v-4q0 -139 42.5 -257.5t120.5 -205t194 -135.5
t257 -49q129 0 251.5 46.5t205.5 116.5v412h-479v98h582v-553q-108 -95 -253 -155t-311 -60zM766 1587v156h156v-156h-156z" />
    <glyph glyph-name="gdotaccent" unicode="&#x121;" horiz-adv-x="1351" 
d="M649 -332q-263 0 -479 160l59 82q192 -148 422 -148q185 0 297.5 105.5t112.5 300.5v151q-172 -241 -436 -241q-95 0 -185 35.5t-160.5 97.5t-113.5 155.5t-43 202.5v4q0 110 43 204.5t113.5 157.5t160.5 98.5t185 35.5q269 0 436 -233v208h100v-882q0 -222 -133 -355
q-139 -139 -379 -139zM635 174q110 0 208.5 48.5t161 141t62.5 207.5v4q0 117 -62.5 209.5t-160.5 140.5t-209 48q-171 0 -287.5 -108.5t-116.5 -286.5v-5q0 -115 56 -207t148.5 -142t199.5 -50zM606 1219v165h148v-165h-148z" />
    <glyph glyph-name="Gcommaaccent" unicode="&#x122;" horiz-adv-x="1605" 
d="M870 -25q-166 0 -303 58.5t-227.5 159.5t-140 235t-49.5 285v4q0 145 51 279t141.5 236.5t225 164t290.5 61.5q168 0 289.5 -46t234.5 -142l-69 -80q-95 83 -203 127.5t-258 44.5q-170 0 -307 -88t-211 -234t-74 -319v-4q0 -139 42.5 -257.5t120.5 -205t194 -135.5
t257 -49q129 0 251.5 46.5t205.5 116.5v412h-479v98h582v-553q-108 -95 -253 -155t-311 -60zM731 -461l-12 49q63 14 89.5 41t22.5 74h-63v145h147v-127q0 -155 -184 -182z" />
    <glyph glyph-name="gcommaaccent" unicode="&#x123;" horiz-adv-x="1351" 
d="M649 -332q-263 0 -479 160l59 82q192 -148 422 -148q185 0 297.5 105.5t112.5 300.5v151q-172 -241 -436 -241q-95 0 -185 35.5t-160.5 97.5t-113.5 155.5t-43 202.5v4q0 110 43 204.5t113.5 157.5t160.5 98.5t185 35.5q269 0 436 -233v208h100v-882q0 -222 -133 -355
q-139 -139 -379 -139zM635 174q110 0 208.5 48.5t161 141t62.5 207.5v4q0 117 -62.5 209.5t-160.5 140.5t-209 48q-171 0 -287.5 -108.5t-116.5 -286.5v-5q0 -115 56 -207t148.5 -142t199.5 -50zM791 1528l12 -49q-63 -14 -90 -41t-23 -74h64v-145h-148v127q0 155 185 182z
" />
    <glyph glyph-name="Hbar" unicode="&#x126;" horiz-adv-x="1679" 
d="M121 1042v93h153v299h107v-299h917v299h107v-299h154v-93h-154v-1042h-107v662h-917v-662h-107v1042h-153zM381 760h917v282h-917v-282z" />
    <glyph glyph-name="hbar" unicode="&#x127;" horiz-adv-x="1255" 
d="M670 1266h-379v-416q128 219 377 219q195 0 306 -118.5t111 -311.5v-639h-100v621q0 164 -87 260t-245 96q-155 0 -258.5 -105t-103.5 -268v-604h-101v1266h-143v92h143v137h101v-137h379v-92z" />
    <glyph glyph-name="Itilde" unicode="&#x128;" horiz-adv-x="561" 
d="M51 1569l-76 20q29 97 68 138.5t100 41.5q41 0 134 -38.5t124 -38.5q37 0 58.5 20t44.5 74l76 -21q-29 -97 -68 -137.5t-100 -40.5q-40 0 -133 39t-125 39q-36 0 -57.5 -20.5t-45.5 -75.5zM227 0v1434h107v-1434h-107z" />
    <glyph glyph-name="itilde" unicode="&#x129;" horiz-adv-x="509" 
d="M205 0v1044h100v-1044h-100zM20 1200l-69 19q28 107 68 148.5t104 41.5q39 0 133.5 -42t128.5 -42q37 0 58 21t44 81l70 -18q-28 -107 -68 -148.5t-104 -41.5q-39 0 -133.5 42t-128.5 42q-37 0 -58.5 -21.5t-44.5 -81.5z" />
    <glyph glyph-name="Imacron" unicode="&#x12a;" horiz-adv-x="561" 
d="M227 0v1434h107v-1434h-107zM-37 1620v100h635v-100h-635z" />
    <glyph glyph-name="imacron" unicode="&#x12b;" horiz-adv-x="509" 
d="M205 0v1044h100v-1044h-100zM-47 1272v96h602v-96h-602z" />
    <glyph glyph-name="Ibreve" unicode="&#x12c;" horiz-adv-x="561" 
d="M227 0v1434h107v-1434h-107zM281 1563q-118 0 -192 53.5t-81 150.5h90q37 -106 183 -106q145 0 182 106h90q-7 -97 -81 -150.5t-191 -53.5z" />
    <glyph glyph-name="ibreve" unicode="&#x12d;" horiz-adv-x="509" 
d="M205 0v1044h100v-1044h-100zM254 1214q-117 0 -191 61t-81 169h79q20 -60 68.5 -95.5t124.5 -35.5t124 35.5t68 95.5h80q-7 -108 -81 -169t-191 -61z" />
    <glyph glyph-name="Iogonek" unicode="&#x12e;" horiz-adv-x="561" 
d="M367 -262v-74q-127 4 -192.5 46.5t-65.5 115.5q0 52 28 94.5t90 91.5v1422h107v-1434h-8q-62 -49 -88.5 -85t-26.5 -77q0 -44 36 -68.5t120 -31.5z" />
    <glyph glyph-name="iogonek" unicode="&#x12f;" horiz-adv-x="509" 
d="M340 -262v-74q-127 4 -192.5 46.5t-65.5 115.5q0 52 30 96t93 94v1028h100v-1044h-6q-62 -49 -88.5 -85t-26.5 -77q0 -44 36 -68.5t120 -31.5zM193 1317v137h124v-137h-124z" />
    <glyph glyph-name="Idotaccent" unicode="&#x130;" horiz-adv-x="561" 
d="M227 0v1434h107v-1434h-107zM203 1567v155h155v-155h-155z" />
    <glyph glyph-name="dotlessi" unicode="&#x131;" horiz-adv-x="509" 
d="M205 0v1044h100v-1044h-100z" />
    <glyph glyph-name="Kcommaaccent" unicode="&#x136;" horiz-adv-x="1464" 
d="M213 0v1434h106v-942l914 942h145l-626 -633l653 -801h-139l-590 725l-357 -360v-365h-106zM629 -451l-13 50q64 14 90.5 40.5t22.5 73.5h-63v146h147v-127q0 -156 -184 -183z" />
    <glyph glyph-name="kcommaaccent" unicode="&#x137;" horiz-adv-x="1146" 
d="M190 0v1495h101v-1120l647 669h133l-457 -462l471 -582h-127l-413 510l-254 -256v-254h-101zM496 -461l-13 49q63 14 90 41t23 74h-64v145h148v-127q0 -155 -184 -182z" />
    <glyph glyph-name="Lacute" unicode="&#x139;" horiz-adv-x="1267" 
d="M213 0v1434h106v-1336h842v-98h-948zM240 1567l190 241l121 -57l-219 -184h-92z" />
    <glyph glyph-name="lacute" unicode="&#x13a;" horiz-adv-x="509" 
d="M205 0v1495h100v-1495h-100zM211 1614l190 241l121 -57l-219 -184h-92z" />
    <glyph glyph-name="Lcommaaccent" unicode="&#x13b;" horiz-adv-x="1267" 
d="M213 0v1434h106v-1336h842v-98h-948zM565 -461l-12 49q63 14 90 41t23 74h-64v145h148v-127q0 -155 -185 -182z" />
    <glyph glyph-name="lcommaaccent" unicode="&#x13c;" horiz-adv-x="509" 
d="M205 0v1495h100v-1495h-100zM141 -461l-12 49q63 14 90 41t23 74h-64v145h148v-127q0 -155 -185 -182z" />
    <glyph glyph-name="Lcaron" unicode="&#x13d;" horiz-adv-x="1267" 
d="M213 0v1434h106v-1336h842v-98h-948zM526 1128l35 306h125v-7l-100 -299h-60z" />
    <glyph glyph-name="lcaron" unicode="&#x13e;" horiz-adv-x="509" 
d="M205 0v1495h100v-1495h-100zM449 1190l34 305h125v-6l-100 -299h-59z" />
    <glyph glyph-name="Ldot" unicode="&#x13f;" horiz-adv-x="1267" 
d="M862 659v166h148v-166h-148zM213 0v1434h106v-1336h842v-98h-948z" />
    <glyph glyph-name="ldot" unicode="&#x140;" horiz-adv-x="632" 
d="M500 666v165h147v-165h-147zM205 0v1495h100v-1495h-100z" />
    <glyph glyph-name="Lslash" unicode="&#x141;" horiz-adv-x="1329" 
d="M766 840l-387 -185v-557h844v-98h-949v604l-153 -72v109l153 72v721h105v-670l387 184v-108z" />
    <glyph glyph-name="lslash" unicode="&#x142;" horiz-adv-x="632" 
d="M522 813l-155 -88v-725h-101v670l-155 -86v108l155 86v717h101v-661l155 88v-109z" />
    <glyph glyph-name="Nacute" unicode="&#x143;" horiz-adv-x="1617" 
d="M213 0v1434h100l990 -1248v1248h102v-1434h-80l-1010 1274v-1274h-102zM766 1556l190 242l121 -57l-219 -185h-92z" />
    <glyph glyph-name="nacute" unicode="&#x144;" horiz-adv-x="1255" 
d="M190 0v1044h101v-194q128 219 377 219q195 0 306 -118.5t111 -311.5v-639h-100v621q0 164 -87 260t-245 96q-155 0 -258.5 -105t-103.5 -268v-604h-101zM594 1219l180 272l125 -61l-219 -211h-86z" />
    <glyph glyph-name="Ncommaaccent" unicode="&#x145;" horiz-adv-x="1617" 
d="M213 0v1434h100l990 -1248v1248h102v-1434h-80l-1010 1274v-1274h-102zM696 -451l-12 50q64 14 90.5 40.5t22.5 73.5h-64v146h148v-127q0 -156 -185 -183z" />
    <glyph glyph-name="ncommaaccent" unicode="&#x146;" horiz-adv-x="1255" 
d="M190 0v1044h101v-194q128 219 377 219q195 0 306 -118.5t111 -311.5v-639h-100v621q0 164 -87 260t-245 96q-155 0 -258.5 -105t-103.5 -268v-604h-101zM524 -461l-12 49q63 14 90 41t23 74h-64v145h148v-127q0 -155 -185 -182z" />
    <glyph glyph-name="Ncaron" unicode="&#x147;" horiz-adv-x="1617" 
d="M213 0v1434h100l990 -1248v1248h102v-1434h-80l-1010 1274v-1274h-102zM1067 1776l-211 -220h-94l-211 220h111l149 -125l150 125h106z" />
    <glyph glyph-name="ncaron" unicode="&#x148;" horiz-adv-x="1255" 
d="M190 0v1044h101v-194q128 219 377 219q195 0 306 -118.5t111 -311.5v-639h-100v621q0 164 -87 260t-245 96q-155 0 -258.5 -105t-103.5 -268v-604h-101zM883 1468l-205 -249h-82l-205 249h96l152 -139l152 139h92z" />
    <glyph glyph-name="Omacron" unicode="&#x14c;" horiz-adv-x="1740" 
d="M868 -25q-158 0 -294.5 60.5t-228 162t-143.5 235.5t-52 280v4q0 147 52.5 281.5t145 236.5t229.5 162.5t295 60.5q127 0 241 -39t200 -108t149.5 -161.5t96 -202t32.5 -226.5v-4q0 -147 -52.5 -281.5t-145.5 -236.5t-230 -163t-295 -61zM872 72q130 0 244 50.5
t193.5 137t125.5 204.5t46 249v4q0 131 -46.5 250t-127 205.5t-195 138t-244.5 51.5q-173 0 -313 -86t-217.5 -232.5t-77.5 -322.5v-4q0 -176 78.5 -323.5t219.5 -234.5t314 -87zM553 1640v101h635v-101h-635z" />
    <glyph glyph-name="omacron" unicode="&#x14d;" horiz-adv-x="1310" 
d="M653 -25q-113 0 -213 44t-170 117.5t-110.5 173t-40.5 208.5v4q0 109 41 209t111 174.5t171 119t215 44.5q151 0 274.5 -74.5t192 -198.5t68.5 -270v-4q0 -146 -69 -271t-193.5 -200.5t-276.5 -75.5zM657 70q121 0 219.5 60.5t152.5 163t54 224.5v4q0 191 -124.5 322
t-305.5 131q-183 0 -304.5 -131t-121.5 -318v-4q0 -191 124.5 -321.5t305.5 -130.5zM354 1272v96h602v-96h-602z" />
    <glyph glyph-name="Obreve" unicode="&#x14e;" horiz-adv-x="1740" 
d="M868 -25q-158 0 -294.5 60.5t-228 162t-143.5 235.5t-52 280v4q0 147 52.5 281.5t145 236.5t229.5 162.5t295 60.5q127 0 241 -39t200 -108t149.5 -161.5t96 -202t32.5 -226.5v-4q0 -147 -52.5 -281.5t-145.5 -236.5t-230 -163t-295 -61zM872 72q130 0 244 50.5
t193.5 137t125.5 204.5t46 249v4q0 131 -46.5 250t-127 205.5t-195 138t-244.5 51.5q-173 0 -313 -86t-217.5 -232.5t-77.5 -322.5v-4q0 -176 78.5 -323.5t219.5 -234.5t314 -87zM870 1583q-117 0 -191 54t-81 151h90q37 -107 182 -107q146 0 183 107h90q-7 -97 -81.5 -151
t-191.5 -54z" />
    <glyph glyph-name="obreve" unicode="&#x14f;" horiz-adv-x="1310" 
d="M653 -25q-113 0 -213 44t-170 117.5t-110.5 173t-40.5 208.5v4q0 109 41 209t111 174.5t171 119t215 44.5q151 0 274.5 -74.5t192 -198.5t68.5 -270v-4q0 -146 -69 -271t-193.5 -200.5t-276.5 -75.5zM657 70q121 0 219.5 60.5t152.5 163t54 224.5v4q0 191 -124.5 322
t-305.5 131q-183 0 -304.5 -131t-121.5 -318v-4q0 -191 124.5 -321.5t305.5 -130.5zM655 1214q-117 0 -191 61t-81 169h80q20 -60 68 -95.5t124 -35.5t124.5 35.5t68.5 95.5h80q-7 -107 -81.5 -168.5t-191.5 -61.5z" />
    <glyph glyph-name="Ohungarumlaut" unicode="&#x150;" horiz-adv-x="1740" 
d="M868 -25q-158 0 -294.5 60.5t-228 162t-143.5 235.5t-52 280v4q0 147 52.5 281.5t145 236.5t229.5 162.5t295 60.5q127 0 241 -39t200 -108t149.5 -161.5t96 -202t32.5 -226.5v-4q0 -147 -52.5 -281.5t-145.5 -236.5t-230 -163t-295 -61zM872 72q130 0 244 50.5
t193.5 137t125.5 204.5t46 249v4q0 131 -46.5 250t-127 205.5t-195 138t-244.5 51.5q-173 0 -313 -86t-217.5 -232.5t-77.5 -322.5v-4q0 -176 78.5 -323.5t219.5 -234.5t314 -87zM664 1587l190 242l121 -57l-219 -185h-92zM950 1587l191 242l121 -57l-220 -185h-92z" />
    <glyph glyph-name="ohungarumlaut" unicode="&#x151;" horiz-adv-x="1310" 
d="M653 -25q-113 0 -213 44t-170 117.5t-110.5 173t-40.5 208.5v4q0 109 41 209t111 174.5t171 119t215 44.5q151 0 274.5 -74.5t192 -198.5t68.5 -270v-4q0 -146 -69 -271t-193.5 -200.5t-276.5 -75.5zM657 70q121 0 219.5 60.5t152.5 163t54 224.5v4q0 191 -124.5 322
t-305.5 131q-183 0 -304.5 -131t-121.5 -318v-4q0 -191 124.5 -321.5t305.5 -130.5zM735 1219l183 272l112 -59l-207 -213h-88zM457 1219l182 272l113 -59l-207 -213h-88z" />
    <glyph glyph-name="OE" unicode="&#x152;" horiz-adv-x="2359" 
d="M2230 0h-1319q-166 0 -308.5 55t-241.5 150t-155 226.5t-56 281.5v4q0 150 56 282t155 228t241.5 151.5t308.5 55.5h1309v-99h-883v-563h791v-98h-791v-576h893v-98zM911 98h320v1237h-320q-146 0 -269.5 -48t-206.5 -131t-129 -195t-46 -240v-4q0 -126 46 -239
t129 -197.5t206.5 -133.5t269.5 -49z" />
    <glyph glyph-name="oe" unicode="&#x153;" horiz-adv-x="2160" 
d="M651 -25q-149 0 -272 74.5t-191.5 199t-68.5 269.5v4q0 145 69.5 270.5t193.5 201t273 75.5q162 0 289 -88t191 -231q58 145 176.5 232t269.5 87q213 0 345 -155.5t132 -391.5q0 -25 -2 -41h-866q12 -188 130.5 -299.5t278.5 -111.5q114 0 199.5 43t159.5 120l70 -61
q-88 -95 -189.5 -146t-239.5 -51q-154 0 -278 86.5t-186 235.5q-64 -144 -192 -233t-292 -89zM1190 571h760q-6 81 -32 152.5t-71 129t-115 91t-157 33.5q-155 0 -264 -116t-121 -290zM657 70q121 0 219.5 60.5t152.5 163t54 224.5v4q0 191 -124.5 322t-305.5 131
q-183 0 -304.5 -131t-121.5 -318v-4q0 -191 124.5 -321.5t305.5 -130.5z" />
    <glyph glyph-name="Racute" unicode="&#x154;" horiz-adv-x="1480" 
d="M213 0v1434h602q262 0 404 -142q108 -108 108 -266v-4q0 -173 -115.5 -278.5t-304.5 -131.5l473 -612h-135l-457 594h-469v-594h-106zM319 690h484q184 0 301 88.5t117 239.5v4q0 147 -108 230t-304 83h-490v-645zM676 1567l190 241l121 -57l-219 -184h-92z" />
    <glyph glyph-name="racute" unicode="&#x155;" horiz-adv-x="819" 
d="M190 0v1044h101v-296q65 145 187.5 231t275.5 82v-111h-11q-91 0 -172 -34.5t-144 -99t-99.5 -165t-36.5 -223.5v-428h-101zM389 1219l180 272l125 -61l-219 -211h-86z" />
    <glyph glyph-name="Rcommaaccent" unicode="&#x156;" horiz-adv-x="1480" 
d="M213 0v1434h602q262 0 404 -142q108 -108 108 -266v-4q0 -173 -115.5 -278.5t-304.5 -131.5l473 -612h-135l-457 594h-469v-594h-106zM319 690h484q184 0 301 88.5t117 239.5v4q0 147 -108 230t-304 83h-490v-645zM606 -451l-12 50q64 14 90.5 40.5t22.5 73.5h-64v146
h148v-127q0 -156 -185 -183z" />
    <glyph glyph-name="rcommaaccent" unicode="&#x157;" horiz-adv-x="819" 
d="M190 0v1044h101v-296q65 145 187.5 231t275.5 82v-111h-11q-91 0 -172 -34.5t-144 -99t-99.5 -165t-36.5 -223.5v-428h-101zM145 -461l-12 49q63 14 90 41t23 74h-64v145h148v-127q0 -155 -185 -182z" />
    <glyph glyph-name="Rcaron" unicode="&#x158;" horiz-adv-x="1480" 
d="M213 0v1434h602q262 0 404 -142q108 -108 108 -266v-4q0 -173 -115.5 -278.5t-304.5 -131.5l473 -612h-135l-457 594h-469v-594h-106zM319 690h484q184 0 301 88.5t117 239.5v4q0 147 -108 230t-304 83h-490v-645zM977 1786l-211 -219h-94l-211 219h110l150 -125l149 125
h107z" />
    <glyph glyph-name="rcaron" unicode="&#x159;" horiz-adv-x="819" 
d="M190 0v1044h101v-296q65 145 187.5 231t275.5 82v-111h-11q-91 0 -172 -34.5t-144 -99t-99.5 -165t-36.5 -223.5v-428h-101zM678 1468l-205 -249h-82l-205 249h97l151 -139l152 139h92z" />
    <glyph glyph-name="Sacute" unicode="&#x15a;" horiz-adv-x="1310" 
d="M698 -20q-169 0 -307.5 56t-269.5 173l69 80q121 -112 240 -162.5t275 -50.5q160 0 261 80t101 204v5q0 80 -32.5 133t-122 96t-250.5 76q-260 54 -372 146.5t-112 256.5v4q0 161 131 269t330 108q151 0 265 -41.5t226 -132.5l-67 -84q-101 86 -204 124t-224 38
q-156 0 -253 -79t-97 -192v-4q0 -61 17.5 -104.5t63.5 -82.5t127.5 -69t208.5 -57q250 -51 361 -144t111 -251v-4q0 -172 -134 -281.5t-342 -109.5zM629 1587l190 242l121 -57l-219 -185h-92z" />
    <glyph glyph-name="sacute" unicode="&#x15b;" horiz-adv-x="1017" 
d="M528 -20q-113 0 -227.5 41t-200.5 110l60 80q179 -137 375 -137q108 0 179.5 54t71.5 144v4q0 30 -9.5 55t-30.5 44.5t-42.5 34.5t-58 29.5t-64 23.5t-71.5 22q-159 45 -221 79q-137 73 -137 208v4q0 126 96 207.5t248 81.5q94 0 193 -30.5t177 -84.5l-53 -84
q-160 105 -321 105q-107 0 -172.5 -52t-65.5 -131v-4q0 -17 3.5 -32.5t13 -29.5t17.5 -24.5t26 -22t28.5 -19t36 -18t37 -15t42.5 -14.5t42 -13.5t45 -13.5q51 -15 84.5 -26.5t78 -30t73 -39.5t55.5 -49.5t40 -65.5t13 -82v-4q0 -137 -103 -221t-258 -84zM473 1219l180 272
l125 -61l-219 -211h-86z" />
    <glyph glyph-name="Scedilla" unicode="&#x15e;" horiz-adv-x="1310" 
d="M590 -303l-113 53l158 232q-149 10 -272 65.5t-242 161.5l69 80q121 -112 240 -162.5t275 -50.5q160 0 261 80t101 204v5q0 80 -32.5 133t-122 96t-250.5 76q-260 54 -372 146.5t-112 256.5v4q0 161 131 269t330 108q151 0 265 -41.5t226 -132.5l-67 -84
q-101 86 -204 124t-224 38q-156 0 -253 -79t-97 -192v-4q0 -61 17.5 -104.5t63.5 -82.5t127.5 -69t208.5 -57q250 -51 361 -144t111 -251v-4q0 -165 -124.5 -273t-320.5 -116z" />
    <glyph glyph-name="scedilla" unicode="&#x15f;" horiz-adv-x="1017" 
d="M408 -303l-113 53l160 234q-98 12 -192 51t-163 96l60 80q179 -137 375 -137q108 0 179.5 54t71.5 144v4q0 30 -9.5 55t-30.5 44.5t-42.5 34.5t-58 29.5t-64 23.5t-71.5 22q-159 45 -221 79q-137 73 -137 208v4q0 126 96 207.5t248 81.5q94 0 193 -30.5t177 -84.5
l-53 -84q-160 105 -321 105q-107 0 -172.5 -52t-65.5 -131v-4q0 -17 3.5 -32.5t13 -29.5t17.5 -24.5t26 -22t28.5 -19t36 -18t37 -15t42.5 -14.5t42 -13.5t45 -13.5q51 -15 84.5 -26.5t78 -30t73 -39.5t55.5 -49.5t40 -65.5t13 -82v-4q0 -131 -98 -215.5t-244 -89.5z" />
    <glyph glyph-name="Scaron" unicode="&#x160;" horiz-adv-x="1310" 
d="M698 -20q-169 0 -307.5 56t-269.5 173l69 80q121 -112 240 -162.5t275 -50.5q160 0 261 80t101 204v5q0 80 -32.5 133t-122 96t-250.5 76q-260 54 -372 146.5t-112 256.5v4q0 161 131 269t330 108q151 0 265 -41.5t226 -132.5l-67 -84q-101 86 -204 124t-224 38
q-156 0 -253 -79t-97 -192v-4q0 -61 17.5 -104.5t63.5 -82.5t127.5 -69t208.5 -57q250 -51 361 -144t111 -251v-4q0 -172 -134 -281.5t-342 -109.5zM930 1806l-211 -219h-94l-211 219h110l150 -125l149 125h107z" />
    <glyph glyph-name="scaron" unicode="&#x161;" horiz-adv-x="1017" 
d="M528 -20q-113 0 -227.5 41t-200.5 110l60 80q179 -137 375 -137q108 0 179.5 54t71.5 144v4q0 30 -9.5 55t-30.5 44.5t-42.5 34.5t-58 29.5t-64 23.5t-71.5 22q-159 45 -221 79q-137 73 -137 208v4q0 126 96 207.5t248 81.5q94 0 193 -30.5t177 -84.5l-53 -84
q-160 105 -321 105q-107 0 -172.5 -52t-65.5 -131v-4q0 -17 3.5 -32.5t13 -29.5t17.5 -24.5t26 -22t28.5 -19t36 -18t37 -15t42.5 -14.5t42 -13.5t45 -13.5q51 -15 84.5 -26.5t78 -30t73 -39.5t55.5 -49.5t40 -65.5t13 -82v-4q0 -137 -103 -221t-258 -84zM762 1468
l-205 -249h-82l-205 249h97l151 -139l152 139h92z" />
    <glyph glyph-name="Tcommaaccent" unicode="&#x162;" horiz-adv-x="1327" 
d="M610 0v1335h-499v99h1106v-99h-500v-1335h-107zM551 -461l-12 49q63 14 89.5 41t22.5 74h-63v145h147v-127q0 -155 -184 -182z" />
    <glyph glyph-name="tcommaaccent" unicode="&#x163;" horiz-adv-x="819" 
d="M539 -18q-131 0 -212 72t-81 214v684h-152v92h152v334h100v-334h367v-92h-367v-673q0 -203 209 -203q73 0 154 37v-95q-79 -36 -170 -36zM350 -461l-12 49q63 14 90 41t23 74h-64v145h148v-127q0 -155 -185 -182z" />
    <glyph glyph-name="Tcaron" unicode="&#x164;" horiz-adv-x="1327" 
d="M610 0v1335h-499v99h1106v-99h-500v-1335h-107zM922 1786l-211 -219h-95l-210 219h110l150 -125l149 125h107z" />
    <glyph glyph-name="tcaron" unicode="&#x165;" horiz-adv-x="819" 
d="M539 -18q-131 0 -212 72t-81 214v684h-152v92h152v334h100v-334h367v-92h-367v-673q0 -203 209 -203q73 0 154 37v-95q-79 -36 -170 -36zM590 1192l35 305h125v-6l-101 -299h-59z" />
    <glyph glyph-name="Utilde" unicode="&#x168;" horiz-adv-x="1556" 
d="M557 1569l-76 20q29 97 68 138.5t100 41.5q41 0 134 -38.5t124 -38.5q37 0 58.5 20t44.5 74l75 -21q-29 -97 -67.5 -137.5t-99.5 -40.5q-40 0 -134 39t-125 39q-36 0 -57 -20.5t-45 -75.5zM778 -23q-129 0 -237 41t-186 118t-121.5 194.5t-43.5 265.5v838h107v-828
q0 -255 127.5 -393.5t357.5 -138.5q222 0 350 134t128 388v838h106v-826q0 -301 -160.5 -466t-427.5 -165z" />
    <glyph glyph-name="utilde" unicode="&#x169;" horiz-adv-x="1255" 
d="M588 -25q-195 0 -306.5 119t-111.5 312v638h100v-620q0 -164 87 -260t245 -96q155 0 259 104.5t104 267.5v604h100v-1044h-100v195q-129 -220 -377 -220zM393 1200l-69 19q28 107 68 148.5t104 41.5q39 0 133.5 -42t128.5 -42q37 0 58 21t44 81l70 -18
q-28 -107 -68 -148.5t-104 -41.5q-39 0 -133.5 42t-128.5 42q-37 0 -58.5 -21.5t-44.5 -81.5z" />
    <glyph glyph-name="Umacron" unicode="&#x16a;" horiz-adv-x="1556" 
d="M778 -23q-129 0 -237 41t-186 118t-121.5 194.5t-43.5 265.5v838h107v-828q0 -255 127.5 -393.5t357.5 -138.5q222 0 350 134t128 388v838h106v-826q0 -301 -160.5 -466t-427.5 -165zM461 1610v100h635v-100h-635z" />
    <glyph glyph-name="umacron" unicode="&#x16b;" horiz-adv-x="1255" 
d="M588 -25q-195 0 -306.5 119t-111.5 312v638h100v-620q0 -164 87 -260t245 -96q155 0 259 104.5t104 267.5v604h100v-1044h-100v195q-129 -220 -377 -220zM315 1272v96h603v-96h-603z" />
    <glyph glyph-name="Ubreve" unicode="&#x16c;" horiz-adv-x="1556" 
d="M778 -23q-129 0 -237 41t-186 118t-121.5 194.5t-43.5 265.5v838h107v-828q0 -255 127.5 -393.5t357.5 -138.5q222 0 350 134t128 388v838h106v-826q0 -301 -160.5 -466t-427.5 -165zM778 1552q-117 0 -191 54t-81 151h90q37 -106 182 -106q146 0 183 106h90
q-7 -97 -81.5 -151t-191.5 -54z" />
    <glyph glyph-name="ubreve" unicode="&#x16d;" horiz-adv-x="1255" 
d="M588 -25q-195 0 -306.5 119t-111.5 312v638h100v-620q0 -164 87 -260t245 -96q155 0 259 104.5t104 267.5v604h100v-1044h-100v195q-129 -220 -377 -220zM616 1214q-117 0 -191 61t-81 169h80q20 -60 68 -95.5t124 -35.5t124.5 35.5t68.5 95.5h80q-7 -107 -81.5 -168.5
t-191.5 -61.5z" />
    <glyph glyph-name="Uring" unicode="&#x16e;" horiz-adv-x="1556" 
d="M778 -23q-129 0 -237 41t-186 118t-121.5 194.5t-43.5 265.5v838h107v-828q0 -255 127.5 -393.5t357.5 -138.5q222 0 350 134t128 388v838h106v-826q0 -301 -160.5 -466t-427.5 -165zM561 1726q0 84 62.5 139.5t154.5 55.5t154.5 -55.5t62.5 -139.5t-62.5 -139
t-154.5 -55t-154.5 55t-62.5 139zM639 1726q0 -56 39.5 -92.5t99.5 -36.5t100 37t40 92t-40 92t-100 37t-99.5 -36.5t-39.5 -92.5z" />
    <glyph glyph-name="uring" unicode="&#x16f;" horiz-adv-x="1255" 
d="M588 -25q-195 0 -306.5 119t-111.5 312v638h100v-620q0 -164 87 -260t245 -96q155 0 259 104.5t104 267.5v604h100v-1044h-100v195q-129 -220 -377 -220zM403 1399q0 85 62.5 145t150.5 60t150.5 -60t62.5 -145t-62.5 -145t-150.5 -60t-150.5 60t-62.5 145zM473 1399
q0 -60 41.5 -102t101.5 -42t102 42t42 102t-42 101.5t-102 41.5t-101.5 -41.5t-41.5 -101.5z" />
    <glyph glyph-name="Uhungarumlaut" unicode="&#x170;" horiz-adv-x="1556" 
d="M778 -23q-129 0 -237 41t-186 118t-121.5 194.5t-43.5 265.5v838h107v-828q0 -255 127.5 -393.5t357.5 -138.5q222 0 350 134t128 388v838h106v-826q0 -301 -160.5 -466t-427.5 -165zM571 1556l191 242l121 -57l-219 -185h-93zM858 1556l191 242l120 -57l-219 -185h-92z
" />
    <glyph glyph-name="uhungarumlaut" unicode="&#x171;" horiz-adv-x="1255" 
d="M588 -25q-195 0 -306.5 119t-111.5 312v638h100v-620q0 -164 87 -260t245 -96q155 0 259 104.5t104 267.5v604h100v-1044h-100v195q-129 -220 -377 -220zM696 1219l183 272l112 -59l-207 -213h-88zM418 1219l182 272l113 -59l-207 -213h-88z" />
    <glyph glyph-name="Uogonek" unicode="&#x172;" horiz-adv-x="1556" 
d="M895 -262v-74q-127 4 -192.5 46.5t-65.5 115.5q0 80 82 156q-240 18 -384.5 178t-144.5 436v838h107v-828q0 -255 127.5 -393.5t357.5 -138.5q222 0 350 134t128 388v838h106v-826q0 -287 -145 -448.5t-392 -179.5q-49 -43 -69.5 -74t-20.5 -68q0 -44 36 -68.5t120 -31.5
z" />
    <glyph glyph-name="uogonek" unicode="&#x173;" horiz-adv-x="1255" 
d="M1098 -262v-74q-127 4 -192.5 46.5t-65.5 115.5q0 52 30.5 96.5t94.5 93.5v179q-129 -220 -377 -220q-195 0 -306.5 119t-111.5 312v638h100v-620q0 -164 87 -260t245 -96q155 0 259 104.5t104 267.5v604h100v-1044h-8q-62 -49 -88.5 -85t-26.5 -77q0 -44 36 -68.5
t120 -31.5z" />
    <glyph glyph-name="Wcircumflex" unicode="&#x174;" horiz-adv-x="2256" 
d="M623 -10l-521 1444h119l451 -1276l420 1280h82l419 -1280l451 1276h110l-520 -1444h-86l-420 1245l-419 -1245h-86zM870 1567l211 219h95l210 -219h-110l-150 125l-149 -125h-107z" />
    <glyph glyph-name="wcircumflex" unicode="&#x175;" horiz-adv-x="1763" 
d="M483 -8l-383 1052h113l315 -917l316 922h80l315 -922l315 917h109l-383 -1052h-86l-311 895l-314 -895h-86zM635 1219l205 249h82l204 -249h-96l-151 139l-152 -139h-92z" />
    <glyph glyph-name="Ycircumflex" unicode="&#x176;" horiz-adv-x="1466" 
d="M680 0v567l-614 867h133l536 -770l539 770h127l-615 -865v-569h-106zM475 1556l211 220h94l211 -220h-110l-150 125l-149 -125h-107z" />
    <glyph glyph-name="ycircumflex" unicode="&#x177;" horiz-adv-x="1204" 
d="M317 -334q-101 0 -206 45l34 88q79 -39 179 -39q84 0 142 55t116 191l-502 1038h117l434 -933l377 933h110l-452 -1081q-67 -160 -150 -228.5t-199 -68.5zM365 1219l204 249h82l205 -249h-96l-152 139l-151 -139h-92z" />
    <glyph glyph-name="Ydieresis" unicode="&#x178;" horiz-adv-x="1466" 
d="M680 0v567l-614 867h133l536 -770l539 770h127l-615 -865v-569h-106zM840 1556v156h149v-156h-149zM479 1556v156h152v-156h-152z" />
    <glyph glyph-name="Zacute" unicode="&#x179;" horiz-adv-x="1409" 
d="M139 0v59l981 1278h-946v97h1098v-60l-981 -1278h981v-96h-1133zM680 1567l190 241l121 -57l-219 -184h-92z" />
    <glyph glyph-name="zacute" unicode="&#x17a;" horiz-adv-x="1134" 
d="M119 0v57l753 897h-725v90h875v-57l-754 -897h754v-90h-903zM535 1219l180 272l125 -61l-219 -211h-86z" />
    <glyph glyph-name="Zdotaccent" unicode="&#x17b;" horiz-adv-x="1409" 
d="M139 0v59l981 1278h-946v97h1098v-60l-981 -1278h981v-96h-1133zM645 1567v155h156v-155h-156z" />
    <glyph glyph-name="zdotaccent" unicode="&#x17c;" horiz-adv-x="1134" 
d="M119 0v57l753 897h-725v90h875v-57l-754 -897h754v-90h-903zM504 1219v165h147v-165h-147z" />
    <glyph glyph-name="Zcaron" unicode="&#x17d;" horiz-adv-x="1409" 
d="M139 0v59l981 1278h-946v97h1098v-60l-981 -1278h981v-96h-1133zM981 1786l-211 -219h-94l-211 219h110l150 -125l149 125h107z" />
    <glyph glyph-name="zcaron" unicode="&#x17e;" horiz-adv-x="1134" 
d="M119 0v57l753 897h-725v90h875v-57l-754 -897h754v-90h-903zM823 1468l-205 -249h-81l-205 249h96l152 -139l151 139h92z" />
    <glyph glyph-name="florin" unicode="&#x192;" horiz-adv-x="1036" 
d="M184 -10q-64 0 -100 8v90q36 -8 94 -8q138 0 168 168l100 538h-223v93h240l53 278q29 152 99 219.5t194 67.5q80 0 154 -21v-90q-74 21 -144 21q-86 0 -130 -46t-64 -157l-52 -272h318v-93h-334l-102 -544q-25 -130 -90 -191t-181 -61z" />
    <glyph glyph-name="Ohorn" unicode="&#x1a0;" horiz-adv-x="1740" 
d="M868 -25q-158 0 -294.5 60.5t-228 162t-143.5 235.5t-52 280v4q0 147 52.5 281.5t145 236.5t229.5 162.5t295 60.5q216 0 396 -115q74 6 106.5 30t32.5 77q0 54 -25 109q-3 6 -11 20t-11 23h125q31 -78 31 -160q0 -139 -146 -180q105 -105 163 -246t58 -295v-4
q0 -147 -52.5 -281.5t-145.5 -236.5t-230 -163t-295 -61zM872 72q130 0 244 50.5t193.5 137t125.5 204.5t46 249v4q0 131 -46.5 250t-127 205.5t-195 138t-244.5 51.5q-173 0 -313 -86t-217.5 -232.5t-77.5 -322.5v-4q0 -176 78.5 -323.5t219.5 -234.5t314 -87z" />
    <glyph glyph-name="ohorn" unicode="&#x1a1;" horiz-adv-x="1310" 
d="M653 -25q-113 0 -213 44t-170 117.5t-110.5 173t-40.5 208.5v4q0 109 41 209t111 174.5t171 119t215 44.5q163 0 299 -92q68 8 99.5 31t31.5 71q0 59 -24 105q-2 6 -10 20t-11 23h121q29 -79 29 -154q0 -136 -143 -176q143 -156 143 -371v-4q0 -146 -69 -271
t-193.5 -200.5t-276.5 -75.5zM657 70q121 0 219.5 60.5t152.5 163t54 224.5v4q0 109 -43 202t-122 157q-118 94 -265 94q-183 0 -304.5 -131t-121.5 -318v-4q0 -191 124.5 -321.5t305.5 -130.5z" />
    <glyph glyph-name="Uhorn" unicode="&#x1af;" horiz-adv-x="1654" 
d="M778 -23q-129 0 -237 41t-186 118t-121.5 194.5t-43.5 265.5v838h107v-828q0 -255 127.5 -393.5t357.5 -138.5q222 0 350 134t128 388v838h100q82 21 82 96q0 53 -25 108q-3 6 -11 20t-11 23h125q30 -76 30 -159q0 -81 -45 -126.5t-139 -62.5v-725q0 -301 -160.5 -466
t-427.5 -165z" />
    <glyph glyph-name="uhorn" unicode="&#x1b0;" horiz-adv-x="1312" 
d="M588 -25q-195 0 -306.5 119t-111.5 312v638h100v-620q0 -164 87 -260t245 -96q155 0 259 104.5t104 267.5v604h86q96 18 96 97q0 56 -25 104q-2 5 -9.5 19.5t-10.5 23.5h121q28 -77 28 -153q0 -79 -45.5 -123.5t-140.5 -61.5v-950h-100v195q-129 -220 -377 -220z" />
    <glyph glyph-name="Aringacute" unicode="&#x1fa;" horiz-adv-x="1617" 
d="M592 1542q0 84 62.5 139.5t154.5 55.5t154.5 -55.5t62.5 -139.5q0 -60 -35 -107t-94 -71l631 -1364h-117l-182 401h-846l-182 -401h-111l629 1364q-58 24 -92.5 71t-34.5 107zM428 498h756l-377 829zM670 1542q0 -56 39.5 -92.5t99.5 -36.5t99.5 36.5t39.5 92.5
t-39.5 92.5t-99.5 36.5t-99.5 -36.5t-39.5 -92.5zM760 1798l190 221l117 -57l-215 -164h-92z" />
    <glyph glyph-name="aringacute" unicode="&#x1fb;" horiz-adv-x="1175" 
d="M543 1679l182 242l121 -61l-213 -181h-90zM508 -25q-75 0 -145.5 21t-129 60.5t-94 103.5t-35.5 143v4q0 161 125 250.5t332 89.5q179 0 346 -45v45q0 157 -90 238.5t-254 81.5q-162 0 -327 -84l-37 88q188 90 370 90q215 0 330 -115q107 -107 107 -295v-651h-99v174
q-63 -86 -162.5 -142.5t-236.5 -56.5zM514 70q163 0 279 90.5t116 230.5v119q-180 47 -354 47q-163 0 -253.5 -66t-90.5 -178v-4q0 -110 88.5 -174.5t214.5 -64.5zM375 1419q0 85 62.5 145t150.5 60t150.5 -60t62.5 -145t-62.5 -145t-150.5 -60t-150.5 60t-62.5 145z
M444 1419q0 -60 42 -101.5t102 -41.5t101.5 41.5t41.5 101.5t-41.5 102t-101.5 42t-102 -42t-42 -102z" />
    <glyph glyph-name="AEacute" unicode="&#x1fc;" horiz-adv-x="2140" 
d="M41 0l868 1434h1092v-99h-883v-563h791v-98h-791v-576h893v-98h-999v401h-615l-241 -401h-115zM455 498h557v839h-54zM1255 1567l191 241l121 -57l-219 -184h-93z" />
    <glyph glyph-name="aeacute" unicode="&#x1fd;" horiz-adv-x="1953" 
d="M498 -25q-73 0 -142 21t-126 60.5t-91.5 103.5t-34.5 143v4q0 161 123 250.5t324 89.5q161 0 328 -45v45q0 158 -85 239t-245 81q-148 0 -313 -84l-37 88q97 46 178 68t178 22q157 0 258.5 -66.5t136.5 -195.5q63 125 174 197.5t248 72.5q143 0 253 -72.5t168 -196
t58 -278.5q0 -25 -2 -41h-866q12 -188 131 -299.5t279 -111.5q114 0 199 43t159 120l70 -61q-87 -95 -189.5 -146t-242.5 -51q-129 0 -241 61t-181 169q-201 -230 -469 -230zM983 571h760q-6 81 -32 152.5t-71 129t-115 91t-157 33.5q-155 0 -264 -116t-121 -290zM504 70
q243 0 418 219q-42 106 -45 223q-172 45 -332 45q-159 0 -246.5 -66t-87.5 -178v-4q0 -110 84.5 -174.5t208.5 -64.5zM934 1219l180 272l125 -61l-219 -211h-86z" />
    <glyph glyph-name="Oslashacute" unicode="&#x1fe;" horiz-adv-x="1740" 
d="M1485 1444h123l-205 -219q91 -99 139.5 -229.5t48.5 -274.5v-4q0 -147 -52.5 -281.5t-145.5 -236.5t-230 -163t-295 -61q-268 0 -467 168l-145 -153h-123l203 217q-90 102 -138 232.5t-48 273.5v4q0 147 52.5 281.5t145 236.5t229.5 162.5t295 60.5q266 0 467 -170z
M872 70q174 0 315 86.5t218.5 233t77.5 323.5q0 248 -154 436l-860 -926q166 -153 403 -153zM258 721q0 -254 152 -436l862 925q-170 154 -404 154q-174 0 -314.5 -86.5t-218 -233t-77.5 -323.5zM827 1587l191 242l121 -57l-219 -185h-93z" />
    <glyph glyph-name="oslashacute" unicode="&#x1ff;" horiz-adv-x="1310" 
d="M1106 1059h117l-164 -172q133 -152 133 -361v-4q0 -146 -69 -271t-193.5 -200.5t-276.5 -75.5q-196 0 -342 123l-106 -108h-117l162 168q-131 157 -131 360v4q0 109 41 209t111 174.5t171 119t215 44.5q201 0 342 -125zM657 68q185 0 306.5 131.5t121.5 318.5
q0 168 -100 295l-608 -639q115 -106 280 -106zM225 526q0 -172 97 -295l612 637q-119 109 -281 109q-123 0 -222 -61.5t-152.5 -164t-53.5 -225.5zM612 1219l181 272l125 -61l-220 -211h-86z" />
    <glyph glyph-name="Scommaaccent" unicode="&#x218;" horiz-adv-x="1310" 
d="M698 -20q-169 0 -307.5 56t-269.5 173l69 80q121 -112 240 -162.5t275 -50.5q160 0 261 80t101 204v5q0 80 -32.5 133t-122 96t-250.5 76q-260 54 -372 146.5t-112 256.5v4q0 161 131 269t330 108q151 0 265 -41.5t226 -132.5l-67 -84q-101 86 -204 124t-224 38
q-156 0 -253 -79t-97 -192v-4q0 -61 17.5 -104.5t63.5 -82.5t127.5 -69t208.5 -57q250 -51 361 -144t111 -251v-4q0 -172 -134 -281.5t-342 -109.5zM559 -461l-12 49q63 14 89.5 41t22.5 74h-63v145h147v-127q0 -155 -184 -182z" />
    <glyph glyph-name="scommaaccent" unicode="&#x219;" horiz-adv-x="1017" 
d="M528 -20q-113 0 -227.5 41t-200.5 110l60 80q179 -137 375 -137q108 0 179.5 54t71.5 144v4q0 30 -9.5 55t-30.5 44.5t-42.5 34.5t-58 29.5t-64 23.5t-71.5 22q-159 45 -221 79q-137 73 -137 208v4q0 126 96 207.5t248 81.5q94 0 193 -30.5t177 -84.5l-53 -84
q-160 105 -321 105q-107 0 -172.5 -52t-65.5 -131v-4q0 -17 3.5 -32.5t13 -29.5t17.5 -24.5t26 -22t28.5 -19t36 -18t37 -15t42.5 -14.5t42 -13.5t45 -13.5q51 -15 84.5 -26.5t78 -30t73 -39.5t55.5 -49.5t40 -65.5t13 -82v-4q0 -137 -103 -221t-258 -84zM403 -461l-12 49
q63 14 90 41t23 74h-64v145h148v-127q0 -155 -185 -182z" />
    <glyph glyph-name="schwa" unicode="&#x259;" horiz-adv-x="1196" 
d="M565 1069q102 0 195.5 -39.5t163.5 -109.5t111.5 -173t41.5 -223v-4q0 -151 -64 -275.5t-178 -197t-253 -72.5q-143 0 -253.5 72.5t-168.5 196.5t-58 278q0 25 2 41h867q-12 188 -131 300t-279 112q-114 0 -199 -43t-159 -121l-70 61q85 94 188.5 145.5t243.5 51.5z
M971 473h-760q6 -81 32 -152.5t71 -129t115 -90.5t157 -33q155 0 264 115.5t121 289.5z" />
    <glyph glyph-name="circumflex" unicode="&#x2c6;" 
d="M266 1219l205 249h82l205 -249h-96l-152 139l-152 -139h-92z" />
    <glyph glyph-name="caron" unicode="&#x2c7;" 
d="M758 1468l-205 -249h-82l-205 249h96l152 -139l152 139h92z" />
    <glyph glyph-name="breve" unicode="&#x2d8;" 
d="M512 1214q-117 0 -191 61t-81 169h79q20 -60 68.5 -95.5t124.5 -35.5t124.5 35.5t68.5 95.5h79q-7 -108 -81 -169t-191 -61z" />
    <glyph glyph-name="dotaccent" unicode="&#x2d9;" 
d="M438 1219v165h148v-165h-148z" />
    <glyph glyph-name="ring" unicode="&#x2da;" 
d="M299 1419q0 85 62.5 145t150.5 60t150.5 -60t62.5 -145t-62.5 -145t-150.5 -60t-150.5 60t-62.5 145zM369 1419q0 -60 41.5 -101.5t101.5 -41.5t101.5 41.5t41.5 101.5t-41.5 102t-101.5 42t-101.5 -42t-41.5 -102z" />
    <glyph glyph-name="ogonek" unicode="&#x2db;" 
d="M657 -262v-74q-127 4 -192.5 46.5t-65.5 115.5q0 57 36 104t114 107l72 -35q-65 -53 -92 -88t-27 -76q0 -44 35.5 -68.5t119.5 -31.5z" />
    <glyph glyph-name="tilde" unicode="&#x2dc;" 
d="M279 1200l-70 19q28 107 68 148.5t104 41.5q39 0 133.5 -42t128.5 -42q37 0 58 21t44 81l70 -18q-28 -107 -68 -148.5t-104 -41.5q-39 0 -133.5 42t-128.5 42q-37 0 -58 -21.5t-44 -81.5z" />
    <glyph glyph-name="hungarumlaut" unicode="&#x2dd;" 
d="M504 1219l182 272l113 -59l-207 -213h-88zM225 1219l183 272l112 -59l-207 -213h-88z" />
    <glyph glyph-name="commaaccent" unicode="&#x326;" 
d="M401 -461l-12 49q63 14 90 41t23 74h-64v145h148v-127q0 -155 -185 -182z" />
    <glyph glyph-name="uni14EA" unicode="&#x14ea;" horiz-adv-x="0" 
 />
    <glyph glyph-name="Wgrave" unicode="&#x1e80;" horiz-adv-x="2256" 
d="M623 -10l-521 1444h119l451 -1276l420 1280h82l419 -1280l451 1276h110l-520 -1444h-86l-420 1245l-419 -1245h-86zM981 1808l190 -241h-92l-219 184z" />
    <glyph glyph-name="wgrave" unicode="&#x1e81;" horiz-adv-x="1763" 
d="M483 -8l-383 1052h113l315 -917l316 922h80l315 -922l315 917h109l-383 -1052h-86l-311 895l-314 -895h-86zM838 1219l-220 211l125 61l181 -272h-86z" />
    <glyph glyph-name="Wacute" unicode="&#x1e82;" horiz-adv-x="2256" 
d="M623 -10l-521 1444h119l451 -1276l420 1280h82l419 -1280l451 1276h110l-520 -1444h-86l-420 1245l-419 -1245h-86zM1085 1567l191 241l121 -57l-219 -184h-93z" />
    <glyph glyph-name="wacute" unicode="&#x1e83;" horiz-adv-x="1763" 
d="M483 -8l-383 1052h113l315 -917l316 922h80l315 -922l315 917h109l-383 -1052h-86l-311 895l-314 -895h-86zM838 1219l180 272l125 -61l-219 -211h-86z" />
    <glyph glyph-name="Wdieresis" unicode="&#x1e84;" horiz-adv-x="2256" 
d="M623 -10l-521 1444h119l451 -1276l420 1280h82l419 -1280l451 1276h110l-520 -1444h-86l-420 1245l-419 -1245h-86zM1235 1567v155h149v-155h-149zM874 1567v155h152v-155h-152z" />
    <glyph glyph-name="wdieresis" unicode="&#x1e85;" horiz-adv-x="1763" 
d="M483 -8l-383 1052h113l315 -917l316 922h80l315 -922l315 917h109l-383 -1052h-86l-311 895l-314 -895h-86zM977 1219v163h141v-163h-141zM643 1219v163h141v-163h-141z" />
    <glyph glyph-name="uni1EA0" unicode="&#x1ea0;" horiz-adv-x="1617" 
d="M752 -365v193h104v-193h-104zM90 0l668 1444h102l668 -1444h-117l-182 401h-846l-182 -401h-111zM428 498h756l-377 829z" />
    <glyph glyph-name="uni1EA1" unicode="&#x1ea1;" horiz-adv-x="1175" 
d="M512 -365v193h104v-193h-104zM508 -25q-75 0 -145.5 21t-129 60.5t-94 103.5t-35.5 143v4q0 161 125 250.5t332 89.5q179 0 346 -45v45q0 157 -90 238.5t-254 81.5q-162 0 -327 -84l-37 88q188 90 370 90q215 0 330 -115q107 -107 107 -295v-651h-99v174
q-63 -86 -162.5 -142.5t-236.5 -56.5zM514 70q163 0 279 90.5t116 230.5v119q-180 47 -354 47q-163 0 -253.5 -66t-90.5 -178v-4q0 -110 88.5 -174.5t214.5 -64.5z" />
    <glyph glyph-name="uni1EA2" unicode="&#x1ea2;" horiz-adv-x="1617" 
d="M774 1587l-6 150q57 4 93 30.5t36 61.5q0 31 -22 51.5t-62 20.5q-56 0 -115 -89q-9 4 -16.5 10t-13.5 9l-16 9q-17 9 -25 15q37 60 85.5 96t100.5 36q77 0 124.5 -45t47.5 -113q0 -62 -38.5 -101.5t-100.5 -58.5q0 -20 -4 -82h-68zM90 0l668 1444h102l668 -1444h-117
l-182 401h-846l-182 -401h-111zM428 498h756l-377 829z" />
    <glyph glyph-name="uni1EA3" unicode="&#x1ea3;" horiz-adv-x="1175" 
d="M590 1219l-6 149q57 4 93 30.5t36 61.5q0 31 -22 51.5t-62 20.5q-57 0 -115 -88q-9 5 -18 10.5t-13 7.5q-37 23 -41 25q37 59 86 95t101 36q77 0 124.5 -45t47.5 -113q0 -62 -38.5 -101.5t-100.5 -58.5q0 -4 -5 -81h-67zM508 -25q-75 0 -145.5 21t-129 60.5t-94 103.5
t-35.5 143v4q0 161 125 250.5t332 89.5q179 0 346 -45v45q0 157 -90 238.5t-254 81.5q-162 0 -327 -84l-37 88q188 90 370 90q215 0 330 -115q107 -107 107 -295v-651h-99v174q-63 -86 -162.5 -142.5t-236.5 -56.5zM514 70q163 0 279 90.5t116 230.5v119q-180 47 -354 47
q-163 0 -253.5 -66t-90.5 -178v-4q0 -110 88.5 -174.5t214.5 -64.5z" />
    <glyph glyph-name="uni1EA4" unicode="&#x1ea4;" horiz-adv-x="1617" 
d="M90 0l668 1444h102l668 -1444h-117l-182 401h-846l-182 -401h-111zM428 498h756l-377 829zM563 1585l205 250h82l205 -250h-97l-151 139l-152 -139h-92zM983 1780l180 272l125 -61l-219 -211h-86z" />
    <glyph glyph-name="uni1EA5" unicode="&#x1ea5;" horiz-adv-x="1175" 
d="M508 -25q-75 0 -145.5 21t-129 60.5t-94 103.5t-35.5 143v4q0 161 125 250.5t332 89.5q179 0 346 -45v45q0 157 -90 238.5t-254 81.5q-162 0 -327 -84l-37 88q188 90 370 90q215 0 330 -115q107 -107 107 -295v-651h-99v174q-63 -86 -162.5 -142.5t-236.5 -56.5zM514 70
q163 0 279 90.5t116 230.5v119q-180 47 -354 47q-163 0 -253.5 -66t-90.5 -178v-4q0 -110 88.5 -174.5t214.5 -64.5zM373 1219l205 249h81l205 -249h-96l-152 139l-151 -139h-92zM793 1413l180 273l125 -62l-219 -211h-86z" />
    <glyph glyph-name="uni1EA6" unicode="&#x1ea6;" horiz-adv-x="1617" 
d="M90 0l668 1444h102l668 -1444h-117l-182 401h-846l-182 -401h-111zM428 498h756l-377 829zM563 1585l205 250h82l205 -250h-97l-151 139l-152 -139h-92zM1059 1778l-219 211l125 61l180 -272h-86z" />
    <glyph glyph-name="uni1EA7" unicode="&#x1ea7;" horiz-adv-x="1175" 
d="M508 -25q-75 0 -145.5 21t-129 60.5t-94 103.5t-35.5 143v4q0 161 125 250.5t332 89.5q179 0 346 -45v45q0 157 -90 238.5t-254 81.5q-162 0 -327 -84l-37 88q188 90 370 90q215 0 330 -115q107 -107 107 -295v-651h-99v174q-63 -86 -162.5 -142.5t-236.5 -56.5zM514 70
q163 0 279 90.5t116 230.5v119q-180 47 -354 47q-163 0 -253.5 -66t-90.5 -178v-4q0 -110 88.5 -174.5t214.5 -64.5zM373 1219l205 249h81l205 -249h-96l-152 139l-151 -139h-92zM868 1411l-219 211l125 61l180 -272h-86z" />
    <glyph glyph-name="uni1EA8" unicode="&#x1ea8;" horiz-adv-x="1617" 
d="M90 0l668 1444h102l668 -1444h-117l-182 401h-846l-182 -401h-111zM428 498h756l-377 829zM563 1585l205 250h82l205 -250h-97l-151 139l-152 -139h-92zM1020 1743l-6 149q57 4 93 30.5t36 62.5q0 31 -22 51t-62 20q-57 0 -115 -88q-9 4 -17 10t-14 9l-17 9q-16 9 -24 15
q37 59 86 95t101 36q77 0 124.5 -44.5t47.5 -112.5q0 -62 -38.5 -101.5t-100.5 -58.5q0 -5 -5 -82h-67z" />
    <glyph glyph-name="uni1EA9" unicode="&#x1ea9;" horiz-adv-x="1175" 
d="M508 -25q-75 0 -145.5 21t-129 60.5t-94 103.5t-35.5 143v4q0 161 125 250.5t332 89.5q179 0 346 -45v45q0 157 -90 238.5t-254 81.5q-162 0 -327 -84l-37 88q188 90 370 90q215 0 330 -115q107 -107 107 -295v-651h-99v174q-63 -86 -162.5 -142.5t-236.5 -56.5zM514 70
q163 0 279 90.5t116 230.5v119q-180 47 -354 47q-163 0 -253.5 -66t-90.5 -178v-4q0 -110 88.5 -174.5t214.5 -64.5zM373 1219l205 249h81l205 -249h-96l-152 139l-151 -139h-92zM829 1376l-6 150q57 4 93 30.5t36 61.5q0 31 -22 51.5t-62 20.5q-56 0 -114 -88
q-9 5 -18 10.5t-13 7.5q-38 22 -41 25q37 60 85.5 95.5t100.5 35.5q77 0 124.5 -45t47.5 -113q0 -62 -38.5 -101.5t-100.5 -58.5q0 -20 -4 -82h-68z" />
    <glyph glyph-name="uni1EAA" unicode="&#x1eaa;" horiz-adv-x="1617" 
d="M90 0l668 1444h102l668 -1444h-117l-182 401h-846l-182 -401h-111zM428 498h756l-377 829zM563 1585l205 250h82l205 -250h-97l-151 139l-152 -139h-92zM616 1894l-67 21q26 93 60.5 133.5t86.5 40.5q38 0 120 -38t110 -38q31 0 50 20.5t38 71.5l67 -20
q-25 -93 -59 -132.5t-88 -39.5q-34 0 -117 38t-110 38q-31 0 -50.5 -21t-40.5 -74z" />
    <glyph glyph-name="uni1EAB" unicode="&#x1eab;" horiz-adv-x="1175" 
d="M508 -25q-75 0 -145.5 21t-129 60.5t-94 103.5t-35.5 143v4q0 161 125 250.5t332 89.5q179 0 346 -45v45q0 157 -90 238.5t-254 81.5q-162 0 -327 -84l-37 88q188 90 370 90q215 0 330 -115q107 -107 107 -295v-651h-99v174q-63 -86 -162.5 -142.5t-236.5 -56.5zM514 70
q163 0 279 90.5t116 230.5v119q-180 47 -354 47q-163 0 -253.5 -66t-90.5 -178v-4q0 -110 88.5 -174.5t214.5 -64.5zM373 1219l205 249h81l205 -249h-96l-152 139l-151 -139h-92zM426 1528l-68 20q26 93 61 133.5t87 40.5q38 0 119.5 -37.5t109.5 -37.5q31 0 50 20.5
t38 71.5l68 -21q-25 -93 -59 -132.5t-89 -39.5q-34 0 -117 38t-110 38q-31 0 -50 -20.5t-40 -73.5z" />
    <glyph glyph-name="uni1EAC" unicode="&#x1eac;" horiz-adv-x="1617" 
d="M90 0l668 1444h102l668 -1444h-117l-182 401h-846l-182 -401h-111zM428 498h756l-377 829zM563 1585l205 250h82l205 -250h-97l-151 139l-152 -139h-92zM752 -365v193h104v-193h-104z" />
    <glyph glyph-name="uni1EAD" unicode="&#x1ead;" horiz-adv-x="1175" 
d="M508 -25q-75 0 -145.5 21t-129 60.5t-94 103.5t-35.5 143v4q0 161 125 250.5t332 89.5q179 0 346 -45v45q0 157 -90 238.5t-254 81.5q-162 0 -327 -84l-37 88q188 90 370 90q215 0 330 -115q107 -107 107 -295v-651h-99v174q-63 -86 -162.5 -142.5t-236.5 -56.5zM514 70
q163 0 279 90.5t116 230.5v119q-180 47 -354 47q-163 0 -253.5 -66t-90.5 -178v-4q0 -110 88.5 -174.5t214.5 -64.5zM373 1219l205 249h81l205 -249h-96l-152 139l-151 -139h-92zM512 -365v193h104v-193h-104z" />
    <glyph glyph-name="uni1EAE" unicode="&#x1eae;" horiz-adv-x="1617" 
d="M90 0l668 1444h102l668 -1444h-117l-182 401h-846l-182 -401h-111zM428 498h756l-377 829zM809 1583q-117 0 -191 61t-81 168h79q20 -60 68.5 -95.5t124.5 -35.5t124 35.5t68 95.5h80q-7 -107 -81 -168t-191 -61zM719 1812l180 273l125 -62l-219 -211h-86z" />
    <glyph glyph-name="uni1EAF" unicode="&#x1eaf;" horiz-adv-x="1175" 
d="M508 -25q-75 0 -145.5 21t-129 60.5t-94 103.5t-35.5 143v4q0 161 125 250.5t332 89.5q179 0 346 -45v45q0 157 -90 238.5t-254 81.5q-162 0 -327 -84l-37 88q188 90 370 90q215 0 330 -115q107 -107 107 -295v-651h-99v174q-63 -86 -162.5 -142.5t-236.5 -56.5zM514 70
q163 0 279 90.5t116 230.5v119q-180 47 -354 47q-163 0 -253.5 -66t-90.5 -178v-4q0 -110 88.5 -174.5t214.5 -64.5zM627 1214q-117 0 -191.5 61.5t-81.5 168.5h80q20 -60 68.5 -95.5t124.5 -35.5t124 35.5t68 95.5h80q-7 -108 -81 -169t-191 -61zM537 1444l180 272l125 -61
l-219 -211h-86z" />
    <glyph glyph-name="uni1EB0" unicode="&#x1eb0;" horiz-adv-x="1617" 
d="M90 0l668 1444h102l668 -1444h-117l-182 401h-846l-182 -401h-111zM428 498h756l-377 829zM809 1583q-117 0 -191 61t-81 168h79q20 -60 68.5 -95.5t124.5 -35.5t124 35.5t68 95.5h80q-7 -107 -81 -168t-191 -61zM811 1812l-219 211l125 62l180 -273h-86z" />
    <glyph glyph-name="uni1EB1" unicode="&#x1eb1;" horiz-adv-x="1175" 
d="M508 -25q-75 0 -145.5 21t-129 60.5t-94 103.5t-35.5 143v4q0 161 125 250.5t332 89.5q179 0 346 -45v45q0 157 -90 238.5t-254 81.5q-162 0 -327 -84l-37 88q188 90 370 90q215 0 330 -115q107 -107 107 -295v-651h-99v174q-63 -86 -162.5 -142.5t-236.5 -56.5zM514 70
q163 0 279 90.5t116 230.5v119q-180 47 -354 47q-163 0 -253.5 -66t-90.5 -178v-4q0 -110 88.5 -174.5t214.5 -64.5zM627 1214q-117 0 -191.5 61.5t-81.5 168.5h80q20 -60 68.5 -95.5t124.5 -35.5t124 35.5t68 95.5h80q-7 -108 -81 -169t-191 -61zM629 1444l-219 211l125 61
l180 -272h-86z" />
    <glyph glyph-name="uni1EB2" unicode="&#x1eb2;" horiz-adv-x="1617" 
d="M90 0l668 1444h102l668 -1444h-117l-182 401h-846l-182 -401h-111zM428 498h756l-377 829zM809 1583q-117 0 -191 61t-81 168h79q20 -60 68.5 -95.5t124.5 -35.5t124 35.5t68 95.5h80q-7 -107 -81 -168t-191 -61zM788 1810l-6 142q55 4 88 28.5t33 59.5q0 27 -21 46
t-57 19q-28 0 -57 -23.5t-51 -58.5q-7 4 -14.5 9.5t-14.5 9.5q-11 2 -39 22q33 56 79.5 89.5t96.5 33.5q72 0 117 -42t45 -105q0 -59 -37.5 -98t-93.5 -54q0 -24 -4 -78h-64z" />
    <glyph glyph-name="uni1EB3" unicode="&#x1eb3;" horiz-adv-x="1175" 
d="M508 -25q-75 0 -145.5 21t-129 60.5t-94 103.5t-35.5 143v4q0 161 125 250.5t332 89.5q179 0 346 -45v45q0 157 -90 238.5t-254 81.5q-162 0 -327 -84l-37 88q188 90 370 90q215 0 330 -115q107 -107 107 -295v-651h-99v174q-63 -86 -162.5 -142.5t-236.5 -56.5zM514 70
q163 0 279 90.5t116 230.5v119q-180 47 -354 47q-163 0 -253.5 -66t-90.5 -178v-4q0 -110 88.5 -174.5t214.5 -64.5zM627 1214q-117 0 -191.5 61.5t-81.5 168.5h80q20 -60 68.5 -95.5t124.5 -35.5t124 35.5t68 95.5h80q-7 -108 -81 -169t-191 -61zM606 1442l-6 141
q55 4 88 28.5t33 59.5q0 27 -21 46.5t-57 19.5q-28 0 -57 -23.5t-51 -58.5q-7 4 -14.5 9t-14.5 9q-9 2 -39 23q33 56 79.5 89.5t96.5 33.5q72 0 117 -42.5t45 -105.5q0 -59 -37.5 -97.5t-93.5 -53.5q0 -24 -4 -78h-64z" />
    <glyph glyph-name="uni1EB4" unicode="&#x1eb4;" horiz-adv-x="1617" 
d="M90 0l668 1444h102l668 -1444h-117l-182 401h-846l-182 -401h-111zM428 498h756l-377 829zM809 1583q-117 0 -191 61t-81 168h79q20 -60 68.5 -95.5t124.5 -35.5t124 35.5t68 95.5h80q-7 -107 -81 -168t-191 -61zM604 1886l-69 19q26 102 63.5 148t91.5 46q38 0 123 -43
t113 -43q35 0 54 20.5t40 77.5l70 -18q-26 -101 -63.5 -145.5t-92.5 -44.5q-38 0 -123 41t-113 41q-35 0 -54.5 -20.5t-39.5 -78.5z" />
    <glyph glyph-name="uni1EB5" unicode="&#x1eb5;" horiz-adv-x="1175" 
d="M508 -25q-75 0 -145.5 21t-129 60.5t-94 103.5t-35.5 143v4q0 161 125 250.5t332 89.5q179 0 346 -45v45q0 157 -90 238.5t-254 81.5q-162 0 -327 -84l-37 88q188 90 370 90q215 0 330 -115q107 -107 107 -295v-651h-99v174q-63 -86 -162.5 -142.5t-236.5 -56.5zM514 70
q163 0 279 90.5t116 230.5v119q-180 47 -354 47q-163 0 -253.5 -66t-90.5 -178v-4q0 -110 88.5 -174.5t214.5 -64.5zM627 1214q-117 0 -191.5 61.5t-81.5 168.5h80q20 -60 68.5 -95.5t124.5 -35.5t124 35.5t68 95.5h80q-7 -108 -81 -169t-191 -61zM422 1518l-70 18
q26 102 63.5 148.5t92.5 46.5q38 0 122.5 -43t112.5 -43q35 0 54.5 21t40.5 77l69 -19q-26 -101 -63 -145.5t-92 -44.5q-38 0 -123 41t-113 41q-35 0 -54.5 -20.5t-39.5 -77.5z" />
    <glyph glyph-name="uni1EB6" unicode="&#x1eb6;" horiz-adv-x="1617" 
d="M90 0l668 1444h102l668 -1444h-117l-182 401h-846l-182 -401h-111zM428 498h756l-377 829zM809 1583q-117 0 -191 61t-81 168h79q20 -60 68.5 -95.5t124.5 -35.5t124 35.5t68 95.5h80q-7 -107 -81 -168t-191 -61zM752 -365v193h104v-193h-104z" />
    <glyph glyph-name="uni1EB7" unicode="&#x1eb7;" horiz-adv-x="1175" 
d="M508 -25q-75 0 -145.5 21t-129 60.5t-94 103.5t-35.5 143v4q0 161 125 250.5t332 89.5q179 0 346 -45v45q0 157 -90 238.5t-254 81.5q-162 0 -327 -84l-37 88q188 90 370 90q215 0 330 -115q107 -107 107 -295v-651h-99v174q-63 -86 -162.5 -142.5t-236.5 -56.5zM514 70
q163 0 279 90.5t116 230.5v119q-180 47 -354 47q-163 0 -253.5 -66t-90.5 -178v-4q0 -110 88.5 -174.5t214.5 -64.5zM627 1214q-117 0 -191.5 61.5t-81.5 168.5h80q20 -60 68.5 -95.5t124.5 -35.5t124 35.5t68 95.5h80q-7 -108 -81 -169t-191 -61zM512 -365v193h104v-193
h-104z" />
    <glyph glyph-name="uni1EB8" unicode="&#x1eb8;" horiz-adv-x="1372" 
d="M668 -365v193h104v-193h-104zM213 0v1434h1020v-99h-914v-563h822v-98h-822v-576h924v-98h-1030z" />
    <glyph glyph-name="uni1EB9" unicode="&#x1eb9;" horiz-adv-x="1196" 
d="M567 -365v193h105v-193h-105zM631 -25q-102 0 -195.5 39.5t-163.5 109.5t-111.5 173t-41.5 223v4q0 149 64 274t178 198t253 73q143 0 253.5 -72.5t168.5 -196.5t58 -278q0 -25 -2 -41h-867q12 -188 131 -299.5t279 -111.5q114 0 199 43t159 120l70 -61
q-87 -95 -189.5 -146t-242.5 -51zM225 571h760q-6 81 -32 152.5t-71 129t-115 91t-157 33.5q-155 0 -264 -116t-121 -290z" />
    <glyph glyph-name="uni1EBA" unicode="&#x1eba;" horiz-adv-x="1372" 
d="M705 1565l-7 149q57 4 93 30.5t36 61.5q0 31 -22 51.5t-62 20.5q-56 0 -114 -88q-9 5 -18 10.5t-13 7.5q-38 23 -41 25q37 60 85.5 95.5t100.5 35.5q77 0 124.5 -45t47.5 -113q0 -116 -139 -159q0 -20 -4 -82h-67zM213 0v1434h1020v-99h-914v-563h822v-98h-822v-576h924
v-98h-1030z" />
    <glyph glyph-name="uni1EBB" unicode="&#x1ebb;" horiz-adv-x="1196" 
d="M631 -25q-102 0 -195.5 39.5t-163.5 109.5t-111.5 173t-41.5 223v4q0 149 64 274t178 198t253 73q143 0 253.5 -72.5t168.5 -196.5t58 -278q0 -25 -2 -41h-867q12 -188 131 -299.5t279 -111.5q114 0 199 43t159 120l70 -61q-87 -95 -189.5 -146t-242.5 -51zM225 571h760
q-6 81 -32 152.5t-71 129t-115 91t-157 33.5q-155 0 -264 -116t-121 -290zM588 1219l-6 149q57 4 93 30.5t36 61.5q0 31 -22 51.5t-62 20.5q-57 0 -115 -88q-9 5 -18 10.5t-13 7.5q-37 23 -41 25q37 59 86 95t101 36q77 0 124.5 -45t47.5 -113q0 -116 -140 -160
q0 -19 -4 -81h-67z" />
    <glyph glyph-name="uni1EBC" unicode="&#x1ebc;" horiz-adv-x="1372" 
d="M463 1569l-76 20q29 97 68 138.5t100 41.5q41 0 134 -38.5t124 -38.5q36 0 57 19.5t45 74.5l76 -21q-29 -97 -68 -137.5t-100 -40.5q-40 0 -133 39t-125 39q-36 0 -57 -20.5t-45 -75.5zM213 0v1434h1020v-99h-914v-563h822v-98h-822v-576h924v-98h-1030z" />
    <glyph glyph-name="uni1EBD" unicode="&#x1ebd;" horiz-adv-x="1196" 
d="M631 -25q-102 0 -195.5 39.5t-163.5 109.5t-111.5 173t-41.5 223v4q0 149 64 274t178 198t253 73q143 0 253.5 -72.5t168.5 -196.5t58 -278q0 -25 -2 -41h-867q12 -188 131 -299.5t279 -111.5q114 0 199 43t159 120l70 -61q-87 -95 -189.5 -146t-242.5 -51zM225 571h760
q-6 81 -32 152.5t-71 129t-115 91t-157 33.5q-155 0 -264 -116t-121 -290zM391 1200l-69 19q28 107 68 148.5t104 41.5q39 0 133.5 -42t128.5 -42q37 0 58 21t44 81l70 -18q-28 -107 -68 -148.5t-104 -41.5q-39 0 -133.5 42t-128.5 42q-37 0 -58.5 -21.5t-44.5 -81.5z" />
    <glyph glyph-name="uni1EBE" unicode="&#x1ebe;" horiz-adv-x="1372" 
d="M213 0v1434h1020v-99h-914v-563h822v-98h-822v-576h924v-98h-1030zM479 1567l205 250h82l205 -250h-97l-151 139l-152 -139h-92zM899 1759l180 273l125 -62l-219 -211h-86z" />
    <glyph glyph-name="uni1EBF" unicode="&#x1ebf;" horiz-adv-x="1196" 
d="M631 -25q-102 0 -195.5 39.5t-163.5 109.5t-111.5 173t-41.5 223v4q0 149 64 274t178 198t253 73q143 0 253.5 -72.5t168.5 -196.5t58 -278q0 -25 -2 -41h-867q12 -188 131 -299.5t279 -111.5q114 0 199 43t159 120l70 -61q-87 -95 -189.5 -146t-242.5 -51zM225 571h760
q-6 81 -32 152.5t-71 129t-115 91t-157 33.5q-155 0 -264 -116t-121 -290zM369 1219l204 249h82l205 -249h-96l-152 139l-151 -139h-92zM788 1413l181 273l125 -62l-220 -211h-86z" />
    <glyph glyph-name="uni1EC0" unicode="&#x1ec0;" horiz-adv-x="1372" 
d="M213 0v1434h1020v-99h-914v-563h822v-98h-822v-576h924v-98h-1030zM479 1567l205 250h82l205 -250h-97l-151 139l-152 -139h-92zM975 1759l-219 211l125 62l180 -273h-86z" />
    <glyph glyph-name="uni1EC1" unicode="&#x1ec1;" horiz-adv-x="1196" 
d="M631 -25q-102 0 -195.5 39.5t-163.5 109.5t-111.5 173t-41.5 223v4q0 149 64 274t178 198t253 73q143 0 253.5 -72.5t168.5 -196.5t58 -278q0 -25 -2 -41h-867q12 -188 131 -299.5t279 -111.5q114 0 199 43t159 120l70 -61q-87 -95 -189.5 -146t-242.5 -51zM225 571h760
q-6 81 -32 152.5t-71 129t-115 91t-157 33.5q-155 0 -264 -116t-121 -290zM369 1219l204 249h82l205 -249h-96l-152 139l-151 -139h-92zM864 1411l-219 211l125 61l180 -272h-86z" />
    <glyph glyph-name="uni1EC2" unicode="&#x1ec2;" horiz-adv-x="1372" 
d="M213 0v1434h1020v-99h-914v-563h822v-98h-822v-576h924v-98h-1030zM479 1567l205 250h82l205 -250h-97l-151 139l-152 -139h-92zM936 1724l-6 150q57 4 93 30.5t36 61.5q0 31 -22 51.5t-62 20.5q-57 0 -115 -88q-9 5 -18 10.5t-13 7.5q-38 22 -41 25q37 59 86 95t101 36
q77 0 124.5 -45t47.5 -113q0 -62 -38.5 -101.5t-100.5 -58.5q0 -20 -4 -82h-68z" />
    <glyph glyph-name="uni1EC3" unicode="&#x1ec3;" horiz-adv-x="1196" 
d="M631 -25q-102 0 -195.5 39.5t-163.5 109.5t-111.5 173t-41.5 223v4q0 149 64 274t178 198t253 73q143 0 253.5 -72.5t168.5 -196.5t58 -278q0 -25 -2 -41h-867q12 -188 131 -299.5t279 -111.5q114 0 199 43t159 120l70 -61q-87 -95 -189.5 -146t-242.5 -51zM225 571h760
q-6 81 -32 152.5t-71 129t-115 91t-157 33.5q-155 0 -264 -116t-121 -290zM369 1219l204 249h82l205 -249h-96l-152 139l-151 -139h-92zM825 1376l-6 150q57 4 93 30.5t36 61.5q0 31 -22 51.5t-62 20.5q-56 0 -114 -88q-9 5 -18 10.5t-13 7.5q-38 22 -41 25q37 60 85.5 95.5
t100.5 35.5q77 0 124.5 -45t47.5 -113q0 -62 -38.5 -101.5t-100.5 -58.5q0 -20 -4 -82h-68z" />
    <glyph glyph-name="uni1EC4" unicode="&#x1ec4;" horiz-adv-x="1372" 
d="M213 0v1434h1020v-99h-914v-563h822v-98h-822v-576h924v-98h-1030zM479 1567l205 250h82l205 -250h-97l-151 139l-152 -139h-92zM532 1874l-67 20q26 93 60.5 133.5t86.5 40.5q38 0 120 -37.5t110 -37.5q31 0 50 20.5t38 71.5l67 -21q-25 -93 -59 -132.5t-88 -39.5
q-34 0 -117 38t-110 38q-31 0 -50.5 -20.5t-40.5 -73.5z" />
    <glyph glyph-name="uni1EC5" unicode="&#x1ec5;" horiz-adv-x="1196" 
d="M631 -25q-102 0 -195.5 39.5t-163.5 109.5t-111.5 173t-41.5 223v4q0 149 64 274t178 198t253 73q143 0 253.5 -72.5t168.5 -196.5t58 -278q0 -25 -2 -41h-867q12 -188 131 -299.5t279 -111.5q114 0 199 43t159 120l70 -61q-87 -95 -189.5 -146t-242.5 -51zM225 571h760
q-6 81 -32 152.5t-71 129t-115 91t-157 33.5q-155 0 -264 -116t-121 -290zM369 1219l204 249h82l205 -249h-96l-152 139l-151 -139h-92zM422 1528l-68 20q26 93 61 133.5t87 40.5q38 0 119.5 -37.5t109.5 -37.5q31 0 50 20.5t38 71.5l68 -21q-25 -93 -59 -132.5t-89 -39.5
q-34 0 -117 38t-110 38q-31 0 -50 -20.5t-40 -73.5z" />
    <glyph glyph-name="uni1EC6" unicode="&#x1ec6;" horiz-adv-x="1372" 
d="M213 0v1434h1020v-99h-914v-563h822v-98h-822v-576h924v-98h-1030zM479 1567l205 250h82l205 -250h-97l-151 139l-152 -139h-92zM668 -365v193h104v-193h-104z" />
    <glyph glyph-name="uni1EC7" unicode="&#x1ec7;" horiz-adv-x="1196" 
d="M631 -25q-102 0 -195.5 39.5t-163.5 109.5t-111.5 173t-41.5 223v4q0 149 64 274t178 198t253 73q143 0 253.5 -72.5t168.5 -196.5t58 -278q0 -25 -2 -41h-867q12 -188 131 -299.5t279 -111.5q114 0 199 43t159 120l70 -61q-87 -95 -189.5 -146t-242.5 -51zM225 571h760
q-6 81 -32 152.5t-71 129t-115 91t-157 33.5q-155 0 -264 -116t-121 -290zM369 1219l204 249h82l205 -249h-96l-152 139l-151 -139h-92zM567 -365v193h105v-193h-105z" />
    <glyph glyph-name="uni1EC8" unicode="&#x1ec8;" horiz-adv-x="561" 
d="M248 1565l-6 149q57 4 93 30.5t36 61.5q0 31 -22 51.5t-62 20.5q-57 0 -115 -88q-9 5 -18 10.5t-13 7.5q-37 23 -41 25q37 59 86 95t101 36q77 0 124.5 -45t47.5 -113q0 -115 -140 -159q0 -20 -4 -82h-67zM227 0v1434h107v-1434h-107z" />
    <glyph glyph-name="uni1EC9" unicode="&#x1ec9;" horiz-adv-x="509" 
d="M205 0v1044h100v-1044h-100zM221 1219l-6 149q57 4 93 30.5t36 61.5q0 31 -22 51.5t-62 20.5q-57 0 -115 -88q-9 4 -17 9.5t-13 8.5q-37 23 -41 25q37 60 85.5 95.5t100.5 35.5q77 0 124.5 -45t47.5 -113q0 -62 -38.5 -101.5t-100.5 -58.5q0 -19 -4 -81h-68z" />
    <glyph glyph-name="uni1ECA" unicode="&#x1eca;" horiz-adv-x="561" 
d="M231 -365v193h105v-193h-105zM227 0v1434h107v-1434h-107z" />
    <glyph glyph-name="uni1ECB" unicode="&#x1ecb;" horiz-adv-x="509" 
d="M207 -365v193h104v-193h-104zM193 1317v137h124v-137h-124zM205 0v1044h100v-1044h-100z" />
    <glyph glyph-name="uni1ECC" unicode="&#x1ecc;" horiz-adv-x="1740" 
d="M817 -365v193h105v-193h-105zM868 -25q-158 0 -294.5 60.5t-228 162t-143.5 235.5t-52 280v4q0 147 52.5 281.5t145 236.5t229.5 162.5t295 60.5q127 0 241 -39t200 -108t149.5 -161.5t96 -202t32.5 -226.5v-4q0 -147 -52.5 -281.5t-145.5 -236.5t-230 -163t-295 -61z
M872 72q130 0 244 50.5t193.5 137t125.5 204.5t46 249v4q0 131 -46.5 250t-127 205.5t-195 138t-244.5 51.5q-173 0 -313 -86t-217.5 -232.5t-77.5 -322.5v-4q0 -176 78.5 -323.5t219.5 -234.5t314 -87z" />
    <glyph glyph-name="uni1ECD" unicode="&#x1ecd;" horiz-adv-x="1310" 
d="M604 -365v193h105v-193h-105zM653 -25q-113 0 -213 44t-170 117.5t-110.5 173t-40.5 208.5v4q0 109 41 209t111 174.5t171 119t215 44.5q151 0 274.5 -74.5t192 -198.5t68.5 -270v-4q0 -146 -69 -271t-193.5 -200.5t-276.5 -75.5zM657 70q121 0 219.5 60.5t152.5 163
t54 224.5v4q0 191 -124.5 322t-305.5 131q-183 0 -304.5 -131t-121.5 -318v-4q0 -191 124.5 -321.5t305.5 -130.5z" />
    <glyph glyph-name="uni1ECE" unicode="&#x1ece;" horiz-adv-x="1740" 
d="M868 -25q-158 0 -294.5 60.5t-228 162t-143.5 235.5t-52 280v4q0 147 52.5 281.5t145 236.5t229.5 162.5t295 60.5q127 0 241 -39t200 -108t149.5 -161.5t96 -202t32.5 -226.5v-4q0 -147 -52.5 -281.5t-145.5 -236.5t-230 -163t-295 -61zM872 72q130 0 244 50.5
t193.5 137t125.5 204.5t46 249v4q0 131 -46.5 250t-127 205.5t-195 138t-244.5 51.5q-173 0 -313 -86t-217.5 -232.5t-77.5 -322.5v-4q0 -176 78.5 -323.5t219.5 -234.5t314 -87zM838 1587l-7 150q57 4 93.5 30.5t36.5 61.5q0 31 -22 51.5t-62 20.5q-56 0 -115 -89
q-9 4 -17 10t-14 9l-17 9q-16 9 -24 15q37 60 86 96t101 36q77 0 124.5 -45t47.5 -113q0 -116 -140 -160q0 -20 -4 -82h-67z" />
    <glyph glyph-name="uni1ECF" unicode="&#x1ecf;" horiz-adv-x="1310" 
d="M653 -25q-113 0 -213 44t-170 117.5t-110.5 173t-40.5 208.5v4q0 109 41 209t111 174.5t171 119t215 44.5q151 0 274.5 -74.5t192 -198.5t68.5 -270v-4q0 -146 -69 -271t-193.5 -200.5t-276.5 -75.5zM657 70q121 0 219.5 60.5t152.5 163t54 224.5v4q0 191 -124.5 322
t-305.5 131q-183 0 -304.5 -131t-121.5 -318v-4q0 -191 124.5 -321.5t305.5 -130.5zM625 1219l-7 149q57 4 93.5 30.5t36.5 61.5q0 31 -22 51.5t-62 20.5q-57 0 -115 -88q-9 5 -18 10.5t-13 7.5q-37 23 -41 25q37 59 86 95t101 36q77 0 124.5 -45t47.5 -113
q0 -116 -140 -160q0 -19 -4 -81h-67z" />
    <glyph glyph-name="uni1ED0" unicode="&#x1ed0;" horiz-adv-x="1740" 
d="M868 -25q-158 0 -294.5 60.5t-228 162t-143.5 235.5t-52 280v4q0 147 52.5 281.5t145 236.5t229.5 162.5t295 60.5q127 0 241 -39t200 -108t149.5 -161.5t96 -202t32.5 -226.5v-4q0 -147 -52.5 -281.5t-145.5 -236.5t-230 -163t-295 -61zM872 72q130 0 244 50.5
t193.5 137t125.5 204.5t46 249v4q0 131 -46.5 250t-127 205.5t-195 138t-244.5 51.5q-173 0 -313 -86t-217.5 -232.5t-77.5 -322.5v-4q0 -176 78.5 -323.5t219.5 -234.5t314 -87zM625 1585l204 250h82l205 -250h-96l-152 139l-151 -139h-92zM1044 1780l181 272l125 -61
l-220 -211h-86z" />
    <glyph glyph-name="uni1ED1" unicode="&#x1ed1;" horiz-adv-x="1310" 
d="M653 -25q-113 0 -213 44t-170 117.5t-110.5 173t-40.5 208.5v4q0 109 41 209t111 174.5t171 119t215 44.5q151 0 274.5 -74.5t192 -198.5t68.5 -270v-4q0 -146 -69 -271t-193.5 -200.5t-276.5 -75.5zM657 70q121 0 219.5 60.5t152.5 163t54 224.5v4q0 191 -124.5 322
t-305.5 131q-183 0 -304.5 -131t-121.5 -318v-4q0 -191 124.5 -321.5t305.5 -130.5zM410 1219l204 249h82l205 -249h-96l-152 139l-151 -139h-92zM829 1413l181 273l125 -62l-220 -211h-86z" />
    <glyph glyph-name="uni1ED2" unicode="&#x1ed2;" horiz-adv-x="1740" 
d="M868 -25q-158 0 -294.5 60.5t-228 162t-143.5 235.5t-52 280v4q0 147 52.5 281.5t145 236.5t229.5 162.5t295 60.5q127 0 241 -39t200 -108t149.5 -161.5t96 -202t32.5 -226.5v-4q0 -147 -52.5 -281.5t-145.5 -236.5t-230 -163t-295 -61zM872 72q130 0 244 50.5
t193.5 137t125.5 204.5t46 249v4q0 131 -46.5 250t-127 205.5t-195 138t-244.5 51.5q-173 0 -313 -86t-217.5 -232.5t-77.5 -322.5v-4q0 -176 78.5 -323.5t219.5 -234.5t314 -87zM625 1585l204 250h82l205 -250h-96l-152 139l-151 -139h-92zM1120 1778l-219 211l125 61
l180 -272h-86z" />
    <glyph glyph-name="uni1ED3" unicode="&#x1ed3;" horiz-adv-x="1310" 
d="M653 -25q-113 0 -213 44t-170 117.5t-110.5 173t-40.5 208.5v4q0 109 41 209t111 174.5t171 119t215 44.5q151 0 274.5 -74.5t192 -198.5t68.5 -270v-4q0 -146 -69 -271t-193.5 -200.5t-276.5 -75.5zM657 70q121 0 219.5 60.5t152.5 163t54 224.5v4q0 191 -124.5 322
t-305.5 131q-183 0 -304.5 -131t-121.5 -318v-4q0 -191 124.5 -321.5t305.5 -130.5zM410 1219l204 249h82l205 -249h-96l-152 139l-151 -139h-92zM905 1411l-219 211l125 61l180 -272h-86z" />
    <glyph glyph-name="uni1ED4" unicode="&#x1ed4;" horiz-adv-x="1740" 
d="M868 -25q-158 0 -294.5 60.5t-228 162t-143.5 235.5t-52 280v4q0 147 52.5 281.5t145 236.5t229.5 162.5t295 60.5q127 0 241 -39t200 -108t149.5 -161.5t96 -202t32.5 -226.5v-4q0 -147 -52.5 -281.5t-145.5 -236.5t-230 -163t-295 -61zM872 72q130 0 244 50.5
t193.5 137t125.5 204.5t46 249v4q0 131 -46.5 250t-127 205.5t-195 138t-244.5 51.5q-173 0 -313 -86t-217.5 -232.5t-77.5 -322.5v-4q0 -176 78.5 -323.5t219.5 -234.5t314 -87zM625 1585l204 250h82l205 -250h-96l-152 139l-151 -139h-92zM1081 1743l-6 149q57 4 93 30.5
t36 62.5q0 31 -22 51t-62 20q-56 0 -114 -88q-9 4 -17 10t-14 9l-17 9q-16 9 -24 15q37 60 85.5 95.5t100.5 35.5q77 0 124.5 -44.5t47.5 -112.5q0 -62 -38.5 -101.5t-100.5 -58.5q0 -20 -4 -82h-68z" />
    <glyph glyph-name="uni1ED5" unicode="&#x1ed5;" horiz-adv-x="1310" 
d="M653 -25q-113 0 -213 44t-170 117.5t-110.5 173t-40.5 208.5v4q0 109 41 209t111 174.5t171 119t215 44.5q151 0 274.5 -74.5t192 -198.5t68.5 -270v-4q0 -146 -69 -271t-193.5 -200.5t-276.5 -75.5zM657 70q121 0 219.5 60.5t152.5 163t54 224.5v4q0 191 -124.5 322
t-305.5 131q-183 0 -304.5 -131t-121.5 -318v-4q0 -191 124.5 -321.5t305.5 -130.5zM410 1219l204 249h82l205 -249h-96l-152 139l-151 -139h-92zM866 1376l-6 150q57 4 93 30.5t36 61.5q0 31 -22 51.5t-62 20.5q-56 0 -114 -88q-9 5 -18 10.5t-13 7.5q-38 22 -41 25
q37 60 85.5 95.5t100.5 35.5q77 0 124.5 -45t47.5 -113q0 -62 -38.5 -101.5t-100.5 -58.5q0 -20 -4 -82h-68z" />
    <glyph glyph-name="uni1ED6" unicode="&#x1ed6;" horiz-adv-x="1740" 
d="M868 -25q-158 0 -294.5 60.5t-228 162t-143.5 235.5t-52 280v4q0 147 52.5 281.5t145 236.5t229.5 162.5t295 60.5q127 0 241 -39t200 -108t149.5 -161.5t96 -202t32.5 -226.5v-4q0 -147 -52.5 -281.5t-145.5 -236.5t-230 -163t-295 -61zM872 72q130 0 244 50.5
t193.5 137t125.5 204.5t46 249v4q0 131 -46.5 250t-127 205.5t-195 138t-244.5 51.5q-173 0 -313 -86t-217.5 -232.5t-77.5 -322.5v-4q0 -176 78.5 -323.5t219.5 -234.5t314 -87zM625 1585l204 250h82l205 -250h-96l-152 139l-151 -139h-92zM678 1894l-68 21q26 93 61 133.5
t87 40.5q38 0 119.5 -38t109.5 -38q31 0 50 20.5t38 71.5l68 -20q-25 -93 -59 -132.5t-89 -39.5q-34 0 -117 38t-110 38q-31 0 -50 -21t-40 -74z" />
    <glyph glyph-name="uni1ED7" unicode="&#x1ed7;" horiz-adv-x="1310" 
d="M653 -25q-113 0 -213 44t-170 117.5t-110.5 173t-40.5 208.5v4q0 109 41 209t111 174.5t171 119t215 44.5q151 0 274.5 -74.5t192 -198.5t68.5 -270v-4q0 -146 -69 -271t-193.5 -200.5t-276.5 -75.5zM657 70q121 0 219.5 60.5t152.5 163t54 224.5v4q0 191 -124.5 322
t-305.5 131q-183 0 -304.5 -131t-121.5 -318v-4q0 -191 124.5 -321.5t305.5 -130.5zM410 1219l204 249h82l205 -249h-96l-152 139l-151 -139h-92zM463 1528l-68 20q26 93 61 133.5t87 40.5q38 0 119.5 -37.5t109.5 -37.5q31 0 50 20.5t38 71.5l68 -21q-25 -93 -59 -132.5
t-89 -39.5q-34 0 -117 38t-110 38q-31 0 -50 -20.5t-40 -73.5z" />
    <glyph glyph-name="uni1ED8" unicode="&#x1ed8;" horiz-adv-x="1740" 
d="M868 -25q-158 0 -294.5 60.5t-228 162t-143.5 235.5t-52 280v4q0 147 52.5 281.5t145 236.5t229.5 162.5t295 60.5q127 0 241 -39t200 -108t149.5 -161.5t96 -202t32.5 -226.5v-4q0 -147 -52.5 -281.5t-145.5 -236.5t-230 -163t-295 -61zM872 72q130 0 244 50.5
t193.5 137t125.5 204.5t46 249v4q0 131 -46.5 250t-127 205.5t-195 138t-244.5 51.5q-173 0 -313 -86t-217.5 -232.5t-77.5 -322.5v-4q0 -176 78.5 -323.5t219.5 -234.5t314 -87zM625 1585l204 250h82l205 -250h-96l-152 139l-151 -139h-92zM817 -365v193h105v-193h-105z
" />
    <glyph glyph-name="uni1ED9" unicode="&#x1ed9;" horiz-adv-x="1310" 
d="M653 -25q-113 0 -213 44t-170 117.5t-110.5 173t-40.5 208.5v4q0 109 41 209t111 174.5t171 119t215 44.5q151 0 274.5 -74.5t192 -198.5t68.5 -270v-4q0 -146 -69 -271t-193.5 -200.5t-276.5 -75.5zM657 70q121 0 219.5 60.5t152.5 163t54 224.5v4q0 191 -124.5 322
t-305.5 131q-183 0 -304.5 -131t-121.5 -318v-4q0 -191 124.5 -321.5t305.5 -130.5zM410 1219l204 249h82l205 -249h-96l-152 139l-151 -139h-92zM604 -365v193h105v-193h-105z" />
    <glyph glyph-name="uni1EDA" unicode="&#x1eda;" horiz-adv-x="1740" 
d="M868 -25q-158 0 -294.5 60.5t-228 162t-143.5 235.5t-52 280v4q0 147 52.5 281.5t145 236.5t229.5 162.5t295 60.5q216 0 396 -115q74 6 106.5 30t32.5 77q0 54 -25 109q-3 6 -11 20t-11 23h125q31 -78 31 -160q0 -139 -146 -180q105 -105 163 -246t58 -295v-4
q0 -147 -52.5 -281.5t-145.5 -236.5t-230 -163t-295 -61zM872 72q130 0 244 50.5t193.5 137t125.5 204.5t46 249v4q0 131 -46.5 250t-127 205.5t-195 138t-244.5 51.5q-173 0 -313 -86t-217.5 -232.5t-77.5 -322.5v-4q0 -176 78.5 -323.5t219.5 -234.5t314 -87zM741 1587
l181 273l125 -62l-220 -211h-86z" />
    <glyph glyph-name="uni1EDB" unicode="&#x1edb;" horiz-adv-x="1310" 
d="M653 -25q-113 0 -213 44t-170 117.5t-110.5 173t-40.5 208.5v4q0 109 41 209t111 174.5t171 119t215 44.5q163 0 299 -92q68 8 99.5 31t31.5 71q0 59 -24 105q-2 6 -10 20t-11 23h121q29 -79 29 -154q0 -136 -143 -176q143 -156 143 -371v-4q0 -146 -69 -271
t-193.5 -200.5t-276.5 -75.5zM657 70q121 0 219.5 60.5t152.5 163t54 224.5v4q0 109 -43 202t-122 157q-118 94 -265 94q-183 0 -304.5 -131t-121.5 -318v-4q0 -191 124.5 -321.5t305.5 -130.5zM551 1219l180 272l125 -61l-219 -211h-86z" />
    <glyph glyph-name="uni1EDC" unicode="&#x1edc;" horiz-adv-x="1740" 
d="M868 -25q-158 0 -294.5 60.5t-228 162t-143.5 235.5t-52 280v4q0 147 52.5 281.5t145 236.5t229.5 162.5t295 60.5q216 0 396 -115q74 6 106.5 30t32.5 77q0 54 -25 109q-3 6 -11 20t-11 23h125q31 -78 31 -160q0 -139 -146 -180q105 -105 163 -246t58 -295v-4
q0 -147 -52.5 -281.5t-145.5 -236.5t-230 -163t-295 -61zM872 72q130 0 244 50.5t193.5 137t125.5 204.5t46 249v4q0 131 -46.5 250t-127 205.5t-195 138t-244.5 51.5q-173 0 -313 -86t-217.5 -232.5t-77.5 -322.5v-4q0 -176 78.5 -323.5t219.5 -234.5t314 -87zM911 1585
l-219 211l125 62l180 -273h-86z" />
    <glyph glyph-name="uni1EDD" unicode="&#x1edd;" horiz-adv-x="1310" 
d="M653 -25q-113 0 -213 44t-170 117.5t-110.5 173t-40.5 208.5v4q0 109 41 209t111 174.5t171 119t215 44.5q163 0 299 -92q68 8 99.5 31t31.5 71q0 59 -24 105q-2 6 -10 20t-11 23h121q29 -79 29 -154q0 -136 -143 -176q143 -156 143 -371v-4q0 -146 -69 -271
t-193.5 -200.5t-276.5 -75.5zM657 70q121 0 219.5 60.5t152.5 163t54 224.5v4q0 109 -43 202t-122 157q-118 94 -265 94q-183 0 -304.5 -131t-121.5 -318v-4q0 -191 124.5 -321.5t305.5 -130.5zM682 1219l-219 211l125 61l180 -272h-86z" />
    <glyph glyph-name="uni1EDE" unicode="&#x1ede;" horiz-adv-x="1740" 
d="M868 -25q-158 0 -294.5 60.5t-228 162t-143.5 235.5t-52 280v4q0 147 52.5 281.5t145 236.5t229.5 162.5t295 60.5q216 0 396 -115q74 6 106.5 30t32.5 77q0 54 -25 109q-3 6 -11 20t-11 23h125q31 -78 31 -160q0 -139 -146 -180q105 -105 163 -246t58 -295v-4
q0 -147 -52.5 -281.5t-145.5 -236.5t-230 -163t-295 -61zM872 72q130 0 244 50.5t193.5 137t125.5 204.5t46 249v4q0 131 -46.5 250t-127 205.5t-195 138t-244.5 51.5q-173 0 -313 -86t-217.5 -232.5t-77.5 -322.5v-4q0 -176 78.5 -323.5t219.5 -234.5t314 -87zM838 1587
l-7 150q57 4 93.5 30.5t36.5 61.5q0 31 -22 51.5t-62 20.5q-56 0 -115 -89q-9 4 -17 10t-14 9l-17 9q-16 9 -24 15q37 60 86 96t101 36q77 0 124.5 -45t47.5 -113q0 -116 -140 -160q0 -20 -4 -82h-67z" />
    <glyph glyph-name="uni1EDF" unicode="&#x1edf;" horiz-adv-x="1310" 
d="M653 -25q-113 0 -213 44t-170 117.5t-110.5 173t-40.5 208.5v4q0 109 41 209t111 174.5t171 119t215 44.5q163 0 299 -92q68 8 99.5 31t31.5 71q0 59 -24 105q-2 6 -10 20t-11 23h121q29 -79 29 -154q0 -136 -143 -176q143 -156 143 -371v-4q0 -146 -69 -271
t-193.5 -200.5t-276.5 -75.5zM657 70q121 0 219.5 60.5t152.5 163t54 224.5v4q0 109 -43 202t-122 157q-118 94 -265 94q-183 0 -304.5 -131t-121.5 -318v-4q0 -191 124.5 -321.5t305.5 -130.5zM625 1219l-7 149q57 4 93.5 30.5t36.5 61.5q0 31 -22 51.5t-62 20.5
q-57 0 -115 -88q-9 5 -18 10.5t-13 7.5q-37 23 -41 25q37 59 86 95t101 36q77 0 124.5 -45t47.5 -113q0 -116 -140 -160q0 -19 -4 -81h-67z" />
    <glyph glyph-name="uni1EE0" unicode="&#x1ee0;" horiz-adv-x="1740" 
d="M868 -25q-158 0 -294.5 60.5t-228 162t-143.5 235.5t-52 280v4q0 147 52.5 281.5t145 236.5t229.5 162.5t295 60.5q216 0 396 -115q74 6 106.5 30t32.5 77q0 54 -25 109q-3 6 -11 20t-11 23h125q31 -78 31 -160q0 -139 -146 -180q105 -105 163 -246t58 -295v-4
q0 -147 -52.5 -281.5t-145.5 -236.5t-230 -163t-295 -61zM872 72q130 0 244 50.5t193.5 137t125.5 204.5t46 249v4q0 131 -46.5 250t-127 205.5t-195 138t-244.5 51.5q-173 0 -313 -86t-217.5 -232.5t-77.5 -322.5v-4q0 -176 78.5 -323.5t219.5 -234.5t314 -87zM649 1569
l-76 20q29 97 68 138.5t100 41.5q41 0 134 -38.5t124 -38.5q37 0 58.5 20t44.5 74l76 -21q-29 -97 -68 -137.5t-100 -40.5q-40 0 -133 39t-125 39q-36 0 -57.5 -20.5t-45.5 -75.5z" />
    <glyph glyph-name="uni1EE1" unicode="&#x1ee1;" horiz-adv-x="1310" 
d="M653 -25q-113 0 -213 44t-170 117.5t-110.5 173t-40.5 208.5v4q0 109 41 209t111 174.5t171 119t215 44.5q163 0 299 -92q68 8 99.5 31t31.5 71q0 59 -24 105q-2 6 -10 20t-11 23h121q29 -79 29 -154q0 -136 -143 -176q143 -156 143 -371v-4q0 -146 -69 -271
t-193.5 -200.5t-276.5 -75.5zM657 70q121 0 219.5 60.5t152.5 163t54 224.5v4q0 109 -43 202t-122 157q-118 94 -265 94q-183 0 -304.5 -131t-121.5 -318v-4q0 -191 124.5 -321.5t305.5 -130.5zM428 1200l-70 19q28 107 68 148.5t104 41.5q39 0 134 -42t129 -42q37 0 58 21
t44 81l70 -18q-28 -107 -68 -148.5t-104 -41.5q-39 0 -134 42t-129 42q-37 0 -58 -21.5t-44 -81.5z" />
    <glyph glyph-name="uni1EE2" unicode="&#x1ee2;" horiz-adv-x="1740" 
d="M868 -25q-158 0 -294.5 60.5t-228 162t-143.5 235.5t-52 280v4q0 147 52.5 281.5t145 236.5t229.5 162.5t295 60.5q216 0 396 -115q74 6 106.5 30t32.5 77q0 54 -25 109q-3 6 -11 20t-11 23h125q31 -78 31 -160q0 -139 -146 -180q105 -105 163 -246t58 -295v-4
q0 -147 -52.5 -281.5t-145.5 -236.5t-230 -163t-295 -61zM872 72q130 0 244 50.5t193.5 137t125.5 204.5t46 249v4q0 131 -46.5 250t-127 205.5t-195 138t-244.5 51.5q-173 0 -313 -86t-217.5 -232.5t-77.5 -322.5v-4q0 -176 78.5 -323.5t219.5 -234.5t314 -87zM817 -365
v193h105v-193h-105z" />
    <glyph glyph-name="uni1EE3" unicode="&#x1ee3;" horiz-adv-x="1310" 
d="M653 -25q-113 0 -213 44t-170 117.5t-110.5 173t-40.5 208.5v4q0 109 41 209t111 174.5t171 119t215 44.5q163 0 299 -92q68 8 99.5 31t31.5 71q0 59 -24 105q-2 6 -10 20t-11 23h121q29 -79 29 -154q0 -136 -143 -176q143 -156 143 -371v-4q0 -146 -69 -271
t-193.5 -200.5t-276.5 -75.5zM657 70q121 0 219.5 60.5t152.5 163t54 224.5v4q0 109 -43 202t-122 157q-118 94 -265 94q-183 0 -304.5 -131t-121.5 -318v-4q0 -191 124.5 -321.5t305.5 -130.5zM604 -365v193h105v-193h-105z" />
    <glyph glyph-name="uni1EE4" unicode="&#x1ee4;" horiz-adv-x="1556" 
d="M729 -365v193h105v-193h-105zM778 -23q-129 0 -237 41t-186 118t-121.5 194.5t-43.5 265.5v838h107v-828q0 -255 127.5 -393.5t357.5 -138.5q222 0 350 134t128 388v838h106v-826q0 -301 -160.5 -466t-427.5 -165z" />
    <glyph glyph-name="uni1EE5" unicode="&#x1ee5;" horiz-adv-x="1255" 
d="M547 -365v193h104v-193h-104zM588 -25q-195 0 -306.5 119t-111.5 312v638h100v-620q0 -164 87 -260t245 -96q155 0 259 104.5t104 267.5v604h100v-1044h-100v195q-129 -220 -377 -220z" />
    <glyph glyph-name="uni1EE6" unicode="&#x1ee6;" horiz-adv-x="1556" 
d="M762 1565l-6 149q57 4 93 30.5t36 61.5q0 31 -22 51.5t-62 20.5q-57 0 -115 -88q-9 5 -18 10.5t-13 7.5q-38 23 -41 25q37 59 86 95t101 36q77 0 124.5 -45t47.5 -113q0 -116 -139 -159q0 -5 -5 -82h-67zM778 -23q-129 0 -237 41t-186 118t-121.5 194.5t-43.5 265.5v838
h107v-828q0 -255 127.5 -393.5t357.5 -138.5q222 0 350 134t128 388v838h106v-826q0 -301 -160.5 -466t-427.5 -165z" />
    <glyph glyph-name="uni1EE7" unicode="&#x1ee7;" horiz-adv-x="1255" 
d="M608 1219l-6 149q57 4 93 30.5t36 61.5q0 31 -22 51.5t-62 20.5q-57 0 -115 -88q-9 4 -17 9.5t-13 8.5q-38 23 -41 25q37 60 85.5 95.5t100.5 35.5q77 0 124.5 -45t47.5 -113q0 -62 -38.5 -101.5t-100.5 -58.5q0 -19 -4 -81h-68zM588 -25q-195 0 -306.5 119t-111.5 312
v638h100v-620q0 -164 87 -260t245 -96q155 0 259 104.5t104 267.5v604h100v-1044h-100v195q-129 -220 -377 -220z" />
    <glyph glyph-name="uni1EE8" unicode="&#x1ee8;" horiz-adv-x="1654" 
d="M778 -23q-129 0 -237 41t-186 118t-121.5 194.5t-43.5 265.5v838h107v-828q0 -255 127.5 -393.5t357.5 -138.5q222 0 350 134t128 388v838h100q82 21 82 96q0 53 -25 108q-3 6 -11 20t-11 23h125q30 -76 30 -159q0 -81 -45 -126.5t-139 -62.5v-725q0 -301 -160.5 -466
t-427.5 -165zM659 1559l181 272l125 -62l-220 -210h-86z" />
    <glyph glyph-name="uni1EE9" unicode="&#x1ee9;" horiz-adv-x="1312" 
d="M588 -25q-195 0 -306.5 119t-111.5 312v638h100v-620q0 -164 87 -260t245 -96q155 0 259 104.5t104 267.5v604h86q96 18 96 97q0 56 -25 104q-2 5 -9.5 19.5t-10.5 23.5h121q28 -77 28 -153q0 -79 -45.5 -123.5t-140.5 -61.5v-950h-100v195q-129 -220 -377 -220z
M524 1219l181 272l124 -61l-219 -211h-86z" />
    <glyph glyph-name="uni1EEA" unicode="&#x1eea;" horiz-adv-x="1654" 
d="M778 -23q-129 0 -237 41t-186 118t-121.5 194.5t-43.5 265.5v838h107v-828q0 -255 127.5 -393.5t357.5 -138.5q222 0 350 134t128 388v838h100q82 21 82 96q0 53 -25 108q-3 6 -11 20t-11 23h125q30 -76 30 -159q0 -81 -45 -126.5t-139 -62.5v-725q0 -301 -160.5 -466
t-427.5 -165zM821 1556l-219 211l125 62l180 -273h-86z" />
    <glyph glyph-name="uni1EEB" unicode="&#x1eeb;" horiz-adv-x="1312" 
d="M588 -25q-195 0 -306.5 119t-111.5 312v638h100v-620q0 -164 87 -260t245 -96q155 0 259 104.5t104 267.5v604h86q96 18 96 97q0 56 -25 104q-2 5 -9.5 19.5t-10.5 23.5h121q28 -77 28 -153q0 -79 -45.5 -123.5t-140.5 -61.5v-950h-100v195q-129 -220 -377 -220z
M635 1219l-219 211l125 61l180 -272h-86z" />
    <glyph glyph-name="uni1EEC" unicode="&#x1eec;" horiz-adv-x="1654" 
d="M778 -23q-129 0 -237 41t-186 118t-121.5 194.5t-43.5 265.5v838h107v-828q0 -255 127.5 -393.5t357.5 -138.5q222 0 350 134t128 388v838h100q82 21 82 96q0 53 -25 108q-3 6 -11 20t-11 23h125q30 -76 30 -159q0 -81 -45 -126.5t-139 -62.5v-725q0 -301 -160.5 -466
t-427.5 -165zM762 1565l-6 149q57 4 93 30.5t36 61.5q0 31 -22 51.5t-62 20.5q-57 0 -115 -88q-9 5 -18 10.5t-13 7.5q-38 23 -41 25q37 59 86 95t101 36q77 0 124.5 -45t47.5 -113q0 -116 -139 -159q0 -5 -5 -82h-67z" />
    <glyph glyph-name="uni1EED" unicode="&#x1eed;" horiz-adv-x="1312" 
d="M588 -25q-195 0 -306.5 119t-111.5 312v638h100v-620q0 -164 87 -260t245 -96q155 0 259 104.5t104 267.5v604h86q96 18 96 97q0 56 -25 104q-2 5 -9.5 19.5t-10.5 23.5h121q28 -77 28 -153q0 -79 -45.5 -123.5t-140.5 -61.5v-950h-100v195q-129 -220 -377 -220z
M608 1219l-6 149q57 4 93 30.5t36 61.5q0 31 -22 51.5t-62 20.5q-57 0 -115 -88q-9 4 -17 9.5t-13 8.5q-38 23 -41 25q37 60 85.5 95.5t100.5 35.5q77 0 124.5 -45t47.5 -113q0 -62 -38.5 -101.5t-100.5 -58.5q0 -19 -4 -81h-68z" />
    <glyph glyph-name="uni1EEE" unicode="&#x1eee;" horiz-adv-x="1654" 
d="M778 -23q-129 0 -237 41t-186 118t-121.5 194.5t-43.5 265.5v838h107v-828q0 -255 127.5 -393.5t357.5 -138.5q222 0 350 134t128 388v838h100q82 21 82 96q0 53 -25 108q-3 6 -11 20t-11 23h125q30 -76 30 -159q0 -81 -45 -126.5t-139 -62.5v-725q0 -301 -160.5 -466
t-427.5 -165zM557 1569l-76 20q29 97 68 138.5t100 41.5q41 0 134 -38.5t124 -38.5q37 0 58.5 20t44.5 74l75 -21q-29 -97 -67.5 -137.5t-99.5 -40.5q-40 0 -134 39t-125 39q-36 0 -57 -20.5t-45 -75.5z" />
    <glyph glyph-name="uni1EEF" unicode="&#x1eef;" horiz-adv-x="1312" 
d="M588 -25q-195 0 -306.5 119t-111.5 312v638h100v-620q0 -164 87 -260t245 -96q155 0 259 104.5t104 267.5v604h86q96 18 96 97q0 56 -25 104q-2 5 -9.5 19.5t-10.5 23.5h121q28 -77 28 -153q0 -79 -45.5 -123.5t-140.5 -61.5v-950h-100v195q-129 -220 -377 -220z
M393 1200l-69 19q28 107 68 148.5t104 41.5q39 0 133.5 -42t128.5 -42q37 0 58 21t44 81l70 -18q-28 -107 -68 -148.5t-104 -41.5q-39 0 -133.5 42t-128.5 42q-37 0 -58.5 -21.5t-44.5 -81.5z" />
    <glyph glyph-name="uni1EF0" unicode="&#x1ef0;" horiz-adv-x="1654" 
d="M778 -23q-129 0 -237 41t-186 118t-121.5 194.5t-43.5 265.5v838h107v-828q0 -255 127.5 -393.5t357.5 -138.5q222 0 350 134t128 388v838h100q82 21 82 96q0 53 -25 108q-3 6 -11 20t-11 23h125q30 -76 30 -159q0 -81 -45 -126.5t-139 -62.5v-725q0 -301 -160.5 -466
t-427.5 -165zM729 -365v193h105v-193h-105z" />
    <glyph glyph-name="uni1EF1" unicode="&#x1ef1;" horiz-adv-x="1312" 
d="M588 -25q-195 0 -306.5 119t-111.5 312v638h100v-620q0 -164 87 -260t245 -96q155 0 259 104.5t104 267.5v604h86q96 18 96 97q0 56 -25 104q-2 5 -9.5 19.5t-10.5 23.5h121q28 -77 28 -153q0 -79 -45.5 -123.5t-140.5 -61.5v-950h-100v195q-129 -220 -377 -220z
M547 -365v193h104v-193h-104z" />
    <glyph glyph-name="Ygrave" unicode="&#x1ef2;" horiz-adv-x="1466" 
d="M680 0v567l-614 867h133l536 -770l539 770h127l-615 -865v-569h-106zM766 1556l-219 211l125 62l180 -273h-86z" />
    <glyph glyph-name="ygrave" unicode="&#x1ef3;" horiz-adv-x="1204" 
d="M317 -334q-101 0 -206 45l34 88q79 -39 179 -39q84 0 142 55t116 191l-502 1038h117l434 -933l377 933h110l-452 -1081q-67 -160 -150 -228.5t-199 -68.5zM651 1219l-219 211l125 61l180 -272h-86z" />
    <glyph glyph-name="uni1EF4" unicode="&#x1ef4;" horiz-adv-x="1466" 
d="M684 -365v193h104v-193h-104zM680 0v567l-614 867h133l536 -770l539 770h127l-615 -865v-569h-106z" />
    <glyph glyph-name="uni1EF5" unicode="&#x1ef5;" horiz-adv-x="1204" 
d="M700 -365v193h105v-193h-105zM317 -334q-101 0 -206 45l34 88q79 -39 179 -39q84 0 142 55t116 191l-502 1038h117l434 -933l377 933h110l-452 -1081q-67 -160 -150 -228.5t-199 -68.5z" />
    <glyph glyph-name="uni1EF6" unicode="&#x1ef6;" horiz-adv-x="1466" 
d="M705 1565l-7 149q57 4 93 30.5t36 61.5q0 31 -22 51.5t-62 20.5q-56 0 -114 -88q-9 5 -18 10.5t-13 7.5q-38 23 -41 25q37 60 85.5 95.5t100.5 35.5q77 0 124.5 -45t47.5 -113q0 -116 -139 -159q0 -20 -4 -82h-67zM680 0v567l-614 867h133l536 -770l539 770h127
l-615 -865v-569h-106z" />
    <glyph glyph-name="uni1EF7" unicode="&#x1ef7;" horiz-adv-x="1204" 
d="M602 1219l-6 149q57 4 93 30.5t36 61.5q0 31 -22 51.5t-62 20.5q-57 0 -115 -88q-9 4 -17 9.5t-13 8.5q-37 23 -41 25q37 60 85.5 95.5t100.5 35.5q77 0 124.5 -45t47.5 -113q0 -62 -38.5 -101.5t-100.5 -58.5q0 -19 -4 -81h-68zM317 -334q-101 0 -206 45l34 88
q79 -39 179 -39q84 0 142 55t116 191l-502 1038h117l434 -933l377 933h110l-452 -1081q-67 -160 -150 -228.5t-199 -68.5z" />
    <glyph glyph-name="uni1EF8" unicode="&#x1ef8;" horiz-adv-x="1466" 
d="M680 0v567l-614 867h133l536 -770l539 770h127l-615 -865v-569h-106zM500 1589l-70 19q28 107 68 148.5t104 41.5q39 0 133.5 -42t128.5 -42q37 0 58.5 21.5t44.5 81.5l69 -19q-28 -107 -68 -148.5t-104 -41.5q-39 0 -133.5 42t-128.5 42q-37 0 -58 -21.5t-44 -81.5z" />
    <glyph glyph-name="uni1EF9" unicode="&#x1ef9;" horiz-adv-x="1204" 
d="M317 -334q-101 0 -206 45l34 88q79 -39 179 -39q84 0 142 55t116 191l-502 1038h117l434 -933l377 933h110l-452 -1081q-67 -160 -150 -228.5t-199 -68.5zM397 1200l-69 19q28 107 68 148.5t104 41.5q39 0 133.5 -42t128.5 -42q37 0 58 21t44 81l70 -18
q-28 -107 -68 -148.5t-104 -41.5q-39 0 -133.5 42t-128.5 42q-37 0 -58.5 -21.5t-44.5 -81.5z" />
    <glyph glyph-name="enspace" unicode="&#x2002;" 
 />
    <glyph glyph-name="emspace" unicode="&#x2003;" horiz-adv-x="2048" 
 />
    <glyph glyph-name="threeperemspace" unicode="&#x2004;" horiz-adv-x="681" 
 />
    <glyph glyph-name="fourperemspace" unicode="&#x2005;" horiz-adv-x="512" 
 />
    <glyph glyph-name="thinspace" unicode="&#x2009;" horiz-adv-x="272" 
 />
    <glyph glyph-name="hairspace" unicode="&#x200a;" horiz-adv-x="153" 
 />
    <glyph glyph-name="endash" unicode="&#x2013;" horiz-adv-x="1081" 
d="M143 555v107h795v-107h-795z" />
    <glyph glyph-name="emdash" unicode="&#x2014;" horiz-adv-x="1839" 
d="M143 555v107h1553v-107h-1553z" />
    <glyph glyph-name="quoteleft" unicode="&#x2018;" horiz-adv-x="471" 
d="M158 1051v151q0 97 39 152t131 90l24 -51q-67 -36 -92.5 -72.5t-21.5 -95.5h55v-174h-135z" />
    <glyph glyph-name="quoteright" unicode="&#x2019;" horiz-adv-x="471" 
d="M143 1040l-24 52q67 36 92.5 72.5t21.5 95.5h-55v174h135v-152q0 -97 -39 -152t-131 -90z" />
    <glyph glyph-name="quotesinglbase" unicode="&#x201a;" horiz-adv-x="471" 
d="M133 -219l-24 51q67 36 92.5 72.5t21.5 95.5h-55v174h135v-151q0 -97 -39 -152t-131 -90z" />
    <glyph glyph-name="quotedblleft" unicode="&#x201c;" horiz-adv-x="839" 
d="M526 1051v151q0 97 39 152t131 90l25 -51q-68 -36 -93.5 -72.5t-21.5 -95.5h56v-174h-136zM158 1051v151q0 97 39 152t131 90l24 -51q-67 -36 -92.5 -72.5t-21.5 -95.5h55v-174h-135z" />
    <glyph glyph-name="quotedblright" unicode="&#x201d;" horiz-adv-x="839" 
d="M512 1040l-25 52q68 36 93.5 72.5t21.5 95.5h-55v174h135v-152q0 -97 -39 -152t-131 -90zM143 1040l-24 52q67 36 92.5 72.5t21.5 95.5h-55v174h135v-152q0 -97 -39 -152t-131 -90z" />
    <glyph glyph-name="quotedblbase" unicode="&#x201e;" horiz-adv-x="839" 
d="M502 -219l-25 51q68 36 93.5 72.5t21.5 95.5h-55v174h135v-151q0 -97 -39 -152t-131 -90zM133 -219l-24 51q67 36 92.5 72.5t21.5 95.5h-55v174h135v-151q0 -97 -39 -152t-131 -90z" />
    <glyph glyph-name="dagger" unicode="&#x2020;" horiz-adv-x="839" 
d="M375 487l10 586l-256 -14v92l254 -14l-14 297h102l-14 -297l254 14v-92l-256 14l10 -586h-90z" />
    <glyph glyph-name="daggerdbl" unicode="&#x2021;" horiz-adv-x="880" 
d="M389 0l14 297l-253 -14v92l256 -15l-11 357l11 356l-256 -14v92l253 -14l-14 297h103l-15 -297l254 14v-92l-256 14l10 -356l-10 -357l256 15v-92l-254 14l15 -297h-103z" />
    <glyph glyph-name="bullet" unicode="&#x2022;" horiz-adv-x="962" 
d="M481 467q-104 0 -179 74t-75 178v4q0 103 76.5 177.5t177.5 74.5q100 0 177 -74.5t77 -177.5v-4q0 -104 -75 -178t-179 -74z" />
    <glyph glyph-name="ellipsis" unicode="&#x2026;" horiz-adv-x="1392" 
d="M1094 0v170h131v-170h-131zM631 0v170h131v-170h-131zM168 0v170h131v-170h-131z" />
    <glyph glyph-name="perthousand" unicode="&#x2030;" horiz-adv-x="2457" 
d="M426 717q-137 0 -225 107.5t-88 254.5v4q0 148 89.5 257.5t227.5 109.5q91 0 163.5 -51.5t111 -134t38.5 -177.5v-4q0 -149 -89 -257.5t-228 -108.5zM262 0l1053 1434h110l-1052 -1434h-111zM2028 -16q-137 0 -225.5 107.5t-88.5 254.5v4q0 148 90 257.5t228 109.5
q91 0 163.5 -51.5t111 -134t38.5 -177.5v-4q0 -149 -89 -257.5t-228 -108.5zM1257 -16q-137 0 -225 107.5t-88 254.5v4q0 148 90 257.5t228 109.5q91 0 163.5 -51.5t111 -134t38.5 -177.5v-4q0 -149 -89.5 -257.5t-228.5 -108.5zM430 805q90 0 148.5 78.5t58.5 195.5v4
q0 117 -62 198t-149 81q-89 0 -148 -80.5t-59 -194.5v-4q0 -121 61.5 -199.5t149.5 -78.5zM2032 72q90 0 148 78.5t58 195.5v4q0 118 -61.5 198.5t-148.5 80.5q-89 0 -148 -80.5t-59 -194.5v-4q0 -121 61.5 -199.5t149.5 -78.5zM1262 72q90 0 148 78.5t58 195.5v4
q0 117 -62 198t-149 81q-89 0 -147.5 -80t-58.5 -195v-4q0 -121 61.5 -199.5t149.5 -78.5z" />
    <glyph glyph-name="guilsinglleft" unicode="&#x2039;" horiz-adv-x="636" 
d="M432 86l-328 428v16l328 428l76 -49l-281 -385l281 -389z" />
    <glyph glyph-name="guilsinglright" unicode="&#x203a;" horiz-adv-x="636" 
d="M205 86l-76 49l281 385l-281 389l76 49l327 -428v-16z" />
    <glyph glyph-name="fraction" unicode="&#x2044;" horiz-adv-x="921" 
d="M-72 0l504 729l473 705h88l-504 -729l-473 -705h-88z" />
    <glyph glyph-name="Euro" unicode="&#x20ac;" horiz-adv-x="1474" 
d="M1354 1171l-82 -55q-57 84 -113 136t-131.5 82t-169.5 30q-152 0 -269.5 -115t-168.5 -299h579v-98h-602q-8 -57 -8 -133q0 -63 6 -119h604v-98h-587q50 -197 175.5 -314.5t295.5 -117.5q126 0 221 67.5t176 194.5l78 -51q-196 -306 -481 -306q-211 0 -364 144.5
t-208 382.5h-184v98h168q-4 26 -4 115q0 74 8 137h-172v98h192q55 221 205.5 364.5t343.5 143.5q87 0 162 -21t134.5 -61.5t105.5 -90t90 -114.5z" />
    <glyph glyph-name="published" unicode="&#x2117;" horiz-adv-x="1699" 
d="M848 -25q-153 0 -290.5 59t-235.5 158.5t-155.5 235.5t-57.5 285v4q0 148 58 284.5t156.5 237t237 160t291.5 59.5t290.5 -59t235.5 -158t155.5 -235t57.5 -285v-4q0 -148 -58 -284.5t-156.5 -237t-237 -160.5t-291.5 -60zM848 33q190 0 347 92.5t246 249.5t89 342v4
q0 186 -88 342t-244 247t-346 91t-347 -92.5t-246 -249.5t-89 -342v-4q0 -186 88 -342t244 -247t346 -91zM606 358v750h289q136 0 214.5 -61t78.5 -175v-4q0 -120 -88.5 -183.5t-218.5 -63.5h-185v-263h-90zM696 705h187q100 0 156.5 41t56.5 118v4q0 78 -54 117t-153 39
h-193v-319z" />
    <glyph glyph-name="servicemark" unicode="&#x2120;" horiz-adv-x="1449" 
d="M719 803v631h76l245 -375l246 375h74v-631h-72v504l-244 -365h-10l-243 365v-504h-72zM336 793q-152 0 -266 102l45 53q101 -90 223 -90q66 0 106.5 31.5t40.5 81.5q0 45 -36 70.5t-134 48.5q-115 24 -166 64t-51 116q0 75 62.5 124.5t156.5 49.5q125 0 226 -78l-43 -53
q-83 65 -185 65q-65 0 -104 -29.5t-39 -74.5t36 -72t138 -49q108 -24 160.5 -65.5t52.5 -112.5q0 -83 -64 -132.5t-159 -49.5z" />
    <glyph glyph-name="trademark" unicode="&#x2122;" horiz-adv-x="1413" 
d="M682 803v631h76l246 -375l245 375h74v-631h-72v504l-243 -365h-11l-243 365v-504h-72zM260 803v561h-207v70h486v-70h-207v-561h-72z" />
    <glyph glyph-name="minus" unicode="&#x2212;" horiz-adv-x="1269" 
d="M1130 670h-991v102h991v-102z" />
    <glyph glyph-name="f_f" unicode="&#xfb00;" horiz-adv-x="1482" 
d="M993 0v952h-151v92h151v103q0 180 92 272q82 82 220 82q85 0 155 -24v-95q-88 27 -155 27q-211 0 -211 -264v-101h364v-92h-364v-952h-101zM252 0v952h-152v92h152v103q0 180 92 272q82 82 219 82q85 0 156 -24v-95q-89 27 -156 27q-211 0 -211 -264v-101h365v-92h-365
v-952h-100z" />
    <glyph glyph-name="fi" unicode="&#xfb01;" horiz-adv-x="1251" 
d="M252 0v952h-152v92h152v103q0 180 92 272q82 82 219 82q85 0 156 -24v-95q-89 27 -156 27q-211 0 -211 -264v-101h365v-92h-365v-952h-100zM946 0v1044h101v-1044h-101zM934 1317v137h125v-137h-125z" />
    <glyph glyph-name="fl" unicode="&#xfb02;" horiz-adv-x="1251" 
d="M252 0v952h-152v92h152v103q0 180 92 272q82 82 219 82q85 0 156 -24v-95q-89 27 -156 27q-211 0 -211 -264v-101h365v-92h-365v-952h-100zM946 0v1495h101v-1495h-101z" />
    <glyph glyph-name="f_f_i" unicode="&#xfb03;" horiz-adv-x="1992" 
d="M993 0v952h-151v92h151v103q0 180 92 272q82 82 220 82q85 0 155 -24v-95q-88 27 -155 27q-211 0 -211 -264v-101h364v-92h-364v-952h-101zM252 0v952h-152v92h152v103q0 180 92 272q82 82 219 82q85 0 156 -24v-95q-89 27 -156 27q-211 0 -211 -264v-101h365v-92h-365
v-952h-100zM1688 0v1044h100v-1044h-100zM1675 1317v137h125v-137h-125z" />
    <glyph glyph-name="f_f_l" unicode="&#xfb04;" horiz-adv-x="1992" 
d="M993 0v952h-151v92h151v103q0 180 92 272q82 82 220 82q85 0 155 -24v-95q-88 27 -155 27q-211 0 -211 -264v-101h364v-92h-364v-952h-101zM252 0v952h-152v92h152v103q0 180 92 272q82 82 219 82q85 0 156 -24v-95q-89 27 -156 27q-211 0 -211 -264v-101h365v-92h-365
v-952h-100zM1688 0v1495h100v-1495h-100z" />
    <glyph glyph-name="NUL" horiz-adv-x="0" 
 />
    <glyph glyph-name="CR" horiz-adv-x="614" 
 />
    <glyph glyph-name="Q.alt" horiz-adv-x="1740" 
d="M1509 -207l-292 268q-156 -86 -349 -86q-158 0 -294.5 60.5t-228 162t-143.5 235.5t-52 280v4q0 147 52.5 281.5t145 236.5t229.5 162.5t295 60.5q127 0 241 -39t200 -108t149.5 -161.5t96 -202t32.5 -226.5v-4q0 -176 -72.5 -330.5t-203.5 -259.5l350 -328v-6h-156z
M872 72q130 0 244 50.5t193.5 137t125.5 204.5t46 249v4q0 131 -46.5 250t-127 205.5t-195 138t-244.5 51.5q-173 0 -313 -86t-217.5 -232.5t-77.5 -322.5v-4q0 -176 78.5 -323.5t219.5 -234.5t314 -87z" />
    <glyph glyph-name="a.alt" horiz-adv-x="1351" 
d="M631 -25q-95 0 -185.5 38t-162.5 105.5t-116 172t-44 227.5v4q0 122 44 227t115.5 174t162.5 107.5t186 38.5q262 0 430 -250v225h100v-1044h-100v233q-173 -258 -430 -258zM641 72q82 0 159 33t136 90.5t95 142.5t36 182v4q0 98 -36 183t-95 142.5t-136 90.5t-159 33
q-177 0 -293.5 -121.5t-116.5 -325.5v-4q0 -200 119.5 -325t290.5 -125z" />
    <glyph glyph-name="aacute.alt" horiz-adv-x="1351" 
d="M631 -25q-95 0 -185.5 38t-162.5 105.5t-116 172t-44 227.5v4q0 122 44 227t115.5 174t162.5 107.5t186 38.5q262 0 430 -250v225h100v-1044h-100v233q-173 -258 -430 -258zM641 72q82 0 159 33t136 90.5t95 142.5t36 182v4q0 98 -36 183t-95 142.5t-136 90.5t-159 33
q-177 0 -293.5 -121.5t-116.5 -325.5v-4q0 -200 119.5 -325t290.5 -125zM637 1219l180 272l125 -61l-219 -211h-86z" />
    <glyph glyph-name="abreve.alt" horiz-adv-x="1351" 
d="M631 -25q-95 0 -185.5 38t-162.5 105.5t-116 172t-44 227.5v4q0 122 44 227t115.5 174t162.5 107.5t186 38.5q262 0 430 -250v225h100v-1044h-100v233q-173 -258 -430 -258zM641 72q82 0 159 33t136 90.5t95 142.5t36 182v4q0 98 -36 183t-95 142.5t-136 90.5t-159 33
q-177 0 -293.5 -121.5t-116.5 -325.5v-4q0 -200 119.5 -325t290.5 -125zM680 1214q-117 0 -191 61t-81 169h79q20 -60 68.5 -95.5t124.5 -35.5t124 35.5t68 95.5h80q-7 -108 -81 -169t-191 -61z" />
    <glyph glyph-name="acircumflex.alt" horiz-adv-x="1351" 
d="M631 -25q-95 0 -185.5 38t-162.5 105.5t-116 172t-44 227.5v4q0 122 44 227t115.5 174t162.5 107.5t186 38.5q262 0 430 -250v225h100v-1044h-100v233q-173 -258 -430 -258zM641 72q82 0 159 33t136 90.5t95 142.5t36 182v4q0 98 -36 183t-95 142.5t-136 90.5t-159 33
q-177 0 -293.5 -121.5t-116.5 -325.5v-4q0 -200 119.5 -325t290.5 -125zM434 1219l205 249h82l205 -249h-97l-151 139l-152 -139h-92z" />
    <glyph glyph-name="adieresis.alt" horiz-adv-x="1351" 
d="M631 -25q-95 0 -185.5 38t-162.5 105.5t-116 172t-44 227.5v4q0 122 44 227t115.5 174t162.5 107.5t186 38.5q262 0 430 -250v225h100v-1044h-100v233q-173 -258 -430 -258zM641 72q82 0 159 33t136 90.5t95 142.5t36 182v4q0 98 -36 183t-95 142.5t-136 90.5t-159 33
q-177 0 -293.5 -121.5t-116.5 -325.5v-4q0 -200 119.5 -325t290.5 -125zM776 1219v163h142v-163h-142zM442 1219v163h142v-163h-142z" />
    <glyph glyph-name="agrave.alt" horiz-adv-x="1351" 
d="M631 -25q-95 0 -185.5 38t-162.5 105.5t-116 172t-44 227.5v4q0 122 44 227t115.5 174t162.5 107.5t186 38.5q262 0 430 -250v225h100v-1044h-100v233q-173 -258 -430 -258zM641 72q82 0 159 33t136 90.5t95 142.5t36 182v4q0 98 -36 183t-95 142.5t-136 90.5t-159 33
q-177 0 -293.5 -121.5t-116.5 -325.5v-4q0 -200 119.5 -325t290.5 -125zM637 1219l-219 211l125 61l180 -272h-86z" />
    <glyph glyph-name="amacron.alt" horiz-adv-x="1351" 
d="M631 -25q-95 0 -185.5 38t-162.5 105.5t-116 172t-44 227.5v4q0 122 44 227t115.5 174t162.5 107.5t186 38.5q262 0 430 -250v225h100v-1044h-100v233q-173 -258 -430 -258zM641 72q82 0 159 33t136 90.5t95 142.5t36 182v4q0 98 -36 183t-95 142.5t-136 90.5t-159 33
q-177 0 -293.5 -121.5t-116.5 -325.5v-4q0 -200 119.5 -325t290.5 -125zM379 1272v96h602v-96h-602z" />
    <glyph glyph-name="aogonek.alt" horiz-adv-x="1351" 
d="M1194 -262v-74q-127 4 -192.5 46.5t-65.5 115.5q0 52 30.5 96.5t94.5 93.5v217q-173 -258 -430 -258q-95 0 -185.5 38t-162.5 105.5t-116 172t-44 227.5v4q0 122 44 227t115.5 174t162.5 107.5t186 38.5q262 0 430 -250v225h100v-1044h-8q-62 -49 -88.5 -85t-26.5 -77
q0 -44 36 -68.5t120 -31.5zM641 72q82 0 159 33t136 90.5t95 142.5t36 182v4q0 98 -36 183t-95 142.5t-136 90.5t-159 33q-177 0 -293.5 -121.5t-116.5 -325.5v-4q0 -200 119.5 -325t290.5 -125z" />
    <glyph glyph-name="aring.alt" horiz-adv-x="1351" 
d="M631 -25q-95 0 -185.5 38t-162.5 105.5t-116 172t-44 227.5v4q0 122 44 227t115.5 174t162.5 107.5t186 38.5q262 0 430 -250v225h100v-1044h-100v233q-173 -258 -430 -258zM641 72q82 0 159 33t136 90.5t95 142.5t36 182v4q0 98 -36 183t-95 142.5t-136 90.5t-159 33
q-177 0 -293.5 -121.5t-116.5 -325.5v-4q0 -200 119.5 -325t290.5 -125zM467 1419q0 85 62.5 145t150.5 60t150.5 -60t62.5 -145t-62.5 -145t-150.5 -60t-150.5 60t-62.5 145zM537 1419q0 -60 41.5 -101.5t101.5 -41.5t101.5 41.5t41.5 101.5t-41.5 102t-101.5 42
t-101.5 -42t-41.5 -102z" />
    <glyph glyph-name="aring.alt2" horiz-adv-x="1175" 
d="M375 1204q0 85 62.5 145t150.5 60t150.5 -60t62.5 -145q0 -104 -88 -160q107 -23 186 -98q107 -107 107 -295v-651h-99v174q-63 -86 -162.5 -142.5t-236.5 -56.5q-75 0 -145.5 21t-129 60.5t-94 103.5t-35.5 143v4q0 161 125 250.5t332 89.5q179 0 346 -45v45
q0 157 -90 238.5t-254 81.5q-162 0 -327 -84l-37 88q134 64 254 82q-78 58 -78 151zM514 70q163 0 279 90.5t116 230.5v119q-180 47 -354 47q-163 0 -253.5 -66t-90.5 -178v-4q0 -110 88.5 -174.5t214.5 -64.5zM444 1204q0 -60 42 -101.5t102 -41.5t101.5 41.5t41.5 101.5
t-41.5 102t-101.5 42t-102 -42t-42 -102z" />
    <glyph glyph-name="aringacute.alt" horiz-adv-x="1351" 
d="M635 1679l182 242l121 -61l-213 -181h-90zM631 -25q-95 0 -185.5 38t-162.5 105.5t-116 172t-44 227.5v4q0 122 44 227t115.5 174t162.5 107.5t186 38.5q262 0 430 -250v225h100v-1044h-100v233q-173 -258 -430 -258zM641 72q82 0 159 33t136 90.5t95 142.5t36 182v4
q0 98 -36 183t-95 142.5t-136 90.5t-159 33q-177 0 -293.5 -121.5t-116.5 -325.5v-4q0 -200 119.5 -325t290.5 -125zM467 1419q0 85 62.5 145t150.5 60t150.5 -60t62.5 -145t-62.5 -145t-150.5 -60t-150.5 60t-62.5 145zM537 1419q0 -60 41.5 -101.5t101.5 -41.5t101.5 41.5
t41.5 101.5t-41.5 102t-101.5 42t-101.5 -42t-41.5 -102z" />
    <glyph glyph-name="aringacute.alt2" horiz-adv-x="1175" 
d="M543 1483l182 241l121 -61l-213 -180h-90zM375 1204q0 85 62.5 145t150.5 60t150.5 -60t62.5 -145q0 -104 -88 -160q107 -23 186 -98q107 -107 107 -295v-651h-99v174q-63 -86 -162.5 -142.5t-236.5 -56.5q-75 0 -145.5 21t-129 60.5t-94 103.5t-35.5 143v4
q0 161 125 250.5t332 89.5q179 0 346 -45v45q0 157 -90 238.5t-254 81.5q-162 0 -327 -84l-37 88q134 64 254 82q-78 58 -78 151zM514 70q163 0 279 90.5t116 230.5v119q-180 47 -354 47q-163 0 -253.5 -66t-90.5 -178v-4q0 -110 88.5 -174.5t214.5 -64.5zM444 1204
q0 -60 42 -101.5t102 -41.5t101.5 41.5t41.5 101.5t-41.5 102t-101.5 42t-102 -42t-42 -102z" />
    <glyph glyph-name="atilde.alt" horiz-adv-x="1351" 
d="M631 -25q-95 0 -185.5 38t-162.5 105.5t-116 172t-44 227.5v4q0 122 44 227t115.5 174t162.5 107.5t186 38.5q262 0 430 -250v225h100v-1044h-100v233q-173 -258 -430 -258zM641 72q82 0 159 33t136 90.5t95 142.5t36 182v4q0 98 -36 183t-95 142.5t-136 90.5t-159 33
q-177 0 -293.5 -121.5t-116.5 -325.5v-4q0 -200 119.5 -325t290.5 -125zM453 1200l-70 19q28 107 68 148.5t104 41.5q39 0 133.5 -42t128.5 -42q37 0 58.5 21t44.5 81l69 -18q-28 -107 -68 -148.5t-104 -41.5q-39 0 -133.5 42t-128.5 42q-37 0 -58 -21.5t-44 -81.5z" />
    <glyph glyph-name="three.alt" horiz-adv-x="1228" 
d="M621 -25q-166 0 -302 72t-227 193l86 63q174 -231 447 -231q157 0 260.5 84t103.5 219v4q0 140 -111 218.5t-313 78.5h-143v94h145q167 0 275 80.5t108 218.5v4q0 126 -95 207.5t-249 81.5q-127 0 -222.5 -54.5t-176.5 -164.5l-82 49q179 266 485 266q195 0 323 -108.5
t128 -272.5v-4q0 -71 -23.5 -129.5t-64 -98.5t-86 -67t-99.5 -45q140 -39 226 -129t86 -223v-4q0 -168 -136 -285t-343 -117z" />
    <glyph glyph-name="registered.alt" horiz-adv-x="1699" 
d="M848 -25q-153 0 -290.5 59t-235.5 158.5t-155.5 235.5t-57.5 285v4q0 148 58 284.5t156.5 237t237 160t291.5 59.5t290.5 -59t235.5 -158t155.5 -235t57.5 -285v-4q0 -148 -58 -284.5t-156.5 -237t-237 -160.5t-291.5 -60zM848 33q190 0 347 92.5t246 249.5t89 342v4
q0 186 -88 342t-244 247t-346 91t-347 -92.5t-246 -249.5t-89 -342v-4q0 -186 88 -342t244 -247t346 -91zM565 362v750h336q143 0 219 -76q58 -58 58 -139v-4q0 -89 -54.5 -143t-150.5 -72l250 -316h-115l-238 302h-217v-302h-88zM653 745h234q89 0 143.5 37t54.5 107v4
q0 62 -50.5 98.5t-137.5 36.5h-244v-283z" />
    <glyph glyph-name="hfjslug" horiz-adv-x="1421" 
d="M1319 -410h-426l-16 29h-334l-17 -29h-424v621q29 0 47.5 18t18.5 47q0 27 -18.5 46.5t-47.5 19.5v1135h205l62 161h684l59 -161h207v-1887zM819 1153v-352h31v160h78v28h-78v135h88v29h-119zM377 1153v-352h31v162h96v-162h31v352h-31v-162h-96v162h-31zM942 838v-31
q19 -8 43 -8q64 0 64 73v281h-33v-281q0 -45 -33 -45q-23 0 -41 11zM760 952l-27 6q-3 -9 -8 -30.5t-8 -30.5h-2l-33 64q47 44 47 86q0 63 -55 63q-26 0 -42 -18t-16 -45q0 -9 1 -16.5t4.5 -16.5t6 -13.5t9 -16.5t8.5 -17q-47 -38 -47 -97q0 -35 16 -55t43 -20q39 0 60 49h2
l24 -49l25 12l-35 65q18 45 27 80zM1071 662v-95h16v25l17 16l31 -41h20l-41 54l37 41h-21l-40 -50h-3v50h-16zM999 598l21 -31h18l-24 35q20 9 20 29q0 31 -35 31h-41v-95h17v31h24zM872 565q23 0 36.5 14t13.5 35q0 20 -14 35t-36 15t-35.5 -15t-13.5 -35q0 -21 13 -35
t36 -14zM758 616l-27 46h-18l37 -60v-35h16v35l37 60h-19zM395 662v-95h70v15h-53v26h47v15h-47v24h53v15h-70zM270 662v-95h17v66l51 -66h14v95h-16v-66l-51 66h-15zM494 662l28 -97h17l22 70h2l23 -70h16l29 97h-17l-20 -72h-2l-23 72h-14l-23 -72h-2l-20 72h-16zM670 981
q-25 48 -25 66q0 38 29 38q26 0 26 -38q0 -31 -30 -66zM659 946l41 -80q-15 -43 -41 -43q-32 0 -32 51q0 40 32 72zM997 612h-22v35h22q21 0 21 -16q0 -19 -21 -19zM872 580q-32 0 -32 34q0 14 8 24.5t24 10.5t24.5 -10.5t8.5 -24.5q0 -34 -33 -34z" />
    <glyph glyph-name="i.dot" horiz-adv-x="509" 
d="M193 1317v137h124v-137h-124zM205 0v1044h100v-1044h-100z" />
    <glyph glyph-name="caron.alt" 
d="M432 1190l35 305h125v-6l-100 -299h-60z" />
    <glyph glyph-name="acute.cap" 
d="M391 1567l191 241l120 -57l-219 -184h-92z" />
    <glyph glyph-name="hungarumlaut.cap" 
d="M217 1567l191 241l120 -57l-219 -184h-92zM504 1567l190 241l121 -57l-219 -184h-92z" />
    <glyph glyph-name="grave.cap" 
d="M442 1808l191 -241h-92l-219 184z" />
    <glyph glyph-name="circumflex.cap" 
d="M254 1567l211 219h94l211 -219h-111l-149 125l-150 -125h-106z" />
    <glyph glyph-name="caron.cap" 
d="M770 1786l-211 -219h-94l-211 219h111l149 -125l150 125h106z" />
    <glyph glyph-name="breve.cap" 
d="M512 1563q-117 0 -191 53.5t-81 150.5h90q37 -106 182 -106t182 106h90q-7 -97 -81 -150.5t-191 -53.5z" />
    <glyph glyph-name="tilde.cap" 
d="M285 1548l-76 21q29 97 68 138.5t100 41.5q41 0 134 -39t124 -39q36 0 57 19.5t45 74.5l76 -20q-29 -97 -68 -137.5t-100 -40.5q-41 0 -134 39t-124 39q-36 0 -57 -21t-45 -76z" />
    <glyph glyph-name="macron.cap" 
d="M195 1620v100h634v-100h-634z" />
    <glyph glyph-name="dieresis.cap" 
d="M616 1567v155h150v-155h-150zM256 1567v155h152v-155h-152z" />
    <glyph glyph-name="dotaccent.cap" 
d="M434 1567v155h156v-155h-156z" />
    <glyph glyph-name="ring.cap" 
d="M295 1757q0 84 62.5 139.5t154.5 55.5t154.5 -55.5t62.5 -139.5t-62.5 -139t-154.5 -55t-154.5 55t-62.5 139zM373 1757q0 -56 39.5 -92.5t99.5 -36.5t99.5 36.5t39.5 92.5t-39.5 92.5t-99.5 36.5t-99.5 -36.5t-39.5 -92.5z" />
    </font>
</defs>
</svg>
